<?xml version="1.0" standalone="no"?>
<!DOCTYPE svg PUBLIC "-//W3C//DTD SVG 1.1//EN" "http://www.w3.org/Graphics/SVG/1.1/DTD/svg11.dtd" >
<svg xmlns="http://www.w3.org/2000/svg">
<metadata></metadata>
<defs>
<font id="budmo_jigglerregular" horiz-adv-x="1359" >
<font-face units-per-em="2048" ascent="1536" descent="-512" />
<missing-glyph horiz-adv-x="503" />
<glyph horiz-adv-x="2048" />
<glyph horiz-adv-x="2048" />
<glyph unicode="&#xd;" horiz-adv-x="503" />
<glyph horiz-adv-x="503" />
<glyph unicode=" "  horiz-adv-x="503" />
<glyph unicode="&#x09;" horiz-adv-x="503" />
<glyph unicode="&#xa0;" horiz-adv-x="503" />
<glyph unicode="!" horiz-adv-x="550" d="M74 176q0 66 33.5 117t93.5 74h-119v921h371v-921h-107q59 -23 95 -74t36 -117q0 -92 -55 -146.5t-148 -54.5q-88 0 -144 54.5t-56 146.5zM197 176q0 -33 21.5 -56.5t55.5 -23.5q33 0 56.5 23.5t23.5 56.5q0 35 -23.5 56.5t-56.5 21.5q-35 0 -56 -21.5t-21 -56.5z M197 530q0 -35 22.5 -57t54.5 -22q33 0 56.5 22t23.5 57q0 33 -23.5 55.5t-56.5 22.5t-55 -22.5t-22 -55.5zM197 729q0 -33 22.5 -55.5t54.5 -22.5q33 0 56.5 22.5t23.5 55.5t-23.5 56.5t-56.5 23.5t-55 -23.5t-22 -56.5zM197 930q0 -33 22.5 -56.5t54.5 -23.5 q33 0 56.5 23.5t23.5 56.5q0 35 -23.5 56.5t-56.5 21.5t-55 -21.5t-22 -56.5zM197 1128q0 -33 22.5 -56t54.5 -23q33 0 56.5 23t23.5 56q0 35 -23.5 57.5t-56.5 22.5t-55 -22.5t-22 -57.5z" />
<glyph unicode="&#x22;" horiz-adv-x="784" d="M55 664v624h312v-624h-312zM135 811q0 -33 21.5 -56.5t56.5 -23.5q33 0 56.5 23.5t23.5 56.5t-23.5 55.5t-56.5 22.5q-35 0 -56.5 -22.5t-21.5 -55.5zM135 985q0 -33 21.5 -56.5t56.5 -23.5q33 0 56.5 23.5t23.5 56.5q0 35 -23.5 56.5t-56.5 21.5q-35 0 -56.5 -21.5 t-21.5 -56.5zM135 1157q0 -33 21.5 -55.5t56.5 -22.5q33 0 56.5 22.5t23.5 55.5q0 35 -23.5 57.5t-56.5 22.5q-35 0 -56.5 -22.5t-21.5 -57.5zM417 664v624h312v-624h-312zM497 811q0 -33 21.5 -56.5t56.5 -23.5q33 0 56.5 23.5t23.5 56.5t-23.5 55.5t-56.5 22.5 q-35 0 -56.5 -22.5t-21.5 -55.5zM497 985q0 -33 21.5 -56.5t56.5 -23.5q33 0 56.5 23.5t23.5 56.5q0 35 -23.5 56.5t-56.5 21.5q-35 0 -56.5 -21.5t-21.5 -56.5zM497 1157q0 -33 21.5 -55.5t56.5 -22.5q33 0 56.5 22.5t23.5 55.5q0 35 -23.5 57.5t-56.5 22.5 q-35 0 -56.5 -22.5t-21.5 -57.5z" />
<glyph unicode="#" horiz-adv-x="1300" d="M-8 340l100 274h209l29 80h-217l98 271h217l121 323h295l-119 -323h80l121 323h293l-117 -323h207l-101 -271h-207l-28 -80h215l-101 -274h-210l-127 -340h-293l123 340h-80l-127 -340h-293l123 340h-211zM129 481q0 -33 22.5 -55.5t57.5 -22.5q33 0 55.5 22.5t22.5 55.5 t-22.5 56.5t-55.5 23.5q-35 0 -57.5 -23.5t-22.5 -56.5zM193 135q0 -33 23.5 -55.5t55.5 -22.5q31 0 54.5 23.5t23.5 54.5q0 35 -22.5 57.5t-55.5 22.5t-56 -22.5t-23 -57.5zM254 309q0 -33 23.5 -55.5t56.5 -22.5t56.5 22.5t23.5 55.5t-23.5 56.5t-56.5 23.5 q-31 0 -55.5 -24.5t-24.5 -55.5zM254 825q0 -33 22.5 -55t57.5 -22q33 0 56.5 22t23.5 55q0 35 -23.5 57.5t-56.5 22.5t-56.5 -23.5t-23.5 -56.5zM317 481q0 -33 24 -55.5t56 -22.5q33 0 56.5 22.5t23.5 55.5t-23.5 56.5t-56.5 23.5t-56.5 -23.5t-23.5 -56.5zM381 655 q0 -35 23.5 -57.5t56.5 -22.5q31 0 55.5 22.5t24.5 55.5t-23.5 57.5t-56.5 24.5t-56.5 -23.5t-23.5 -56.5zM444 825q0 -33 22.5 -55t55.5 -22t56.5 22t23.5 55q0 35 -23.5 57.5t-56.5 22.5q-31 0 -54.5 -23.5t-23.5 -56.5zM508 481q0 -33 22.5 -55.5t55.5 -22.5 q35 0 57.5 22.5t22.5 55.5t-22.5 56.5t-57.5 23.5q-33 0 -55.5 -23.5t-22.5 -56.5zM508 997q0 -33 22.5 -55t55.5 -22t56.5 22t23.5 55t-24 56.5t-56 23.5q-33 0 -55.5 -23.5t-22.5 -56.5zM571 1171q0 -35 23.5 -57t56.5 -22t55.5 22.5t22.5 56.5q0 31 -23.5 55.5 t-54.5 24.5q-33 0 -56.5 -23.5t-23.5 -56.5zM573 135q0 -33 21.5 -55.5t56.5 -22.5q33 0 56.5 23.5t23.5 54.5q0 35 -23.5 57.5t-56.5 22.5q-35 0 -56.5 -22.5t-21.5 -57.5zM592 612h90l27 82h-88zM633 825q0 -33 23.5 -55t56.5 -22q35 0 56.5 22t21.5 55q0 35 -21.5 57.5 t-56.5 22.5q-31 0 -55.5 -23.5t-24.5 -56.5zM635 309q0 -33 22.5 -55.5t57.5 -22.5q33 0 55.5 22.5t22.5 55.5t-22.5 56.5t-55.5 23.5t-56.5 -24.5t-23.5 -55.5zM698 481q0 -33 22.5 -55.5t57.5 -22.5q33 0 55.5 22.5t22.5 55.5t-22.5 56.5t-55.5 23.5q-35 0 -57.5 -23.5 t-22.5 -56.5zM762 655q0 -35 22.5 -57.5t57.5 -22.5q31 0 54.5 22.5t23.5 55.5t-23 57.5t-55 24.5q-35 0 -57.5 -23.5t-22.5 -56.5zM823 825q0 -33 22.5 -55t57.5 -22q33 0 56.5 22t23.5 55q0 35 -23.5 57.5t-56.5 22.5t-56.5 -23.5t-23.5 -56.5zM887 481q0 -33 23.5 -55.5 t56.5 -22.5t56.5 22.5t23.5 55.5t-24 56.5t-56 23.5q-33 0 -56.5 -23.5t-23.5 -56.5zM887 997q0 -33 22.5 -55t57.5 -22q33 0 56.5 22t23.5 55t-24 56.5t-56 23.5q-35 0 -57.5 -23.5t-22.5 -56.5zM952 1171q0 -35 21.5 -57t56.5 -22q33 0 56.5 22t23.5 57q0 31 -24.5 55.5 t-55.5 24.5q-35 0 -56.5 -23.5t-21.5 -56.5zM1014 825q0 -33 22.5 -55t55.5 -22t56 22t23 55q0 35 -23.5 57.5t-55.5 22.5q-31 0 -54.5 -23.5t-23.5 -56.5z" />
<glyph unicode="$" horiz-adv-x="1030" d="M47 303l356 133q0 -119 111 -119q35 0 64.5 14.5t29.5 43.5q0 27 -36.5 48t-108.5 50q-127 51 -206 99.5t-124 100.5t-61.5 109.5t-16.5 128.5q0 154 82 255.5t244 133.5v179h252v-181q256 -49 317 -292q-14 0 -352 -146q-6 135 -96 135q-47 0 -67.5 -19.5t-20.5 -41.5 q0 -12 7 -25.5t29.5 -30t62.5 -36t105 -45.5q104 -43 173 -86t109 -92.5t56.5 -107.5t16.5 -130q0 -166 -87 -262t-253 -131v-156h-252v152q-270 49 -334 319zM158 907q0 -33 23.5 -56.5t56.5 -23.5t56 23.5t23 56.5t-23.5 55.5t-55.5 22.5q-33 0 -56.5 -22.5t-23.5 -55.5z M242 1071q0 -33 23.5 -55.5t56.5 -22.5t56 22.5t23 55.5t-23.5 56.5t-55.5 23.5q-35 0 -57.5 -23.5t-22.5 -56.5zM252 229q0 -31 22.5 -56.5t53.5 -25.5q35 0 58.5 24.5t23.5 57.5q0 35 -22.5 56.5t-57.5 21.5q-31 0 -54.5 -22.5t-23.5 -55.5zM256 743q0 -33 23.5 -56 t56.5 -23t55.5 23.5t22.5 55.5q0 35 -22.5 57.5t-55.5 22.5t-56.5 -22.5t-23.5 -57.5zM424 651q0 -33 21.5 -56.5t56.5 -23.5q31 0 55.5 23.5t24.5 56.5t-23.5 55.5t-56.5 22.5q-35 0 -56.5 -22.5t-21.5 -55.5zM426 1137q0 -31 24.5 -54.5t55.5 -23.5q35 0 57.5 22.5 t22.5 55.5q0 35 -22.5 57.5t-57.5 22.5q-33 0 -56.5 -23t-23.5 -57zM426 1327q0 -33 24.5 -55.5t55.5 -22.5q35 0 57.5 22.5t22.5 55.5t-22.5 56.5t-57.5 23.5q-33 0 -56.5 -23.5t-23.5 -56.5zM428 -25q0 -33 24.5 -55t57.5 -22q35 0 55.5 22.5t20.5 54.5q0 35 -21.5 57.5 t-56.5 22.5q-31 0 -55.5 -23.5t-24.5 -56.5zM428 166q0 -35 24.5 -56.5t57.5 -21.5q35 0 55.5 21.5t20.5 56.5q0 33 -21.5 56.5t-56.5 23.5q-31 0 -55.5 -23.5t-24.5 -56.5zM600 557q0 -33 22.5 -55.5t57.5 -22.5q33 0 55.5 22.5t22.5 55.5q0 31 -23.5 55.5t-54.5 24.5 q-35 0 -57.5 -23.5t-22.5 -56.5zM604 1075q0 -33 23.5 -56.5t54.5 -23.5q35 0 57.5 22.5t22.5 57.5q0 31 -21.5 55.5t-54.5 24.5t-57.5 -23.5t-24.5 -56.5zM614 231q0 -33 24 -55t56 -22q33 0 55.5 22t22.5 55q0 35 -22.5 57.5t-55.5 22.5t-56.5 -23.5t-23.5 -56.5zM700 397 q0 -33 22.5 -56.5t57.5 -23.5q31 0 54.5 25t23.5 55q0 33 -22.5 56.5t-55.5 23.5q-35 0 -57.5 -23.5t-22.5 -56.5z" />
<glyph unicode="%" horiz-adv-x="1550" d="M35 868v142q0 143 87 223t234 80t233.5 -80t86.5 -223v-142q0 -147 -86 -225t-234 -78q-147 0 -234 78t-87 225zM119 838q0 -35 23.5 -55.5t54.5 -20.5t53 20.5t22 55.5q0 33 -22.5 54t-52.5 21q-31 0 -54.5 -21.5t-23.5 -53.5zM119 1051q0 -31 23.5 -53.5t54.5 -22.5 t53 22.5t22 53.5q0 35 -22.5 56t-52.5 21q-31 0 -54.5 -21.5t-23.5 -55.5zM272 700q0 -33 22.5 -55t55.5 -22q31 0 53.5 22.5t22.5 54.5q0 31 -22.5 53.5t-53.5 22.5q-33 0 -55.5 -22.5t-22.5 -53.5zM272 1188q0 -29 22.5 -52.5t55.5 -23.5q31 0 53.5 23.5t22.5 52.5 q0 35 -22.5 56.5t-53.5 21.5q-33 0 -55.5 -21.5t-22.5 -56.5zM324 864q0 -59 32 -59q31 0 31 59v146q0 61 -31 61q-33 0 -32 -61v-146zM334 0l606 1288h270l-608 -1288h-268zM426 838q0 -35 22.5 -55.5t55.5 -20.5q29 0 52.5 20.5t23.5 55.5q0 33 -24 54t-52 21 q-33 0 -55.5 -21.5t-22.5 -53.5zM426 1051q0 -31 22.5 -53.5t55.5 -22.5q29 0 52.5 22.5t23.5 53.5q0 35 -24 56t-52 21q-33 0 -55.5 -21.5t-22.5 -55.5zM457 115q0 -33 22.5 -54.5t52.5 -21.5q35 0 56.5 21.5t21.5 54.5q0 31 -21.5 54.5t-56.5 23.5q-29 0 -52 -24t-23 -54z M530 274q0 -33 21.5 -54t56.5 -21q29 0 51.5 21.5t22.5 53.5q0 33 -22.5 54.5t-51.5 21.5q-35 0 -56.5 -21.5t-21.5 -54.5zM600 428q0 -35 22.5 -56.5t53.5 -21.5q33 0 55.5 21.5t22.5 56.5q0 31 -22.5 54.5t-55.5 23.5q-31 0 -53.5 -23.5t-22.5 -54.5zM672 582 q0 -33 22.5 -55.5t53.5 -22.5q33 0 54 21.5t21 56.5q0 29 -20.5 52t-54.5 23q-31 0 -53.5 -23.5t-22.5 -51.5zM743 735q0 -35 20.5 -56.5t55.5 -21.5q33 0 55.5 21.5t22.5 56.5q0 31 -22.5 53.5t-55.5 22.5q-35 0 -55.5 -22.5t-20.5 -53.5zM813 887q0 -33 22.5 -54.5 t55.5 -21.5q29 0 53.5 21.5t24.5 54.5q0 31 -23.5 54.5t-52.5 23.5q-33 0 -56.5 -22.5t-23.5 -55.5zM866 281v141q0 141 86 221t234 80q154 0 239.5 -83t85.5 -218v-141q0 -147 -89 -226.5t-236 -79.5q-143 0 -231.5 79t-88.5 227zM887 1040q0 -35 21.5 -55t54.5 -20 q31 0 53 20t22 55q0 31 -22.5 54.5t-52.5 23.5q-33 0 -54.5 -23.5t-21.5 -54.5zM954 240q0 -31 23.5 -53.5t54.5 -22.5q35 0 55.5 22.5t20.5 53.5q0 33 -22.5 54t-53.5 21t-54.5 -20.5t-23.5 -54.5zM954 455q0 -31 23.5 -53.5t54.5 -22.5q35 0 55.5 22.5t20.5 53.5 q0 29 -22.5 53t-53.5 24t-54.5 -23.5t-23.5 -53.5zM954 1192q0 -31 25 -53.5t53 -22.5q35 0 55.5 22.5t20.5 53.5q0 33 -19.5 55.5t-54.5 22.5q-31 0 -55.5 -22.5t-24.5 -55.5zM1108 102q0 -33 23.5 -55t54.5 -22q35 0 56.5 22t21.5 55q0 31 -23.5 53.5t-54.5 22.5 t-54.5 -21.5t-23.5 -54.5zM1108 592q0 -29 23.5 -52.5t54.5 -23.5q35 0 56.5 23.5t21.5 52.5q0 31 -23.5 54.5t-54.5 23.5t-54.5 -22.5t-23.5 -55.5zM1155 274q0 -59 31 -59q35 0 35 66v141q0 61 -35 61q-31 0 -31 -61v-148zM1264 240q0 -31 21.5 -53.5t53.5 -22.5 q33 0 54.5 22.5t21.5 53.5q0 33 -22.5 54t-53.5 21q-33 0 -54 -20.5t-21 -54.5zM1264 455q0 -31 21.5 -53.5t53.5 -22.5q33 0 54.5 22.5t21.5 53.5q0 29 -22.5 53t-53.5 24q-33 0 -54 -23.5t-21 -53.5z" />
<glyph unicode="&#x26;" horiz-adv-x="1265" d="M41 375q0 240 242 383q-74 98 -74 221q0 76 28.5 137.5t79 105.5t120 67.5t149.5 23.5q76 0 143.5 -23.5t116.5 -64.5t77.5 -98.5t28.5 -127.5q0 -180 -178 -305l98 -112l152 125l240 -250l-177 -140l138 -180l-287 -207l-125 162q-66 -57 -144.5 -87t-199.5 -30 q-90 0 -168 30t-135 83t-91 127t-34 160zM162 432q0 -33 23.5 -56.5t56.5 -23.5q35 0 56 23.5t21 56.5t-21.5 55.5t-55.5 22.5q-33 0 -56.5 -22.5t-23.5 -55.5zM225 250q0 -33 23.5 -56.5t56.5 -23.5q35 0 56.5 23.5t21.5 56.5t-22.5 55.5t-55.5 22.5t-56.5 -21.5 t-23.5 -56.5zM274 1004q0 -33 22.5 -56.5t55.5 -23.5t57.5 23.5t24.5 56.5t-24.5 55t-55.5 22q-35 0 -57.5 -21.5t-22.5 -55.5zM283 618q0 -35 22.5 -56t54.5 -21q35 0 57.5 21t22.5 56q0 33 -22.5 56.5t-57.5 23.5q-33 0 -55 -23.5t-22 -56.5zM367 834q0 -33 23.5 -55.5 t55.5 -22.5q31 0 54.5 21t23.5 50q0 31 -21.5 61t-49.5 30q-35 0 -60.5 -25t-25.5 -59zM395 156q0 -31 23.5 -54.5t56.5 -23.5t55.5 22.5t22.5 55.5t-22.5 56.5t-55.5 23.5q-35 0 -57.5 -24t-22.5 -56zM399 1143q0 -33 23.5 -56.5t56.5 -23.5t55.5 23.5t22.5 54.5 q0 35 -21.5 57.5t-56.5 22.5q-33 0 -56.5 -21.5t-23.5 -56.5zM418 397q0 -35 22.5 -57.5t59.5 -22.5q51 0 98 35l-119 150q-61 -43 -61 -105zM489 670q0 -33 23 -56.5t55 -23.5q33 0 56.5 23.5t23.5 56.5t-24.5 55.5t-55.5 22.5q-33 0 -55.5 -23t-22.5 -55zM545 1006 q-1 -27 30 -70q51 33 52 70q0 33 -41 32q-41 0 -41 -32zM600 1137q0 -33 23.5 -55.5t56.5 -22.5q35 0 56.5 22.5t21.5 55.5t-22.5 56.5t-55.5 23.5t-56.5 -23t-23.5 -57zM608 209q0 -33 22.5 -56.5t55.5 -23.5t56.5 23.5t23.5 56.5q0 35 -23.5 56.5t-56.5 21.5t-55.5 -21.5 t-22.5 -56.5zM627 829q0 -33 22.5 -56t55.5 -23t56 23t23 56t-23.5 56.5t-55.5 23.5q-31 0 -54.5 -24.5t-23.5 -55.5zM631 494q0 -33 22.5 -56.5t57.5 -23.5q33 0 56.5 23.5t23.5 56.5t-24 56t-56 23q-35 0 -57.5 -23.5t-22.5 -55.5zM725 997q0 -35 23.5 -56t56.5 -21 q31 0 55.5 22t24.5 55t-23.5 56.5t-56.5 23.5t-56.5 -23.5t-23.5 -56.5zM760 342q0 -35 23.5 -56.5t56.5 -21.5t56.5 22.5t23.5 55.5t-23 56.5t-57 23.5q-33 0 -56.5 -23.5t-23.5 -56.5zM901 168q0 -35 23.5 -56.5t56.5 -21.5q31 0 54.5 22.5t23.5 55.5t-22.5 56.5 t-55.5 23.5t-56.5 -23.5t-23.5 -56.5zM926 475q0 -33 23.5 -56.5t56.5 -23.5t55 23.5t22 56.5t-22.5 55.5t-54.5 22.5q-33 0 -56.5 -22.5t-23.5 -55.5z" />
<glyph unicode="'" horiz-adv-x="428" d="M57 664v624h312v-624h-312zM137 811q0 -33 21.5 -56.5t56.5 -23.5q33 0 56.5 23.5t23.5 56.5t-23.5 55.5t-56.5 22.5q-35 0 -56.5 -22.5t-21.5 -55.5zM137 985q0 -33 21.5 -56.5t56.5 -23.5q33 0 56.5 23.5t23.5 56.5q0 35 -23.5 56.5t-56.5 21.5q-35 0 -56.5 -21.5 t-21.5 -56.5zM137 1157q0 -33 21.5 -55.5t56.5 -22.5q33 0 56.5 22.5t23.5 55.5q0 35 -23.5 57.5t-56.5 22.5q-35 0 -56.5 -22.5t-21.5 -57.5z" />
<glyph unicode="(" horiz-adv-x="647" d="M70 612q0 381 309 770l262 -184q-236 -303 -235 -588q0 -287 235 -583l-262 -187q-309 391 -309 772zM156 623q0 -35 22.5 -57.5t54.5 -22.5q33 0 56.5 22.5t23.5 57.5q0 33 -23.5 56t-56.5 23t-55 -23.5t-22 -55.5zM182 428q0 -33 22.5 -55.5t57.5 -22.5q33 0 55.5 22.5 t22.5 55.5t-22.5 56.5t-55.5 23.5q-35 0 -57.5 -23.5t-22.5 -56.5zM182 817q0 -33 22.5 -56.5t57.5 -23.5q33 0 55.5 23.5t22.5 56.5t-22.5 56.5t-55.5 23.5q-35 0 -57.5 -23.5t-22.5 -56.5zM250 246q0 -33 22.5 -56.5t55.5 -23.5t56.5 23.5t23.5 56.5t-24 56.5t-56 23.5 q-33 0 -55.5 -23.5t-22.5 -56.5zM250 999q0 -33 22.5 -56t55.5 -23t56.5 23t23.5 56t-24 56.5t-56 23.5q-33 0 -55.5 -23.5t-22.5 -56.5zM348 76q0 -33 21.5 -56.5t56.5 -23.5q33 0 56.5 23.5t23.5 56.5t-24.5 56.5t-55.5 23.5q-35 0 -56.5 -22.5t-21.5 -57.5zM348 1169 q0 -35 21.5 -56t56.5 -21q31 0 55.5 22t24.5 55t-23.5 56.5t-56.5 23.5q-35 0 -56.5 -23.5t-21.5 -56.5z" />
<glyph unicode=")" horiz-adv-x="647" d="M6 27q236 291 236 583q0 291 -236 588l264 184q307 -387 308 -770q0 -383 -308 -772zM143 76q0 -33 22.5 -56.5t55.5 -23.5q35 0 57.5 23.5t22.5 56.5q0 35 -22.5 57.5t-57.5 22.5q-31 0 -54.5 -23.5t-23.5 -56.5zM143 1169q0 -33 23.5 -55t54.5 -22q35 0 57.5 21 t22.5 56q0 33 -22.5 56.5t-57.5 23.5q-33 0 -55.5 -23.5t-22.5 -56.5zM242 246q0 -33 22.5 -56.5t54.5 -23.5q33 0 56.5 23.5t23.5 56.5t-23.5 56.5t-56.5 23.5t-55 -23.5t-22 -56.5zM242 999q0 -33 22.5 -56t54.5 -23q33 0 56.5 23t23.5 56t-23.5 56.5t-56.5 23.5 t-55 -23.5t-22 -56.5zM307 428q0 -33 23.5 -55.5t56.5 -22.5q35 0 57.5 22.5t22.5 55.5t-22.5 56.5t-57.5 23.5q-33 0 -56.5 -23.5t-23.5 -56.5zM307 817q0 -33 23.5 -56.5t56.5 -23.5q35 0 57.5 23.5t22.5 56.5t-22.5 56.5t-57.5 23.5q-33 0 -56.5 -23.5t-23.5 -56.5z M336 623q0 -35 22.5 -57.5t55.5 -22.5t56.5 22.5t23.5 57.5q0 33 -24 56t-56 23q-33 0 -55.5 -23.5t-22.5 -55.5z" />
<glyph unicode="*" horiz-adv-x="1019" d="M10 793l115 356l278 -172l-86 311h388l-89 -311l281 172l115 -356l-330 -15l256 -205l-305 -219l-123 301l-119 -301l-307 219l254 205zM96 942q0 -33 22.5 -55.5t57.5 -22.5q33 0 55.5 22.5t22.5 55.5t-22.5 56.5t-55.5 23.5t-56.5 -24.5t-23.5 -55.5zM229 549 q0 -33 22.5 -56.5t55.5 -23.5t56.5 23.5t23.5 56.5t-23.5 56.5t-56.5 23.5t-55.5 -23.5t-22.5 -56.5zM262 881q0 -33 22.5 -56.5t55.5 -23.5q35 0 57.5 23.5t22.5 56.5t-22.5 56.5t-57.5 23.5q-33 0 -55.5 -24t-22.5 -56zM324 686q0 -33 23.5 -55.5t55.5 -22.5 q35 0 56.5 22.5t21.5 55.5t-21.5 56.5t-56.5 23.5q-33 0 -56 -23.5t-23 -56.5zM428 1020q0 -33 23.5 -56.5t56.5 -23.5t55.5 23.5t22.5 56.5t-21.5 56.5t-56.5 23.5q-33 0 -56.5 -23.5t-23.5 -56.5zM428 1194q0 -33 23.5 -56.5t56.5 -23.5t55.5 23.5t22.5 56.5 q0 35 -22.5 57.5t-55.5 22.5t-56.5 -22.5t-23.5 -57.5zM436 838q0 -33 21.5 -56.5t56.5 -23.5q33 0 56.5 23.5t23.5 56.5q0 35 -23.5 57.5t-56.5 22.5q-35 0 -56.5 -23t-21.5 -57zM537 692q0 -35 23 -57.5t56 -22.5q35 0 56.5 22.5t21.5 57.5q0 31 -22.5 54.5t-55.5 23.5 t-56 -22.5t-23 -55.5zM608 889q0 -35 22.5 -56.5t55.5 -21.5q31 0 55.5 22.5t24.5 55.5t-23.5 56.5t-56.5 23.5t-55.5 -23.5t-22.5 -56.5zM637 543q0 -33 22.5 -55.5t55.5 -22.5q35 0 57.5 22.5t22.5 55.5t-22.5 56.5t-57.5 23.5q-33 0 -55.5 -24t-22.5 -56zM774 948 q0 -33 23.5 -56.5t56.5 -23.5q35 0 56.5 22.5t21.5 57.5q0 33 -21.5 55.5t-56.5 22.5q-33 0 -56.5 -22.5t-23.5 -55.5z" />
<glyph unicode="+" horiz-adv-x="1005" d="M37 504v270h344v342h270v-342h344v-270h-344v-344h-270v344h-344zM88 643q0 -35 22.5 -56.5t55.5 -21.5q35 0 57.5 21.5t22.5 56.5q0 31 -23.5 55.5t-56.5 24.5t-55.5 -23.5t-22.5 -56.5zM262 643q0 -35 22.5 -56.5t55.5 -21.5q35 0 57.5 21.5t22.5 56.5q0 31 -23.5 55.5 t-56.5 24.5t-55.5 -23.5t-22.5 -56.5zM440 641q0 -35 22.5 -56.5t57.5 -21.5q33 0 55.5 21.5t22.5 56.5q0 31 -23.5 55.5t-54.5 24.5q-35 0 -57.5 -23.5t-22.5 -56.5zM442 291q0 -33 25.5 -56.5t60.5 -23.5q31 0 51.5 24.5t20.5 55.5q0 33 -22.5 56.5t-55.5 23.5 q-35 0 -57.5 -23.5t-22.5 -56.5zM442 465q0 -33 22.5 -56.5t57.5 -23.5q31 0 54.5 24.5t23.5 55.5q0 33 -22.5 55.5t-55.5 22.5q-35 0 -57.5 -22.5t-22.5 -55.5zM442 813q0 -35 22.5 -56.5t57.5 -21.5q31 0 54.5 22.5t23.5 55.5t-22.5 56.5t-55.5 23.5q-35 0 -57.5 -23.5 t-22.5 -56.5zM442 987q0 -35 22.5 -56.5t57.5 -21.5q31 0 54.5 22.5t23.5 55.5t-22.5 56.5t-55.5 23.5q-35 0 -57.5 -23.5t-22.5 -56.5zM610 643q0 -35 23.5 -56.5t56.5 -21.5t55.5 21.5t22.5 56.5q0 31 -23.5 55.5t-54.5 24.5q-33 0 -56.5 -23.5t-23.5 -56.5zM784 643 q0 -35 23.5 -56.5t56.5 -21.5t55.5 21.5t22.5 56.5q0 31 -23.5 55.5t-54.5 24.5q-33 0 -56.5 -23.5t-23.5 -56.5z" />
<glyph unicode="," horiz-adv-x="503" d="M27 -102l98 565l354 -70l-151 -555zM119 -25q0 -33 23.5 -55t56.5 -22t55 22t22 55q0 35 -22.5 57.5t-54.5 22.5q-33 0 -56.5 -22.5t-23.5 -57.5zM164 154q0 -35 21.5 -57.5t56.5 -22.5q33 0 56.5 22.5t23.5 57.5q0 33 -24 55t-56 22q-35 0 -56.5 -22.5t-21.5 -54.5z M207 319q0 -33 22.5 -55t55.5 -22q35 0 57.5 22t22.5 55t-23 56.5t-57 23.5q-33 0 -55.5 -23.5t-22.5 -56.5z" />
<glyph unicode="-" horiz-adv-x="716" d="M41 461v327h635v-327h-635zM102 631q0 -33 24 -55.5t56 -22.5q33 0 56.5 22.5t23.5 55.5t-24.5 56.5t-55.5 23.5q-33 0 -56.5 -22.5t-23.5 -57.5zM276 631q0 -33 24 -55.5t56 -22.5q35 0 57.5 22.5t22.5 55.5t-23.5 56.5t-56.5 23.5t-56.5 -22.5t-23.5 -57.5zM451 631 q0 -33 23.5 -55.5t55.5 -22.5q35 0 56.5 22.5t21.5 55.5t-22.5 56.5t-55.5 23.5t-56 -22.5t-23 -57.5z" />
<glyph unicode="." horiz-adv-x="499" d="M49 176q0 88 56.5 145.5t144.5 57.5t144.5 -58.5t56.5 -144.5q0 -92 -54.5 -146.5t-146.5 -54.5q-88 0 -144.5 54.5t-56.5 146.5zM170 176q0 -33 22.5 -56.5t57.5 -23.5q33 0 55.5 23.5t22.5 56.5q0 35 -22.5 56.5t-55.5 21.5q-35 0 -57.5 -21.5t-22.5 -56.5z" />
<glyph unicode="/" horiz-adv-x="692" d="M4 -20l348 1329h336l-338 -1329h-346zM137 150q0 -31 24.5 -55.5t55.5 -24.5q33 0 55.5 23.5t22.5 56.5q0 35 -22.5 57t-55.5 22t-56.5 -22.5t-23.5 -56.5zM184 319q0 -33 23.5 -55t56.5 -22t55.5 22t22.5 55q0 31 -23.5 55.5t-54.5 24.5q-33 0 -56.5 -23.5t-23.5 -56.5z M229 487q0 -33 21.5 -56t56.5 -23q33 0 56.5 23t23.5 56q0 35 -23.5 56.5t-56.5 21.5t-55.5 -22.5t-22.5 -55.5zM274 655q0 -33 22.5 -56.5t55.5 -23.5t56.5 23.5t23.5 56.5t-22.5 56.5t-57.5 23.5q-33 0 -55.5 -23.5t-22.5 -56.5zM317 823q0 -33 25 -56.5t55 -23.5 q33 0 56.5 23.5t23.5 56.5q0 35 -23.5 56.5t-56.5 21.5t-56.5 -21.5t-23.5 -56.5zM365 993q0 -33 22 -56.5t57 -23.5q33 0 55.5 24t22.5 56q0 31 -23.5 54.5t-54.5 23.5q-35 0 -57 -22.5t-22 -55.5zM408 1159q0 -33 23.5 -55.5t55.5 -22.5q35 0 56.5 22.5t21.5 55.5 q0 35 -21.5 57.5t-56.5 22.5q-31 0 -55 -23.5t-24 -56.5z" />
<glyph unicode="0" horiz-adv-x="1011" d="M70 424v442q0 217 115.5 333t320.5 116q209 0 323.5 -116t114.5 -333v-442q0 -217 -114.5 -333t-323.5 -116q-205 0 -320.5 116t-115.5 333zM160 451q0 -33 22.5 -56.5t57.5 -23.5q33 0 55 23.5t22 56.5t-22.5 56t-54.5 23q-35 0 -57.5 -23.5t-22.5 -55.5zM160 631 q0 -33 22.5 -55.5t57.5 -22.5q33 0 55 22.5t22 55.5t-22.5 56.5t-54.5 23.5q-35 0 -57.5 -23.5t-22.5 -56.5zM160 811q0 -33 22.5 -55.5t57.5 -22.5q33 0 55 22.5t22 55.5q0 35 -22.5 57.5t-54.5 22.5q-35 0 -57.5 -22.5t-22.5 -57.5zM203 279q0 -33 23.5 -56.5t56.5 -23.5 t55 23.5t22 56.5q0 35 -22.5 57t-54.5 22q-33 0 -56.5 -22.5t-23.5 -56.5zM203 989q0 -35 23.5 -57.5t56.5 -22.5t55 22.5t22 57.5q0 33 -22.5 56.5t-54.5 23.5q-33 0 -56.5 -23.5t-23.5 -56.5zM338 164q0 -33 22.5 -56.5t55.5 -23.5t56.5 24.5t23.5 55.5q0 35 -22.5 56.5 t-57.5 21.5q-33 0 -55.5 -21.5t-22.5 -56.5zM338 1104q0 -35 22.5 -56.5t55.5 -21.5q35 0 57.5 21.5t22.5 56.5q0 31 -23.5 55.5t-56.5 24.5t-55.5 -23.5t-22.5 -56.5zM408 422q0 -49 26.5 -81t71.5 -32t70.5 32t25.5 81v444q0 47 -25.5 80t-70.5 33t-71.5 -33t-26.5 -80 v-444zM518 164q0 -33 22.5 -56.5t55.5 -23.5t56.5 24.5t23.5 55.5q0 35 -23.5 56.5t-56.5 21.5t-55.5 -21.5t-22.5 -56.5zM518 1104q0 -35 22.5 -56.5t55.5 -21.5t56.5 21.5t23.5 56.5q0 31 -23.5 55.5t-56.5 24.5t-55.5 -23.5t-22.5 -56.5zM651 279q0 -33 23.5 -56.5 t56.5 -23.5t56.5 23.5t23.5 56.5q0 35 -23.5 57t-56.5 22t-56.5 -22.5t-23.5 -56.5zM651 989q0 -35 23.5 -57.5t56.5 -22.5t56.5 28t23.5 58q0 33 -24.5 53.5t-55.5 20.5q-33 0 -56.5 -23.5t-23.5 -56.5zM696 444q0 -33 22.5 -56t57.5 -23q33 0 55.5 23.5t22.5 55.5 q0 35 -22.5 56.5t-55.5 21.5q-35 0 -57.5 -21.5t-22.5 -56.5zM696 625q0 -33 22.5 -56.5t57.5 -23.5q33 0 55.5 23.5t22.5 56.5q0 35 -22.5 57.5t-55.5 22.5q-35 0 -57.5 -23t-22.5 -57zM696 807q0 -35 22.5 -57.5t57.5 -22.5q33 0 55.5 22.5t22.5 57.5q0 33 -22.5 56.5 t-55.5 23.5q-35 0 -57.5 -23.5t-22.5 -56.5z" />
<glyph unicode="1" horiz-adv-x="624" d="M29 909v314l518 106v-1329h-371v942zM104 1098q0 -33 24 -56.5t56 -23.5q33 0 56.5 22.5t23.5 57.5q0 33 -23.5 56.5t-56.5 23.5q-35 0 -57.5 -24t-22.5 -56zM291 176q0 -33 23.5 -56.5t56.5 -23.5q35 0 56.5 23.5t21.5 56.5t-21.5 55.5t-56.5 22.5q-33 0 -56.5 -22.5 t-23.5 -55.5zM291 367q0 -35 23.5 -57.5t56.5 -22.5q35 0 56.5 22.5t21.5 57.5q0 33 -21.5 56t-56.5 23q-33 0 -56.5 -23.5t-23.5 -55.5zM291 555q0 -33 23.5 -55.5t56.5 -22.5q35 0 56.5 22.5t21.5 55.5t-21.5 56.5t-56.5 23.5q-33 0 -56.5 -23.5t-23.5 -56.5zM291 745 q0 -33 23.5 -56t56.5 -23q35 0 56.5 23.5t21.5 55.5q0 35 -21.5 56.5t-56.5 21.5q-33 0 -56.5 -21.5t-23.5 -56.5zM291 936q0 -35 23.5 -57.5t56.5 -22.5q35 0 56.5 22.5t21.5 57.5q0 33 -21.5 56.5t-56.5 23.5q-33 0 -56.5 -23.5t-23.5 -56.5zM291 1124q0 -33 23.5 -55 t56.5 -22q35 0 56.5 22t21.5 55t-21.5 56.5t-56.5 23.5q-33 0 -56.5 -23.5t-23.5 -56.5z" />
<glyph unicode="2" horiz-adv-x="1105" d="M27 0l542 805q23 33 33 59.5t10 40.5q0 37 -18.5 52.5t-58.5 15.5q-49 0 -69 -36t-20 -134h-368q0 123 24.5 218t80 159.5t142.5 98.5t210 34q117 0 202.5 -30t142 -83t85 -128t28.5 -163q0 -152 -102 -284l-203 -269h371v-356h-1032zM205 918q0 -33 23.5 -56.5 t56.5 -23.5q35 0 56 22.5t21 57.5q0 33 -21.5 55t-55.5 22q-33 0 -56.5 -22.5t-23.5 -54.5zM285 1075q0 -33 23.5 -56.5t53.5 -23.5q35 0 57.5 22.5t22.5 57.5q0 33 -22.5 56.5t-57.5 23.5q-33 0 -55 -23.5t-22 -56.5zM303 174q0 -33 21.5 -56.5t56.5 -23.5q33 0 56.5 23.5 t23.5 54.5q0 35 -23.5 57.5t-56.5 22.5q-35 0 -56.5 -21.5t-21.5 -56.5zM393 322q0 -35 23.5 -57.5t56.5 -22.5t56.5 22.5t23.5 57.5q0 33 -23.5 56t-56.5 23t-56.5 -23.5t-23.5 -55.5zM459 1137q0 -31 23.5 -54.5t56.5 -23.5t56 22.5t23 55.5q0 35 -23.5 57.5t-55.5 22.5 q-35 0 -57.5 -23t-22.5 -57zM477 174q0 -33 21.5 -56.5t56.5 -23.5q31 0 55.5 23.5t24.5 54.5q0 35 -23.5 57.5t-56.5 22.5q-35 0 -56.5 -21.5t-21.5 -56.5zM485 467q0 -31 23.5 -54.5t56.5 -23.5q35 0 56.5 22.5t21.5 55.5q0 35 -21.5 57.5t-56.5 22.5q-33 0 -56.5 -22.5 t-23.5 -57.5zM580 616q0 -33 22.5 -56t54.5 -23q33 0 56.5 23t23.5 56t-22.5 55.5t-55.5 22.5q-35 0 -57 -22.5t-22 -55.5zM633 1075q0 -33 23.5 -56.5t56.5 -23.5t55.5 22.5t22.5 57.5q0 33 -23 56.5t-55 23.5q-35 0 -57.5 -23.5t-22.5 -56.5zM651 174q0 -33 22.5 -56.5 t55.5 -23.5q31 0 55.5 23.5t24.5 54.5q0 35 -23.5 57.5t-56.5 22.5t-55.5 -21.5t-22.5 -56.5zM672 764q0 -33 22.5 -56.5t55.5 -23.5t56 23.5t23 56.5t-24.5 56.5t-54.5 23.5q-33 0 -55.5 -22.5t-22.5 -57.5zM731 928q0 -33 23.5 -56.5t56.5 -23.5t55.5 23.5t22.5 56.5 t-22.5 55.5t-55.5 22.5t-56.5 -22.5t-23.5 -55.5zM823 174q0 -33 23.5 -56.5t56.5 -23.5t56.5 23.5t23.5 54.5q0 35 -23.5 57.5t-56.5 22.5t-56.5 -21.5t-23.5 -56.5z" />
<glyph unicode="3" horiz-adv-x="1019" d="M45 467l326 43q-2 -4 -2 -21q0 -33 8 -65.5t25.5 -58t44 -42t63.5 -16.5q49 0 73.5 30t24.5 77q0 37 -13 58.5t-34.5 32.5t-50.5 14t-57 3v277q25 0 52 5t48.5 17.5t36 35t14.5 56.5q0 35 -25.5 58.5t-58.5 23.5q-47 0 -76.5 -28.5t-42.5 -69.5l-290 141 q47 141 153.5 208t253.5 67q82 0 160 -28t139.5 -78t98 -120.5t36.5 -158.5q0 -72 -27.5 -139.5t-80.5 -110.5q72 -57 99.5 -117.5t27.5 -152.5q0 -102 -35 -182.5t-97.5 -135.5t-146.5 -85t-182 -30q-115 0 -202 36t-145.5 100.5t-88 154.5t-29.5 201zM143 367 q0 -35 21.5 -57.5t56.5 -22.5q33 0 56.5 22.5t23.5 57.5q0 33 -23.5 56t-56.5 23q-35 0 -56.5 -23.5t-21.5 -55.5zM246 209q0 -33 23.5 -55.5t56.5 -22.5t55 21.5t22 56.5q0 33 -22.5 56.5t-54.5 23.5q-35 0 -57.5 -23.5t-22.5 -56.5zM258 1075q0 -33 23.5 -56.5t56.5 -23.5 t55.5 22.5t22.5 57.5t-23.5 57.5t-58.5 22.5q-31 0 -53.5 -24.5t-22.5 -55.5zM418 143q0 -33 23.5 -56.5t56.5 -23.5q35 0 56 24t21 56q0 33 -21.5 55.5t-55.5 22.5q-31 0 -55.5 -22.5t-24.5 -55.5zM432 1137q0 -31 23.5 -54.5t54.5 -23.5q33 0 56.5 22.5t23.5 55.5 q0 35 -23.5 57.5t-56.5 22.5t-55.5 -23t-22.5 -57zM522 637q0 -35 23.5 -57.5t56.5 -22.5q35 0 57.5 22.5t22.5 57.5q0 33 -22.5 55.5t-57.5 22.5q-33 0 -56.5 -22.5t-23.5 -55.5zM602 188q0 -35 22.5 -57t57.5 -22q33 0 55.5 22.5t22.5 56.5q0 33 -22.5 55.5t-55.5 22.5 q-35 0 -57.5 -22.5t-22.5 -55.5zM606 1075q0 -33 23.5 -56.5t54.5 -23.5q35 0 57.5 22.5t22.5 57.5q0 33 -22.5 56.5t-57.5 23.5q-33 0 -55.5 -23.5t-22.5 -56.5zM643 764q0 -33 23.5 -56.5t56.5 -23.5q35 0 56.5 23.5t21.5 56.5t-22.5 56.5t-55.5 23.5t-56.5 -22.5 t-23.5 -57.5zM659 512q0 -33 21.5 -55.5t56.5 -22.5q33 0 56.5 22.5t23.5 55.5t-23.5 56.5t-56.5 23.5q-35 0 -56.5 -22.5t-21.5 -57.5zM705 338q0 -35 22.5 -56.5t54.5 -21.5q35 0 57.5 21.5t22.5 56.5q0 33 -22.5 56.5t-57.5 23.5q-33 0 -55 -23.5t-22 -56.5zM705 928 q0 -33 22.5 -56.5t54.5 -23.5q35 0 57.5 23.5t22.5 56.5t-22.5 55.5t-57.5 22.5q-33 0 -55 -22.5t-22 -55.5z" />
<glyph unicode="4" horiz-adv-x="1085" d="M45 328v301l498 659h362v-637h154v-323h-154v-328h-364v328h-496zM125 479q0 -35 23.5 -56.5t56.5 -21.5q35 0 57.5 21.5t22.5 56.5q0 33 -22.5 56.5t-57.5 23.5q-33 0 -56.5 -23.5t-23.5 -56.5zM172 659q0 -35 23.5 -57t56.5 -22t55.5 22.5t22.5 56.5q0 33 -22.5 55.5 t-55.5 22.5t-56.5 -22.5t-23.5 -55.5zM281 795q0 -35 23 -57.5t56 -22.5q35 0 56.5 22.5t21.5 57.5q0 33 -21.5 56t-56.5 23q-33 0 -56 -24.5t-23 -54.5zM299 479q0 -35 23.5 -56.5t56.5 -21.5q35 0 56.5 21.5t21.5 56.5q0 33 -21.5 56.5t-56.5 23.5q-33 0 -56.5 -23.5 t-23.5 -56.5zM391 930q0 -33 22.5 -56.5t55.5 -23.5t56.5 23.5t23.5 56.5t-23.5 55.5t-56.5 22.5t-55.5 -22.5t-22.5 -55.5zM444 651h107v129zM475 479q0 -35 21.5 -56.5t56.5 -21.5q33 0 56.5 21.5t23.5 56.5q0 33 -23.5 56.5t-56.5 23.5q-35 0 -56.5 -23.5t-21.5 -56.5z M500 1065q0 -33 23.5 -56.5t56.5 -23.5q35 0 57 23.5t22 56.5q0 31 -23.5 55.5t-55.5 24.5q-33 0 -56.5 -23.5t-23.5 -56.5zM649 131q0 -33 22.5 -56.5t55.5 -23.5t56.5 23.5t23.5 56.5q0 35 -23.5 56.5t-56.5 21.5t-55.5 -21.5t-22.5 -56.5zM649 305q0 -33 22.5 -56.5 t55.5 -23.5t56.5 23.5t23.5 56.5q0 35 -23.5 56.5t-56.5 21.5t-55.5 -21.5t-22.5 -56.5zM649 479q0 -35 22.5 -56.5t55.5 -21.5t56.5 21.5t23.5 56.5q0 33 -23.5 56.5t-56.5 23.5t-55.5 -23.5t-22.5 -56.5zM649 653q0 -35 22.5 -56.5t55.5 -21.5t56.5 21.5t23.5 56.5 q0 33 -23.5 56.5t-56.5 23.5t-55.5 -23.5t-22.5 -56.5zM649 827q0 -33 22.5 -56t55.5 -23t56.5 23t23.5 56t-23.5 56.5t-56.5 23.5t-55.5 -23.5t-22.5 -56.5zM649 1001q0 -33 22.5 -56t55.5 -23t56.5 23t23.5 56q0 35 -23.5 57.5t-56.5 22.5t-55.5 -22.5t-22.5 -57.5z M649 1176q0 -33 22.5 -56.5t55.5 -23.5t56.5 23.5t23.5 56.5q0 35 -23.5 56t-56.5 21t-55.5 -21.5t-22.5 -55.5zM823 479q0 -35 22.5 -56.5t55.5 -21.5t56.5 21.5t23.5 56.5q0 33 -23.5 56.5t-56.5 23.5t-55.5 -23.5t-22.5 -56.5z" />
<glyph unicode="5" horiz-adv-x="940" d="M47 242l326 118q6 -16 23.5 -29.5t47.5 -13.5q41 0 59.5 31t18.5 78q0 111 -86 111q-37 0 -56.5 -17.5t-29.5 -52.5h-297v821h826v-342h-498v-98q76 16 125 16q88 0 159.5 -32.5t123 -91t80 -136.5t28.5 -168q0 -102 -31.5 -186t-92 -145.5t-147.5 -95.5t-198 -34 q-154 0 -241 71t-140 196zM139 600q0 -35 23.5 -56.5t56.5 -21.5t55.5 21.5t22.5 56.5q0 33 -22.5 56.5t-55.5 23.5t-56.5 -23.5t-23.5 -56.5zM139 774q0 -33 23.5 -56.5t56.5 -23.5t55.5 23.5t22.5 56.5t-22.5 56.5t-55.5 23.5t-56.5 -23.5t-23.5 -56.5zM139 948 q0 -33 23.5 -56.5t56.5 -23.5t55.5 23.5t22.5 56.5t-22.5 55.5t-55.5 22.5t-56.5 -22.5t-23.5 -55.5zM139 1122q0 -33 23.5 -56.5t56.5 -23.5t55.5 24t22.5 56q0 35 -22.5 56.5t-55.5 21.5t-56.5 -21.5t-23.5 -56.5zM236 190q0 -33 23.5 -55t55.5 -22q33 0 55.5 22t22.5 55 t-22.5 56.5t-55.5 23.5t-56 -23.5t-23 -56.5zM293 682q0 -35 22.5 -56.5t55.5 -21.5q35 0 57.5 21.5t22.5 56.5q0 33 -24 56.5t-56 23.5q-33 0 -55.5 -23.5t-22.5 -56.5zM313 1122q0 -33 23.5 -56.5t56.5 -23.5q35 0 56.5 24t21.5 56q0 35 -21.5 56.5t-56.5 21.5 q-33 0 -56.5 -21.5t-23.5 -56.5zM403 162q0 -35 21.5 -57.5t56.5 -22.5q33 0 56.5 22.5t23.5 57.5q0 33 -23.5 56.5t-56.5 23.5q-35 0 -56.5 -23.5t-21.5 -56.5zM467 672q0 -33 21.5 -55.5t56.5 -22.5q33 0 56.5 22.5t23.5 55.5t-25 56.5t-55 23.5q-35 0 -56.5 -23.5 t-21.5 -56.5zM487 1122q0 -33 22.5 -56.5t55.5 -23.5q35 0 57.5 23.5t22.5 56.5q0 35 -22.5 56.5t-57.5 21.5q-33 0 -55.5 -21.5t-22.5 -56.5zM559 248q0 -31 23.5 -55.5t56.5 -24.5t55.5 23.5t22.5 56.5q0 35 -22.5 57.5t-55.5 22.5t-56.5 -22.5t-23.5 -57.5zM596 563 q0 -35 22.5 -57.5t55.5 -22.5q31 0 55.5 23.5t24.5 56.5t-23.5 55.5t-56.5 22.5t-55.5 -22.5t-22.5 -55.5zM625 399q0 -33 22.5 -56.5t57.5 -23.5q31 0 54 24t23 56q0 33 -22.5 56.5t-54.5 23.5q-35 0 -57.5 -23.5t-22.5 -56.5zM662 1122q0 -33 22.5 -56.5t56.5 -23.5 q33 0 56.5 23.5t23.5 56.5q0 35 -23.5 56.5t-56.5 21.5q-35 0 -57 -21.5t-22 -56.5z" />
<glyph unicode="6" horiz-adv-x="995" d="M33 422q0 172 147 399l305 467h441l-322 -465q166 -14 257 -124.5t91 -282.5q0 -98 -34.5 -179t-96 -139.5t-145.5 -90.5t-182 -32t-182.5 33t-147 91.5t-97 140.5t-34.5 182zM143 403q0 -35 22.5 -57t55.5 -22q35 0 58.5 22t23.5 57q0 31 -23.5 54.5t-56.5 23.5 t-56.5 -22.5t-23.5 -55.5zM184 567q0 -31 23.5 -54.5t56.5 -23.5q35 0 56.5 22.5t21.5 55.5q0 35 -21.5 57.5t-56.5 22.5q-33 0 -56.5 -22.5t-23.5 -57.5zM217 244q0 -35 21.5 -56.5t56.5 -21.5q33 0 56.5 21.5t23.5 56.5q0 33 -23.5 56.5t-56.5 23.5q-35 0 -56.5 -24 t-21.5 -56zM274 717q0 -35 22.5 -56.5t57.5 -21.5q33 0 56.5 21.5t23.5 56.5q0 33 -23.5 56.5t-56.5 23.5q-35 0 -57.5 -23.5t-22.5 -56.5zM365 156q0 -33 23.5 -55.5t55.5 -22.5q33 0 55.5 23.5t22.5 54.5q0 33 -21.5 56.5t-56.5 23.5q-33 0 -56 -24t-23 -56zM365 866 q0 -33 23.5 -55.5t55.5 -22.5q35 0 56.5 22.5t21.5 55.5t-22.5 56.5t-55.5 23.5t-56 -23.5t-23 -56.5zM403 416q0 -41 25 -72t66 -31t65.5 31t24.5 72q0 43 -23.5 72.5t-66.5 29.5q-41 0 -66 -29.5t-25 -72.5zM438 684q0 -31 24.5 -54.5t55.5 -23.5q35 0 56.5 22.5 t21.5 55.5q0 35 -21.5 57.5t-56.5 22.5q-33 0 -56.5 -22.5t-23.5 -57.5zM455 1016q0 -35 21.5 -56.5t55.5 -21.5q33 0 56.5 21.5t23.5 56.5q0 33 -23.5 56.5t-56.5 23.5q-35 0 -56 -23.5t-21 -56.5zM532 180q0 -33 23 -55.5t57 -22.5q31 0 55.5 22.5t24.5 55.5t-23.5 56.5 t-56.5 23.5q-35 0 -57.5 -23.5t-22.5 -56.5zM543 1165q0 -33 23.5 -56.5t56.5 -23.5t56 24.5t23 55.5q0 33 -23.5 55.5t-55.5 22.5q-33 0 -56.5 -22.5t-23.5 -55.5zM604 614q0 -33 22.5 -56t55.5 -23t56.5 23t23.5 56t-25.5 56.5t-54.5 23.5q-33 0 -55.5 -23.5t-22.5 -56.5z M647 307q0 -33 23.5 -56.5t54.5 -23.5q33 0 57.5 22.5t24.5 57.5q0 33 -23.5 55.5t-56.5 22.5t-56.5 -22.5t-23.5 -55.5zM676 467q0 -33 23.5 -56.5t56.5 -23.5q35 0 56.5 23.5t21.5 56.5q0 35 -21.5 56.5t-56.5 21.5q-33 0 -56.5 -21.5t-23.5 -56.5z" />
<glyph unicode="7" horiz-adv-x="995" d="M39 946v342h946l-522 -1288h-412l412 946h-424zM117 1106q0 -33 23.5 -56.5t56.5 -23.5t55 23.5t22 56.5t-22.5 56.5t-54.5 23.5q-31 0 -55.5 -24.5t-24.5 -55.5zM233 145q0 -35 24 -56t56 -21q31 0 55.5 22t24.5 55t-23.5 56.5t-56.5 23.5t-56.5 -23.5t-23.5 -56.5z M291 1106q0 -33 23.5 -56.5t56.5 -23.5t55.5 23.5t22.5 56.5t-23 56.5t-55 23.5q-33 0 -56.5 -24.5t-23.5 -55.5zM303 307q0 -33 21.5 -56.5t56.5 -23.5q33 0 56.5 23.5t23.5 56.5t-23.5 55.5t-56.5 22.5q-35 0 -56.5 -21.5t-21.5 -56.5zM371 467q0 -33 22.5 -56.5 t55.5 -23.5t56 23.5t23 56.5t-23.5 55.5t-55.5 22.5q-33 0 -55.5 -21.5t-22.5 -56.5zM438 627q0 -33 22.5 -56.5t57.5 -23.5q33 0 55.5 23.5t22.5 56.5q0 35 -22.5 56.5t-55.5 21.5q-35 0 -57.5 -21.5t-22.5 -56.5zM465 1106q0 -33 22.5 -56.5t55.5 -23.5q35 0 57.5 23.5 t22.5 56.5t-22.5 56.5t-57.5 23.5q-31 0 -54.5 -24.5t-23.5 -55.5zM506 786q0 -33 23.5 -56t56.5 -23t55.5 24.5t22.5 54.5q0 35 -21.5 57.5t-56.5 22.5q-33 0 -56.5 -22.5t-23.5 -57.5zM575 948q0 -33 23 -56.5t55 -23.5q33 0 56.5 23.5t23.5 56.5q0 31 -24.5 54.5 t-55.5 23.5q-33 0 -55.5 -22.5t-22.5 -55.5zM641 1108q0 -33 23.5 -56.5t56.5 -23.5q35 0 57.5 23.5t22.5 56.5q0 31 -23.5 55.5t-56.5 24.5t-56.5 -23.5t-23.5 -56.5z" />
<glyph unicode="8" horiz-adv-x="1042" d="M55 403q0 176 119 277q-94 88 -94 240q0 86 32.5 157.5t91 123.5t138.5 82t176 30q94 0 175 -29t140.5 -80t93.5 -123.5t34 -160.5q-1 -154 -95 -242q119 -98 119 -275q0 -203 -113.5 -315.5t-349.5 -112.5t-351.5 115t-115.5 313zM145 412q0 -33 21.5 -56.5t56.5 -23.5 q33 0 56.5 23.5t23.5 56.5q0 35 -23.5 56t-56.5 21t-55.5 -22.5t-22.5 -54.5zM197 569q0 -33 22.5 -56.5t54.5 -23.5q33 0 56.5 23.5t23.5 56.5t-23.5 56.5t-56.5 23.5t-55 -22.5t-22 -57.5zM199 252q0 -33 23.5 -55.5t56.5 -22.5t56 22.5t23 55.5q0 35 -23.5 57.5 t-55.5 22.5q-35 0 -57.5 -22.5t-22.5 -57.5zM201 862q0 -33 22.5 -56.5t57.5 -23.5q29 0 54 21.5t25 52.5t-22.5 59.5t-52.5 28.5q-33 0 -58.5 -23.5t-25.5 -58.5zM215 1036q0 -35 22.5 -57.5t55.5 -22.5t56.5 22.5t23.5 57.5q0 31 -23.5 54.5t-54.5 23.5q-33 0 -56.5 -22.5 t-23.5 -55.5zM285 719q0 -33 22.5 -56.5t54.5 -23.5q33 0 56.5 22.5t23.5 57.5q0 33 -22.5 56.5t-57.5 23.5q-33 0 -55 -23.5t-22 -56.5zM336 156q0 -31 22.5 -54.5t55.5 -23.5t56.5 22.5t23.5 55.5t-24 56.5t-56 23.5q-33 0 -55.5 -24t-22.5 -56zM356 1143 q0 -33 23.5 -56.5t56.5 -23.5q31 0 54.5 23.5t23.5 54.5q0 35 -22.5 57.5t-55.5 22.5t-56.5 -21.5t-23.5 -56.5zM422 416q0 -47 26.5 -78t73.5 -31q45 0 70.5 31t25.5 78q0 106 -96 106q-47 0 -73.5 -29.5t-26.5 -76.5zM426 909q0 -41 27.5 -67.5t68.5 -26.5t66.5 24.5 t25.5 67.5q0 41 -22.5 66.5t-69.5 25.5q-41 0 -68.5 -24.5t-27.5 -65.5zM446 668q0 -31 23 -55.5t53 -24.5q35 0 58.5 23.5t23.5 56.5q0 35 -22.5 57.5t-57.5 22.5q-33 0 -55.5 -23t-22.5 -57zM524 1137q0 -33 23.5 -55.5t56.5 -22.5q35 0 56.5 22.5t21.5 55.5t-22.5 56.5 t-55.5 23.5t-56.5 -23t-23.5 -57zM543 156q0 -33 22.5 -55.5t55.5 -22.5t56 23.5t23 54.5q0 33 -22.5 56.5t-56.5 23.5q-33 0 -55.5 -24t-22.5 -56zM608 721q0 -35 23.5 -57.5t56.5 -22.5t56.5 22.5t23.5 57.5q0 33 -23.5 56.5t-56.5 23.5t-56.5 -23.5t-23.5 -56.5z M666 1028q0 -33 23.5 -55.5t55.5 -22.5q33 0 55.5 23.5t22.5 54.5q0 33 -22.5 56.5t-55.5 23.5t-56 -23.5t-23 -56.5zM680 252q0 -33 21.5 -55.5t56.5 -22.5q33 0 56.5 22.5t23.5 55.5q0 35 -23.5 57.5t-56.5 22.5t-55.5 -23.5t-22.5 -56.5zM682 569q0 -33 22.5 -56.5 t55.5 -23.5q35 0 57.5 23.5t22.5 56.5q0 35 -22.5 57.5t-57.5 22.5q-31 0 -54.5 -23.5t-23.5 -56.5zM705 866q0 -33 23.5 -57.5t55.5 -24.5q33 0 56.5 24.5t23.5 55.5q0 35 -23.5 56.5t-56.5 21.5t-56 -20.5t-23 -55.5zM735 412q0 -33 21.5 -56.5t56.5 -23.5q33 0 56.5 23.5 t23.5 56.5q0 35 -23.5 56t-56.5 21q-35 0 -56.5 -21.5t-21.5 -55.5z" />
<glyph unicode="9" horiz-adv-x="1005" d="M45 872q0 96 35 177t96.5 139.5t145.5 91.5t184 33q98 0 182 -32t145.5 -90t96.5 -140t35 -183q0 -178 -146 -401l-305 -467h-442l321 465q-162 12 -255 122.5t-93 284.5zM164 821q0 -33 22.5 -56.5t55.5 -23.5q35 0 57.5 23.5t22.5 56.5t-24 55.5t-56 22.5 q-33 0 -55.5 -22.5t-22.5 -55.5zM193 983q0 -33 23 -56.5t56 -23.5t55.5 23.5t22.5 56.5t-22.5 55.5t-55.5 22.5t-56 -22.5t-23 -55.5zM236 674q0 -35 22.5 -56.5t56.5 -21.5q33 0 55.5 21.5t22.5 56.5q0 33 -22.5 56.5t-55.5 23.5q-35 0 -57 -23.5t-22 -56.5zM297 123 q0 -33 21.5 -56.5t56.5 -23.5q33 0 57.5 23.5t24.5 56.5t-24.5 55.5t-55.5 22.5q-35 0 -57.5 -21.5t-22.5 -56.5zM307 1108q0 -35 23.5 -57.5t56.5 -22.5t56.5 22.5t23.5 57.5q0 31 -24.5 55.5t-55.5 24.5q-33 0 -56.5 -23.5t-23.5 -56.5zM385 272q0 -33 23.5 -56t56.5 -23 t55.5 23.5t22.5 55.5q0 33 -22.5 55.5t-55.5 22.5t-56.5 -22.5t-23.5 -55.5zM399 602q0 -33 23.5 -56.5t56.5 -23.5q35 0 56.5 23.5t21.5 56.5q0 35 -21.5 57.5t-56.5 22.5q-33 0 -56.5 -23.5t-23.5 -56.5zM414 872q0 -43 24.5 -72.5t65.5 -29.5t66.5 29.5t25.5 72.5 q0 41 -25.5 71t-66.5 30t-65.5 -30t-24.5 -71zM477 420q0 -33 21.5 -56.5t56.5 -23.5q31 0 55.5 24.5t24.5 55.5q0 35 -23.5 57.5t-56.5 22.5q-35 0 -56.5 -22.5t-21.5 -57.5zM477 1130q0 -33 21.5 -56t56.5 -23q33 0 56.5 23t23.5 56t-24.5 56.5t-55.5 23.5 q-35 0 -56.5 -22.5t-21.5 -57.5zM565 571q0 -35 22.5 -57t55.5 -22t56.5 22t23.5 57q0 31 -23.5 55.5t-54.5 24.5q-33 0 -56.5 -23.5t-23.5 -56.5zM623 1044q0 -33 24.5 -56t54.5 -23q33 0 56.5 23t23.5 56t-22.5 56.5t-54.5 23.5q-33 0 -57.5 -23.5t-24.5 -56.5zM653 719 q0 -33 23.5 -56.5t56.5 -23.5q35 0 56.5 23.5t21.5 56.5q0 35 -21.5 57.5t-56.5 22.5q-33 0 -56.5 -22.5t-23.5 -57.5zM694 887q0 -33 23.5 -56.5t56.5 -23.5t56.5 23.5t23.5 56.5t-22.5 55.5t-57.5 22.5q-33 0 -56.5 -22.5t-23.5 -55.5z" />
<glyph unicode=":" horiz-adv-x="548" d="M72 299q0 88 55 145.5t147 57.5q88 0 144.5 -58.5t56.5 -144.5q0 -92 -54 -145.5t-147 -53.5q-92 0 -147 53.5t-55 145.5zM72 920q0 88 55 145t147 57q88 0 144.5 -58t56.5 -144q0 -92 -54.5 -146.5t-146.5 -54.5t-147 54t-55 147zM195 299q0 -33 22.5 -55.5t56.5 -22.5 q33 0 55.5 22.5t22.5 55.5q0 35 -22.5 57.5t-55.5 22.5q-35 0 -57 -22.5t-22 -57.5zM195 920q0 -33 22 -56.5t57 -23.5q33 0 55.5 23.5t22.5 56.5q0 35 -22.5 56t-55.5 21q-35 0 -57 -21.5t-22 -55.5z" />
<glyph unicode=";" horiz-adv-x="540" d="M27 -102l98 565l354 -70l-151 -555zM82 846q0 88 55.5 145.5t147.5 57.5q88 0 144 -57.5t56 -145.5q0 -92 -54 -145.5t-146 -53.5t-147.5 53.5t-55.5 145.5zM119 -25q0 -33 23.5 -55t56.5 -22t55 22t22 55q0 35 -22.5 57.5t-54.5 22.5q-33 0 -56.5 -22.5t-23.5 -57.5z M164 154q0 -35 21.5 -57.5t56.5 -22.5q33 0 56.5 22.5t23.5 57.5q0 33 -24 55t-56 22q-35 0 -56.5 -22.5t-21.5 -54.5zM205 846q0 -33 22.5 -55.5t57.5 -22.5q33 0 55 22.5t22 55.5q0 35 -22.5 57.5t-54.5 22.5q-35 0 -57.5 -22.5t-22.5 -57.5zM207 319q0 -33 22.5 -55 t55.5 -22q35 0 57.5 22t22.5 55t-23 56.5t-57 23.5q-33 0 -55.5 -23.5t-22.5 -56.5z" />
<glyph unicode="&#x3c;" horiz-adv-x="1120" d="M35 516v287l1050 407v-292l-655 -256l655 -259v-297zM72 657q0 -31 23.5 -55t56.5 -24t56 23t23 56q0 35 -23.5 57.5t-55.5 22.5q-35 0 -57.5 -22.5t-22.5 -57.5zM225 575q0 -33 23.5 -56t56.5 -23t55.5 22.5t22.5 56.5q0 33 -22.5 55.5t-55.5 22.5t-56.5 -22.5 t-23.5 -55.5zM225 745q0 -33 23.5 -56t56.5 -23t55.5 23.5t22.5 55.5q0 33 -22.5 55.5t-55.5 22.5t-56.5 -23.5t-23.5 -54.5zM387 510q0 -33 22.5 -56.5t57.5 -23.5q33 0 55.5 23.5t22.5 56.5t-22.5 55.5t-55.5 22.5q-35 0 -57.5 -22.5t-22.5 -55.5zM387 811 q0 -35 22.5 -57.5t57.5 -22.5q33 0 55.5 22.5t22.5 57.5q0 33 -22.5 55.5t-55.5 22.5q-35 0 -57.5 -22.5t-22.5 -55.5zM549 444q0 -33 22.5 -56t57.5 -23q33 0 55.5 23.5t22.5 55.5q0 35 -22.5 56.5t-55.5 21.5t-56.5 -22.5t-23.5 -55.5zM549 874q0 -31 23.5 -55t56.5 -24 t55.5 23.5t22.5 55.5q0 35 -22.5 56.5t-55.5 21.5q-35 0 -57.5 -21.5t-22.5 -56.5zM709 381q0 -35 23 -57.5t56 -22.5q35 0 56.5 22.5t21.5 57.5q0 33 -21.5 55.5t-56.5 22.5q-31 0 -55 -23.5t-24 -54.5zM709 940q0 -33 24 -56.5t55 -23.5q35 0 56.5 23.5t21.5 56.5 q0 35 -21.5 56.5t-56.5 21.5q-33 0 -56 -21.5t-23 -56.5zM870 313q0 -33 23.5 -56.5t56.5 -23.5q35 0 56.5 24t21.5 56q0 33 -21.5 56.5t-56.5 23.5q-33 0 -56.5 -23.5t-23.5 -56.5zM870 1006q0 -33 24 -55.5t56 -22.5q35 0 56.5 22.5t21.5 55.5t-21.5 56t-56.5 23 q-33 0 -56.5 -23.5t-23.5 -55.5z" />
<glyph unicode="=" horiz-adv-x="1032" d="M37 264v268h958v-268h-958zM37 745v271h958v-271h-958zM88 401q0 -35 22.5 -57t55.5 -22q35 0 57.5 22t22.5 57q0 31 -23.5 54.5t-56.5 23.5t-55.5 -22.5t-22.5 -55.5zM88 883q0 -35 22.5 -57.5t55.5 -22.5q35 0 57.5 22.5t22.5 57.5q0 31 -23.5 55.5t-56.5 24.5 t-55.5 -24t-22.5 -56zM262 401q0 -35 22.5 -57t55.5 -22q35 0 57.5 22t22.5 57q0 31 -23.5 54.5t-56.5 23.5t-55.5 -22.5t-22.5 -55.5zM262 883q0 -35 22.5 -57.5t55.5 -22.5q35 0 57.5 22.5t22.5 57.5q0 31 -23.5 55.5t-56.5 24.5t-55.5 -24t-22.5 -56zM436 401 q0 -35 22.5 -57t57.5 -22q33 0 56.5 22t23.5 57q0 31 -24.5 54.5t-55.5 23.5q-35 0 -57.5 -22.5t-22.5 -55.5zM436 883q0 -35 22.5 -57.5t57.5 -22.5q33 0 56.5 22.5t23.5 57.5q0 31 -24.5 55.5t-55.5 24.5q-35 0 -57.5 -24t-22.5 -56zM610 401q0 -35 23.5 -57t56.5 -22 t55.5 22.5t22.5 56.5q0 31 -23.5 54.5t-54.5 23.5q-33 0 -56.5 -22.5t-23.5 -55.5zM610 883q0 -35 23.5 -57.5t56.5 -22.5t55.5 22.5t22.5 57.5q0 31 -23.5 55.5t-54.5 24.5q-33 0 -56.5 -24t-23.5 -56zM784 401q0 -35 23.5 -57t56.5 -22t55.5 22.5t22.5 56.5 q0 31 -23.5 54.5t-54.5 23.5q-33 0 -56.5 -22.5t-23.5 -55.5zM784 883q0 -35 23.5 -57.5t56.5 -22.5t55.5 22.5t22.5 57.5q0 31 -23.5 55.5t-54.5 24.5q-33 0 -56.5 -24t-23.5 -56z" />
<glyph unicode="&#x3e;" horiz-adv-x="1138" d="M41 106v297l655 259l-655 256v292l1055 -407v-287zM98 313q0 -33 23.5 -56.5t56.5 -23.5q35 0 56.5 24t21.5 56q0 33 -21.5 56.5t-56.5 23.5q-33 0 -56.5 -23.5t-23.5 -56.5zM98 1006q0 -33 23.5 -55.5t56.5 -22.5q35 0 56.5 22.5t21.5 55.5t-21.5 56t-56.5 23 q-33 0 -56.5 -23.5t-23.5 -55.5zM260 381q0 -35 22.5 -57.5t55.5 -22.5t56.5 22.5t23.5 57.5q0 33 -23.5 55.5t-56.5 22.5q-31 0 -54.5 -23.5t-23.5 -54.5zM260 940q0 -33 23.5 -56.5t54.5 -23.5q33 0 56.5 23.5t23.5 56.5q0 35 -23.5 56.5t-56.5 21.5t-55.5 -21.5 t-22.5 -56.5zM422 444q0 -33 22.5 -56t55.5 -23t56.5 23t23.5 56q0 35 -24 56.5t-56 21.5q-31 0 -54.5 -22.5t-23.5 -55.5zM422 874q0 -31 23.5 -55t54.5 -24q33 0 56.5 23t23.5 56q0 35 -24 56.5t-56 21.5q-33 0 -55.5 -21.5t-22.5 -56.5zM584 510q0 -33 21.5 -56.5 t56.5 -23.5q33 0 56 23.5t23 56.5t-23.5 55.5t-55.5 22.5q-35 0 -56.5 -22.5t-21.5 -55.5zM584 811q0 -35 21.5 -57.5t56.5 -22.5q33 0 56 22.5t23 57.5q0 33 -23.5 55.5t-55.5 22.5q-35 0 -56.5 -22.5t-21.5 -55.5zM745 575q0 -33 23 -56t55 -23q33 0 56.5 22t23.5 57 q0 33 -23.5 55.5t-56.5 22.5q-35 0 -56.5 -22.5t-21.5 -55.5zM745 745q0 -33 21.5 -56t56.5 -23q33 0 56.5 23t23.5 56t-23.5 55.5t-56.5 22.5t-55.5 -23.5t-22.5 -54.5zM897 657q0 -31 23.5 -55t56.5 -24t56.5 23t23.5 56q0 35 -23.5 57.5t-56.5 22.5t-56.5 -22.5 t-23.5 -57.5z" />
<glyph unicode="?" horiz-adv-x="882" d="M16 1010q37 94 83 153.5t101.5 92t119 45t137.5 12.5q80 0 151.5 -25.5t125.5 -73t87 -117t33 -157.5q0 -55 -12.5 -98t-36 -80t-59 -73t-82.5 -75q-41 -35 -65 -73.5t-24 -98.5v-71h-137q63 -20 102.5 -72.5t39.5 -122.5q0 -88 -56.5 -144.5t-144.5 -56.5 q-102 0 -151.5 60.5t-49.5 140.5q0 70 38 122t101 73h-116v118q0 53 10 104.5t41 98.5q20 31 57 58.5t73 54t62.5 53.5t26.5 57q0 57 -55 58q-43 0 -62.5 -31t-31.5 -65zM166 1077q0 -33 24.5 -56.5t55.5 -23.5q35 0 57.5 22.5t22.5 57.5q0 33 -22.5 55.5t-57.5 22.5 q-33 0 -56.5 -22.5t-23.5 -55.5zM299 176q0 -33 22.5 -56.5t57.5 -23.5q33 0 55.5 23.5t22.5 56.5q0 35 -20.5 56.5t-57.5 21.5q-35 0 -57.5 -21.5t-22.5 -56.5zM299 502q0 -31 23.5 -54.5t56.5 -23.5t55.5 22.5t22.5 55.5q0 35 -22.5 57.5t-55.5 22.5q-35 0 -57.5 -22.5 t-22.5 -57.5zM340 1139q0 -31 24.5 -55.5t55.5 -24.5q35 0 57.5 23.5t22.5 56.5q0 35 -22.5 57.5t-57.5 22.5q-33 0 -56.5 -22.5t-23.5 -57.5zM393 662q0 -35 22.5 -57.5t55.5 -22.5q35 0 57.5 22.5t22.5 57.5q0 31 -23.5 54t-56.5 23t-55.5 -22.5t-22.5 -54.5zM510 797 q0 -35 22.5 -57.5t57.5 -22.5q33 0 56.5 22.5t23.5 57.5q0 31 -24.5 55.5t-55.5 24.5q-35 0 -57.5 -24t-22.5 -56zM516 1092q0 -33 23.5 -55.5t56.5 -22.5t55.5 22.5t22.5 55.5t-22.5 56t-55.5 23q-35 0 -57.5 -23.5t-22.5 -55.5zM612 942q0 -33 22.5 -55.5t57.5 -22.5 q33 0 55.5 22.5t22.5 55.5q0 35 -22.5 57.5t-55.5 22.5q-35 0 -57.5 -22.5t-22.5 -57.5z" />
<glyph unicode="@" horiz-adv-x="1654" d="M51 442q0 174 64.5 319.5t179.5 250t270.5 162t337.5 57.5q154 0 283 -43t222 -122t145.5 -190.5t52.5 -246.5q0 -119 -37 -221.5t-102.5 -177t-153.5 -117.5t-189 -43q-109 0 -172 53q-35 -37 -84 -50.5t-100 -13.5q-72 0 -134.5 26t-109.5 72t-74.5 112.5t-27.5 148.5 q0 104 30.5 190t86 147.5t132.5 95.5t171 34q166 0 263 -80t97 -221q0 -68 -13 -120t-44 -118h18q35 0 69 27.5t60.5 68.5t43 91.5t16.5 93.5q0 82 -34 150.5t-95.5 116.5t-144.5 74.5t-181 26.5q-127 0 -234.5 -41t-186.5 -113.5t-124 -174t-45 -220.5q0 -113 40 -206 t112.5 -159.5t173 -103t221.5 -36.5q178 0 324 82l108 -193q-178 -123 -434 -123q-172 0 -318.5 53.5t-254 150.5t-168 232.5t-60.5 298.5zM109 463q0 -35 22 -57.5t57 -22.5q31 0 54.5 23.5t23.5 56.5t-22.5 56.5t-55.5 23.5q-35 0 -57 -23.5t-22 -56.5zM127 274 q0 -33 22.5 -56t57.5 -23q31 0 54.5 23.5t23.5 55.5q0 33 -22.5 55.5t-55.5 22.5q-35 0 -57.5 -22.5t-22.5 -55.5zM135 645q0 -33 23.5 -56.5t56.5 -23.5t56.5 23.5t23.5 56.5q0 35 -23.5 57.5t-56.5 22.5t-56.5 -22.5t-23.5 -57.5zM201 104q0 -33 23.5 -55t56.5 -22t56 21 t23 56q0 33 -23.5 56.5t-55.5 23.5q-33 0 -56.5 -23.5t-23.5 -56.5zM225 823q0 -33 22.5 -55.5t57.5 -22.5q33 0 55.5 22.5t22.5 55.5q0 35 -22.5 57.5t-55.5 22.5q-35 0 -57.5 -22.5t-22.5 -57.5zM332 -27q0 -33 23.5 -56t56.5 -23q35 0 56 23.5t21 55.5q0 35 -21.5 56.5 t-55.5 21.5q-33 0 -56.5 -21.5t-23.5 -56.5zM360 965q0 -31 24 -54.5t56 -23.5q33 0 56.5 22.5t23.5 55.5q0 35 -23.5 57t-56.5 22q-35 0 -57.5 -22.5t-22.5 -56.5zM492 485q0 -33 23.5 -56t55.5 -23q33 0 56.5 23t23.5 56q0 35 -23.5 57.5t-56.5 22.5t-56 -22.5t-23 -57.5z M498 -109q0 -35 22.5 -57t54.5 -22q33 0 56.5 22t23.5 57q0 33 -23.5 56.5t-56.5 23.5t-55 -24.5t-22 -55.5zM535 287q0 -31 24.5 -54.5t54.5 -23.5q33 0 56.5 22.5t23.5 55.5q0 35 -23.5 57.5t-56.5 22.5t-56 -22.5t-23 -57.5zM541 1057q0 -35 21.5 -57.5t55.5 -22.5 q33 0 56.5 22.5t23.5 57.5q0 33 -23.5 55.5t-56.5 22.5t-55 -24t-22 -54zM567 664q0 -33 23.5 -55.5t56.5 -22.5q35 0 56.5 22.5t21.5 55.5q0 35 -21.5 57t-56.5 22q-33 0 -56.5 -22.5t-23.5 -56.5zM672 -168q0 -33 22.5 -56.5t55.5 -23.5t56 23.5t23 56.5q0 35 -23.5 56.5 t-55.5 21.5q-31 0 -54.5 -22.5t-23.5 -55.5zM698 434q0 -106 66 -106q33 0 60.5 20.5t49 53t34 72.5t12.5 81q0 96 -66 96q-33 0 -60.5 -19.5t-49 -50t-34 -69.5t-12.5 -78zM705 205q0 -35 22.5 -57.5t54.5 -22.5q35 0 57.5 22.5t22.5 57.5q0 33 -22.5 56.5t-57.5 23.5 q-31 0 -54 -24.5t-23 -55.5zM741 1102q0 -33 23.5 -56.5t56.5 -23.5q35 0 56.5 23.5t21.5 56.5q0 35 -21.5 56.5t-56.5 21.5q-33 0 -56.5 -21.5t-23.5 -56.5zM770 758q0 -35 23.5 -56.5t56.5 -21.5q31 0 55.5 22.5t24.5 55.5t-23.5 56.5t-56.5 23.5t-56.5 -23.5t-23.5 -56.5 zM864 -164q0 -33 22.5 -55.5t55.5 -22.5q35 0 57.5 22.5t22.5 55.5q0 35 -22.5 57.5t-57.5 22.5q-31 0 -54.5 -23.5t-23.5 -56.5zM868 297q0 -33 23.5 -55.5t56.5 -22.5t55.5 22.5t22.5 55.5t-22.5 56.5t-55.5 23.5t-56.5 -23.5t-23.5 -56.5zM936 1098q0 -35 22.5 -57.5 t57.5 -22.5q33 0 55.5 22.5t22.5 57.5q0 33 -22.5 56.5t-55.5 23.5q-35 0 -57.5 -24t-22.5 -56zM954 467q0 -33 22.5 -56.5t57.5 -23.5q31 0 54.5 23.5t23.5 56.5q0 35 -22.5 56.5t-55.5 21.5q-35 0 -57.5 -21.5t-22.5 -56.5zM954 655q0 -33 22.5 -56.5t57.5 -23.5 q33 0 55.5 24t22.5 56q0 33 -22.5 56.5t-55.5 23.5q-35 0 -57.5 -23.5t-22.5 -56.5zM1024 217q0 -33 22.5 -56.5t55.5 -23.5q35 0 57.5 23.5t22.5 56.5t-22.5 55.5t-57.5 22.5q-31 0 -54.5 -23.5t-23.5 -54.5zM1059 -123q0 -31 22.5 -54.5t55.5 -23.5t56.5 22.5t23.5 55.5 t-24 56.5t-56 23.5q-35 0 -56.5 -23.5t-21.5 -56.5zM1124 1047q0 -33 22.5 -56.5t55.5 -23.5q35 0 57.5 23.5t22.5 56.5t-23.5 55t-56.5 22t-55.5 -22.5t-22.5 -54.5zM1202 256q0 -31 24.5 -54.5t55.5 -23.5q35 0 56.5 22.5t21.5 55.5t-21.5 56.5t-56.5 23.5 q-33 0 -56.5 -23.5t-23.5 -56.5zM1278 938q0 -35 23.5 -57.5t56.5 -22.5q35 0 56.5 22.5t21.5 57.5q0 33 -21.5 55.5t-56.5 22.5q-33 0 -56.5 -22.5t-23.5 -55.5zM1335 383q0 -35 22.5 -56.5t55.5 -21.5q35 0 57.5 21.5t22.5 56.5q0 31 -23.5 55.5t-56.5 24.5t-55.5 -23.5 t-22.5 -56.5zM1376 768q0 -33 23.5 -56.5t56.5 -23.5q35 0 56.5 23.5t21.5 56.5q0 35 -21.5 56.5t-56.5 21.5q-33 0 -56.5 -21.5t-23.5 -56.5zM1393 563q0 -35 21.5 -57.5t55.5 -22.5q33 0 56.5 22.5t23.5 57.5q0 33 -23.5 55.5t-56.5 22.5t-55 -23.5t-22 -54.5z" />
<glyph unicode="A" d="M12 0l447 1288h442l449 -1288h-422l-41 135h-408l-43 -135h-424zM178 145q0 -35 21.5 -57t56.5 -22q33 0 56.5 22t23.5 57q0 31 -24.5 54.5t-55.5 23.5q-35 0 -56.5 -22.5t-21.5 -55.5zM233 307q0 -33 24 -55.5t56 -22.5q33 0 56.5 22.5t23.5 55.5t-24.5 56.5t-55.5 23.5 q-33 0 -56.5 -22.5t-23.5 -57.5zM291 473q0 -33 22.5 -56.5t55.5 -23.5t56.5 23.5t23.5 56.5q0 31 -24 55.5t-56 24.5q-33 0 -55.5 -23.5t-22.5 -56.5zM348 639q0 -33 22.5 -56.5t55.5 -23.5t56.5 23.5t23.5 56.5q0 31 -23.5 55.5t-56.5 24.5t-55.5 -23.5t-22.5 -56.5z M406 803q0 -33 22.5 -56.5t54.5 -23.5q33 0 56.5 23.5t23.5 56.5q0 31 -23.5 55.5t-56.5 24.5t-55 -23.5t-22 -56.5zM414 301q0 -33 22.5 -56.5t55.5 -23.5t56 22.5t23 57.5q0 33 -23.5 56.5t-55.5 23.5q-33 0 -55.5 -23.5t-22.5 -56.5zM461 969q0 -33 22.5 -56.5 t55.5 -23.5t56 23.5t23 56.5q0 31 -23.5 55.5t-55.5 24.5q-33 0 -55.5 -24t-22.5 -56zM514 1133q0 -35 22.5 -57.5t57.5 -22.5q33 0 55.5 22.5t22.5 57.5q0 31 -23.5 54t-54.5 23q-35 0 -57.5 -22.5t-22.5 -54.5zM571 457h220l-111 374zM596 301q0 -33 24.5 -56.5 t55.5 -23.5q35 0 57.5 22.5t22.5 57.5q0 33 -22.5 56.5t-57.5 23.5q-33 0 -56.5 -23.5t-23.5 -56.5zM688 1133q0 -35 23.5 -57.5t56.5 -22.5t55.5 22.5t22.5 57.5q0 31 -23.5 54t-54.5 23q-33 0 -56.5 -22.5t-23.5 -54.5zM735 967q0 -33 21.5 -56.5t56.5 -23.5 q33 0 56.5 23.5t23.5 56.5t-23.5 56.5t-56.5 23.5t-55.5 -24t-22.5 -56zM786 301q0 -33 23.5 -56.5t56.5 -23.5t55.5 22.5t22.5 57.5q0 33 -22.5 56.5t-55.5 23.5t-56.5 -23.5t-23.5 -56.5zM791 801q0 -33 22.5 -55.5t56.5 -22.5q33 0 56.5 22.5t23.5 55.5q0 35 -23.5 57.5 t-56.5 22.5t-56 -23.5t-23 -56.5zM848 639q0 -35 23.5 -57.5t56.5 -22.5t55.5 22.5t22.5 57.5q0 33 -22.5 55.5t-55.5 22.5t-56.5 -22.5t-23.5 -55.5zM905 473q0 -33 22.5 -56.5t55.5 -23.5t56.5 23.5t23.5 56.5q0 31 -23.5 55.5t-56.5 24.5t-55.5 -23.5t-22.5 -56.5z M963 307q0 -33 22.5 -55.5t54.5 -22.5q33 0 56.5 22.5t23.5 55.5t-24.5 56.5t-55.5 23.5q-33 0 -55 -22.5t-22 -57.5zM1016 145q0 -35 23.5 -57t56.5 -22q35 0 57.5 22t22.5 57q0 33 -23 55.5t-57 22.5q-31 0 -55.5 -23.5t-24.5 -54.5z" />
<glyph unicode="B" horiz-adv-x="1054" d="M76 0v1288h489q92 0 167 -24.5t128 -72.5t83 -116.5t30 -154.5q0 -162 -119 -250q59 -35 97 -106.5t38 -166.5q0 -193 -112.5 -295t-333.5 -102h-467zM178 166q0 -35 22.5 -56.5t55.5 -21.5t56.5 21.5t23.5 56.5q0 33 -23.5 56.5t-56.5 23.5t-55.5 -23.5t-22.5 -56.5z M178 356q0 -33 22.5 -56.5t55.5 -23.5t56.5 23.5t23.5 56.5t-23.5 56.5t-56.5 23.5t-55.5 -23.5t-22.5 -56.5zM178 563q0 -35 22.5 -57.5t55.5 -22.5t56.5 22.5t23.5 57.5q0 33 -23.5 55.5t-56.5 22.5t-55.5 -22.5t-22.5 -55.5zM178 752q0 -33 22.5 -56.5t55.5 -23.5 t56.5 23.5t23.5 56.5t-23.5 56t-56.5 23t-55.5 -23.5t-22.5 -55.5zM178 940q0 -33 22.5 -55.5t55.5 -22.5t56.5 22.5t23.5 55.5q0 35 -23.5 57.5t-56.5 22.5t-55.5 -22.5t-22.5 -57.5zM178 1133q0 -35 22.5 -57.5t55.5 -22.5t56.5 22.5t23.5 57.5q0 33 -23.5 55t-56.5 22 t-55.5 -22.5t-22.5 -54.5zM358 666q0 -31 22.5 -55.5t55.5 -24.5t56.5 23.5t23.5 56.5q0 35 -23.5 57t-56.5 22q-35 0 -56.5 -22.5t-21.5 -56.5zM371 1135q0 -33 22.5 -55.5t55.5 -22.5q31 0 55 22.5t24 55.5q0 35 -23.5 57t-55.5 22q-33 0 -55.5 -22.5t-22.5 -56.5z M381 166q0 -35 22.5 -56.5t55.5 -21.5q35 0 57.5 21.5t22.5 56.5q0 33 -22.5 56.5t-57.5 23.5q-33 0 -55.5 -23.5t-22.5 -56.5zM451 311h51q47 0 76.5 28t29.5 75q0 102 -131 102h-26v-205zM451 803q82 0 113.5 20.5t31.5 73.5q0 57 -36 76.5t-109 19.5v-190zM547 670 q0 -35 22.5 -57.5t57.5 -22.5q33 0 55.5 22.5t22.5 57.5q0 33 -23 55.5t-55 22.5q-35 0 -57.5 -23t-22.5 -55zM559 1112q0 -33 23.5 -55.5t56.5 -22.5q35 0 56.5 22.5t21.5 55.5t-22.5 56.5t-55.5 23.5t-56.5 -22.5t-23.5 -57.5zM584 203q0 -33 21.5 -56.5t56.5 -23.5 q33 0 56 23.5t23 56.5q0 35 -23.5 57.5t-55.5 22.5q-35 0 -56.5 -22.5t-21.5 -57.5zM680 809q0 -33 22.5 -57.5t55.5 -24.5t56.5 24.5t23.5 55.5q0 35 -23.5 57.5t-56.5 22.5t-55.5 -21.5t-22.5 -56.5zM692 541q0 -33 22.5 -56.5t55.5 -23.5q35 0 57.5 23.5t22.5 56.5 q0 35 -22.5 56t-57.5 21q-31 0 -54.5 -22.5t-23.5 -54.5zM698 989q0 -33 23.5 -56.5t56.5 -23.5t55.5 24.5t22.5 55.5q0 33 -22.5 56.5t-55.5 23.5t-56.5 -23.5t-23.5 -56.5zM715 350q0 -33 21.5 -56.5t56.5 -23.5q33 0 56 23.5t23 56.5q0 35 -23.5 56.5t-55.5 21.5 q-35 0 -56.5 -21.5t-21.5 -56.5z" />
<glyph unicode="C" horiz-adv-x="1310" d="M49 643q0 147 49 270t138.5 212t211 138.5t267.5 49.5q211 0 342 -73t209 -214l-279 -258q-80 182 -262 182q-66 0 -118 -23.5t-91 -64.5t-59.5 -97t-20.5 -122t20.5 -121t58.5 -96t91 -64.5t119 -23.5q113 0 180.5 52t98.5 130l290 -209q-39 -74 -92 -135t-124.5 -105 t-162 -70t-200.5 -26q-145 0 -267 49.5t-211.5 138.5t-138.5 212t-49 268zM166 647q0 -33 21.5 -56.5t56.5 -23.5q33 0 56.5 23.5t23.5 56.5q0 35 -24 56.5t-56 21.5q-35 0 -56.5 -21.5t-21.5 -56.5zM197 461q0 -31 23.5 -55.5t53.5 -24.5q33 0 56.5 23.5t23.5 56.5 q0 35 -23.5 57.5t-56.5 22.5t-55 -22.5t-22 -57.5zM197 825q0 -31 23.5 -54t53.5 -23q33 0 56.5 22t23.5 55q0 35 -23.5 57.5t-56.5 22.5t-55 -22.5t-22 -57.5zM295 977q0 -33 23.5 -56.5t56.5 -23.5q31 0 55.5 23.5t24.5 56.5t-23.5 56.5t-56.5 23.5t-56.5 -23.5 t-23.5 -56.5zM299 305q0 -33 23.5 -56.5t56.5 -23.5q31 0 54.5 24.5t23.5 55.5q0 33 -22.5 55.5t-55.5 22.5t-56.5 -22.5t-23.5 -55.5zM446 1090q0 -33 21.5 -56.5t56.5 -23.5q31 0 55.5 24.5t24.5 55.5q0 33 -23.5 55t-56.5 22q-35 0 -56.5 -22.5t-21.5 -54.5zM449 199 q0 -33 22.5 -55.5t56.5 -22.5q31 0 55.5 22.5t24.5 55.5t-23.5 56.5t-56.5 23.5q-35 0 -57 -24t-22 -56zM629 156q0 -33 23.5 -56.5t56.5 -23.5q35 0 57 23.5t22 56.5t-22.5 55t-56.5 22q-33 0 -56.5 -22.5t-23.5 -54.5zM629 1135q0 -35 23.5 -57.5t56.5 -22.5q35 0 57 22.5 t22 57.5q0 33 -22.5 55t-56.5 22q-31 0 -55.5 -23.5t-24.5 -53.5zM813 1100q0 -33 23.5 -56.5t56.5 -23.5t56.5 24.5t23.5 55.5q0 33 -22.5 55.5t-57.5 22.5q-33 0 -56.5 -22.5t-23.5 -55.5zM817 193q0 -33 23.5 -56.5t56.5 -23.5t55.5 23.5t22.5 56.5t-21.5 56t-56.5 23 q-33 0 -56.5 -23.5t-23.5 -55.5zM971 995q0 -33 22.5 -56.5t55.5 -23.5t56 23.5t23 56.5t-23.5 55.5t-55.5 22.5q-33 0 -55.5 -22.5t-22.5 -55.5zM975 301q0 -33 23.5 -56.5t56.5 -23.5q31 0 55.5 24.5t24.5 55.5q0 33 -24 56.5t-56 23.5q-33 0 -56.5 -23.5t-23.5 -56.5z " />
<glyph unicode="D" horiz-adv-x="1177" d="M76 0v1292h356q141 0 268 -40t221.5 -118.5t149.5 -198.5t55 -280q0 -135 -42 -254.5t-128 -209t-217 -140.5t-307 -51h-356zM193 176q0 -33 23 -56.5t56 -23.5q35 0 56.5 23.5t21.5 56.5t-21.5 55.5t-56.5 22.5q-33 0 -56 -22.5t-23 -55.5zM193 367q0 -35 23 -57.5 t56 -22.5q35 0 56.5 22.5t21.5 57.5q0 33 -21.5 56t-56.5 23q-33 0 -56 -23.5t-23 -55.5zM193 555q0 -33 23.5 -55.5t55.5 -22.5q35 0 56.5 22.5t21.5 55.5t-21.5 56.5t-56.5 23.5q-33 0 -56 -23.5t-23 -56.5zM193 745q0 -33 23 -56t56 -23q35 0 56.5 23.5t21.5 55.5 q0 35 -21.5 56.5t-56.5 21.5q-33 0 -56 -21.5t-23 -56.5zM193 936q0 -35 23 -57.5t56 -22.5q35 0 56.5 22.5t21.5 57.5q0 33 -21.5 56.5t-56.5 23.5q-33 0 -56 -23.5t-23 -56.5zM193 1124q0 -33 23.5 -55t55.5 -22q35 0 56.5 22t21.5 55t-21.5 56.5t-56.5 23.5 q-33 0 -56 -23.5t-23 -56.5zM371 156q0 -33 23.5 -56.5t56.5 -23.5q35 0 57 23.5t22 56.5t-22.5 55t-56.5 22q-33 0 -56.5 -22.5t-23.5 -54.5zM371 1135q0 -35 23.5 -57.5t56.5 -22.5q35 0 57 22.5t22 57.5q0 33 -22.5 55t-56.5 22q-31 0 -55.5 -23.5t-24.5 -53.5zM449 338 q135 0 206.5 80t71.5 227q0 309 -278 309v-616zM571 201q0 -33 23.5 -55.5t56.5 -22.5t55.5 22.5t22.5 55.5t-22.5 56.5t-55.5 23.5t-56.5 -24t-23.5 -56zM571 1085q0 -33 23.5 -56t56.5 -23t55.5 24.5t22.5 54.5q0 33 -22.5 56.5t-55.5 23.5t-56.5 -23.5t-23.5 -56.5z M715 315q0 -33 23.5 -56t56.5 -23q31 0 55 24t24 55q0 33 -23.5 55.5t-55.5 22.5q-33 0 -56.5 -22.5t-23.5 -55.5zM715 973q0 -33 23.5 -56.5t56.5 -23.5q31 0 55 23.5t24 56.5t-23.5 55.5t-55.5 22.5q-33 0 -56.5 -22.5t-23.5 -55.5zM815 465q0 -33 22.5 -56.5t57.5 -23.5 q33 0 55.5 23.5t22.5 56.5q0 35 -22.5 56.5t-55.5 21.5q-35 0 -57.5 -21.5t-22.5 -56.5zM815 821q0 -33 22.5 -56.5t57.5 -23.5q33 0 55.5 23.5t22.5 56.5q0 35 -22.5 56.5t-55.5 21.5q-35 0 -57.5 -21.5t-22.5 -56.5zM848 643q0 -33 23.5 -55.5t56.5 -22.5t55.5 22.5 t22.5 55.5t-22.5 56.5t-55.5 23.5t-56.5 -22.5t-23.5 -57.5z" />
<glyph unicode="E" horiz-adv-x="909" d="M76 0v1288h772v-325h-373v-150h373v-326h-373v-149h373v-338h-772zM193 176q0 -33 23 -56.5t56 -23.5q35 0 56.5 23.5t21.5 56.5t-21.5 55.5t-56.5 22.5q-33 0 -56 -22.5t-23 -55.5zM193 367q0 -35 23 -57.5t56 -22.5q35 0 56.5 22.5t21.5 57.5q0 33 -21.5 56t-56.5 23 q-33 0 -56 -23.5t-23 -55.5zM193 555q0 -33 23.5 -55.5t55.5 -22.5q35 0 56.5 22.5t21.5 55.5t-21.5 56.5t-56.5 23.5q-33 0 -56 -23.5t-23 -56.5zM193 745q0 -33 23 -56t56 -23q35 0 56.5 23.5t21.5 55.5q0 35 -21.5 56.5t-56.5 21.5q-33 0 -56 -21.5t-23 -56.5zM193 936 q0 -35 23 -57.5t56 -22.5q35 0 56.5 22.5t21.5 57.5q0 33 -21.5 56.5t-56.5 23.5q-33 0 -56 -23.5t-23 -56.5zM193 1124q0 -33 23.5 -55t55.5 -22q35 0 56.5 22t21.5 55t-21.5 56.5t-56.5 23.5q-33 0 -56 -23.5t-23 -56.5zM383 176q0 -33 22.5 -56.5t57.5 -23.5 q33 0 56.5 23.5t23.5 56.5t-23.5 55.5t-56.5 22.5q-35 0 -57.5 -22.5t-22.5 -55.5zM383 651q0 -33 22.5 -56.5t57.5 -23.5q33 0 56.5 23.5t23.5 56.5t-23.5 55.5t-56.5 22.5q-35 0 -57.5 -22.5t-22.5 -55.5zM383 1124q0 -33 22.5 -55t57.5 -22q33 0 56.5 22t23.5 55 t-23.5 56.5t-56.5 23.5q-35 0 -57.5 -23.5t-22.5 -56.5zM573 176q0 -33 22.5 -56.5t55.5 -23.5t56.5 23.5t23.5 56.5t-23.5 55.5t-56.5 22.5t-55.5 -22.5t-22.5 -55.5zM573 651q0 -33 22.5 -56.5t55.5 -23.5t56.5 23.5t23.5 56.5t-23.5 55.5t-56.5 22.5t-55.5 -22.5 t-22.5 -55.5zM573 1124q0 -33 22.5 -55t55.5 -22t56.5 22t23.5 55t-23.5 56.5t-56.5 23.5t-55.5 -23.5t-22.5 -56.5z" />
<glyph unicode="F" horiz-adv-x="886" d="M76 0v1288h772v-325h-373v-150h373v-326h-373v-487h-399zM193 176q0 -33 23 -56.5t56 -23.5q35 0 56.5 23.5t21.5 56.5t-21.5 55.5t-56.5 22.5q-33 0 -56 -22.5t-23 -55.5zM193 367q0 -35 23 -57.5t56 -22.5q35 0 56.5 22.5t21.5 57.5q0 33 -21.5 56t-56.5 23 q-33 0 -56 -23.5t-23 -55.5zM193 555q0 -33 23.5 -55.5t55.5 -22.5q35 0 56.5 22.5t21.5 55.5t-21.5 56.5t-56.5 23.5q-33 0 -56 -23.5t-23 -56.5zM193 745q0 -33 23 -56t56 -23q35 0 56.5 23.5t21.5 55.5q0 35 -21.5 56.5t-56.5 21.5q-33 0 -56 -21.5t-23 -56.5zM193 936 q0 -35 23 -57.5t56 -22.5q35 0 56.5 22.5t21.5 57.5q0 33 -21.5 56.5t-56.5 23.5q-33 0 -56 -23.5t-23 -56.5zM193 1124q0 -33 23.5 -55t55.5 -22q35 0 56.5 22t21.5 55t-21.5 56.5t-56.5 23.5q-33 0 -56 -23.5t-23 -56.5zM383 651q0 -33 22.5 -56.5t57.5 -23.5 q33 0 56.5 23.5t23.5 56.5t-23.5 55.5t-56.5 22.5q-35 0 -57.5 -22.5t-22.5 -55.5zM383 1124q0 -33 22.5 -55t57.5 -22q33 0 56.5 22t23.5 55t-23.5 56.5t-56.5 23.5q-35 0 -57.5 -23.5t-22.5 -56.5zM573 651q0 -33 22.5 -56.5t55.5 -23.5t56.5 23.5t23.5 56.5t-23.5 55.5 t-56.5 22.5t-55.5 -22.5t-22.5 -55.5zM573 1124q0 -33 22.5 -55t55.5 -22t56.5 22t23.5 55t-23.5 56.5t-56.5 23.5t-55.5 -23.5t-22.5 -56.5z" />
<glyph unicode="G" horiz-adv-x="1445" d="M55 643q0 143 51.5 266t141.5 213t216 140.5t273 50.5q117 0 205 -19.5t153.5 -57.5t113.5 -93.5t87 -124.5l-280 -217q-47 82 -108.5 118.5t-174.5 36.5q-59 0 -109.5 -21.5t-88 -61t-59 -98t-21.5 -132.5q0 -63 19.5 -119.5t56 -99.5t90 -67.5t118.5 -24.5 q139 0 226 114h-271v324h697q4 -35 6 -68.5t2 -68.5q0 -117 -33 -223.5t-113 -204.5q-92 -111 -227 -170.5t-295 -59.5q-147 0 -271 49.5t-214 137.5t-140.5 211t-50.5 270zM186 643q0 -33 21.5 -55.5t56.5 -22.5q33 0 56.5 22.5t23.5 55.5q0 35 -23.5 57.5t-56.5 22.5 q-35 0 -56.5 -22.5t-21.5 -57.5zM217 465q0 -31 23.5 -55.5t54.5 -24.5q33 0 56.5 23.5t23.5 56.5q0 35 -23.5 56.5t-56.5 21.5t-55.5 -21.5t-22.5 -56.5zM217 821q0 -31 23.5 -55.5t54.5 -24.5q33 0 56.5 23.5t23.5 56.5q0 35 -23.5 56.5t-56.5 21.5t-55.5 -21.5 t-22.5 -56.5zM317 315q0 -33 24 -56t56 -23q31 0 55.5 24t24.5 55q0 33 -23.5 55.5t-56.5 22.5t-56.5 -22.5t-23.5 -55.5zM317 973q0 -33 24 -56.5t56 -23.5q31 0 55.5 23.5t24.5 56.5t-23.5 55.5t-56.5 22.5t-56.5 -22.5t-23.5 -55.5zM463 201q0 -33 22.5 -55.5t57.5 -22.5 q31 0 54.5 22.5t23.5 55.5t-23 56.5t-55 23.5q-35 0 -57.5 -24t-22.5 -56zM467 1085q0 -33 22.5 -56t57.5 -23q31 0 55.5 24t24.5 55q0 33 -23.5 56.5t-56.5 23.5q-35 0 -57.5 -23.5t-22.5 -56.5zM643 156q0 -33 23.5 -56.5t56.5 -23.5q35 0 56.5 23.5t21.5 56.5t-21.5 55 t-56.5 22q-33 0 -56.5 -22.5t-23.5 -54.5zM645 1130q0 -35 23.5 -57t56.5 -22q35 0 56.5 22.5t21.5 56.5q0 33 -21.5 56.5t-56.5 23.5q-33 0 -56.5 -24.5t-23.5 -55.5zM772 608q0 -33 23.5 -55.5t56.5 -22.5t55.5 22.5t22.5 55.5t-23.5 56.5t-54.5 23.5q-33 0 -56.5 -22.5 t-23.5 -57.5zM829 188q0 -33 23.5 -56t56.5 -23q31 0 54.5 23.5t23.5 55.5q0 35 -22.5 56.5t-55.5 21.5t-56.5 -21.5t-23.5 -56.5zM834 1102q0 -33 22.5 -56.5t54.5 -23.5q33 0 56.5 23.5t23.5 56.5t-22.5 55.5t-57.5 22.5q-33 0 -55 -22.5t-22 -55.5zM946 608 q0 -33 23.5 -55.5t56.5 -22.5t55.5 22.5t22.5 55.5t-23.5 56.5t-54.5 23.5q-33 0 -56.5 -22.5t-23.5 -57.5zM973 291q0 -33 22.5 -56.5t57.5 -23.5q31 0 55.5 24.5t24.5 55.5q0 35 -24 57.5t-56 22.5q-35 0 -57.5 -22.5t-22.5 -57.5zM995 999q0 -33 22.5 -56t55.5 -23 q31 0 55.5 23t24.5 56t-23.5 56.5t-56.5 23.5t-55.5 -23.5t-22.5 -56.5zM1081 436q0 -33 22.5 -55.5t55.5 -22.5q35 0 57.5 22.5t22.5 55.5t-22.5 56.5t-57.5 23.5q-33 0 -55.5 -23.5t-22.5 -56.5zM1120 608q0 -33 22.5 -55.5t55.5 -22.5q35 0 57.5 22.5t22.5 55.5 t-23.5 56.5t-56.5 23.5t-55.5 -22.5t-22.5 -57.5z" />
<glyph unicode="H" horiz-adv-x="1241" d="M76 0v1288h399v-467h291v467h399v-1288h-399v485h-291v-485h-399zM195 176q0 -33 23 -56.5t56 -23.5t55.5 23.5t22.5 56.5t-22.5 55.5t-55.5 22.5t-56 -22.5t-23 -55.5zM195 367q0 -35 23 -57.5t56 -22.5t55.5 22.5t22.5 57.5q0 33 -22.5 56t-55.5 23t-56 -23.5 t-23 -55.5zM195 555q0 -33 23.5 -55.5t55.5 -22.5q33 0 55.5 22.5t22.5 55.5t-22.5 56.5t-55.5 23.5t-56 -23.5t-23 -56.5zM195 745q0 -33 23 -56t56 -23t55.5 23.5t22.5 55.5q0 35 -22.5 56.5t-55.5 21.5t-56 -21.5t-23 -56.5zM195 936q0 -35 23 -57.5t56 -22.5t55.5 22.5 t22.5 57.5q0 33 -22.5 56.5t-55.5 23.5t-56 -23.5t-23 -56.5zM195 1124q0 -33 23.5 -55t55.5 -22q33 0 55.5 22t22.5 55t-22.5 56.5t-55.5 23.5t-56 -23.5t-23 -56.5zM365 657q0 -35 22 -57t57 -22q33 0 55.5 22.5t22.5 56.5q0 33 -22.5 56.5t-55.5 23.5q-35 0 -57 -23.5 t-22 -56.5zM545 657q0 -35 23.5 -57t56.5 -22t56.5 22t23.5 57q0 33 -24 56.5t-56 23.5q-33 0 -56.5 -23.5t-23.5 -56.5zM729 657q0 -35 23.5 -57t56.5 -22q35 0 56.5 22.5t21.5 56.5q0 33 -21.5 56.5t-56.5 23.5q-33 0 -56.5 -23.5t-23.5 -56.5zM891 176q0 -33 23.5 -56.5 t56.5 -23.5t55.5 23.5t22.5 56.5t-22.5 55.5t-55.5 22.5t-56.5 -22.5t-23.5 -55.5zM891 367q0 -35 23.5 -57.5t56.5 -22.5t55.5 22.5t22.5 57.5q0 33 -22.5 56t-55.5 23t-56.5 -23.5t-23.5 -55.5zM891 555q0 -33 23.5 -55.5t56.5 -22.5t55.5 22.5t22.5 55.5t-22.5 56.5 t-55.5 23.5t-56.5 -23.5t-23.5 -56.5zM891 745q0 -33 23.5 -56t56.5 -23t55.5 23.5t22.5 55.5q0 35 -22.5 56.5t-55.5 21.5t-56.5 -21.5t-23.5 -56.5zM891 936q0 -35 23.5 -57.5t56.5 -22.5t55.5 22.5t22.5 57.5q0 33 -22.5 56.5t-55.5 23.5t-56.5 -23.5t-23.5 -56.5z M891 1124q0 -33 23.5 -55t56.5 -22t55.5 22t22.5 55t-22.5 56.5t-55.5 23.5t-56.5 -23.5t-23.5 -56.5z" />
<glyph unicode="I" horiz-adv-x="555" d="M76 0v1288h403v-1288h-403zM193 176q0 -33 23 -56.5t56 -23.5q35 0 56.5 23.5t21.5 56.5t-21.5 55.5t-56.5 22.5q-33 0 -56 -22.5t-23 -55.5zM193 367q0 -35 23 -57.5t56 -22.5q35 0 56.5 22.5t21.5 57.5q0 33 -21.5 56t-56.5 23q-33 0 -56 -23.5t-23 -55.5zM193 555 q0 -33 23.5 -55.5t55.5 -22.5q35 0 56.5 22.5t21.5 55.5t-21.5 56.5t-56.5 23.5q-33 0 -56 -23.5t-23 -56.5zM193 745q0 -33 23 -56t56 -23q35 0 56.5 23.5t21.5 55.5q0 35 -21.5 56.5t-56.5 21.5q-33 0 -56 -21.5t-23 -56.5zM193 936q0 -35 23 -57.5t56 -22.5 q35 0 56.5 22.5t21.5 57.5q0 33 -21.5 56.5t-56.5 23.5q-33 0 -56 -23.5t-23 -56.5zM193 1124q0 -33 23.5 -55t55.5 -22q35 0 56.5 22t21.5 55t-21.5 56.5t-56.5 23.5q-33 0 -56 -23.5t-23 -56.5z" />
<glyph unicode="J" horiz-adv-x="788" d="M31 2v336q61 -14 94 -16.5t53 -2.5q49 0 78 13.5t44 38t19.5 60.5t4.5 79v778h399v-796q0 -252 -119 -384.5t-342 -132.5q-78 0 -136 8.5t-95 18.5zM139 160q0 -33 23.5 -56.5t56.5 -23.5t55.5 23.5t22.5 56.5t-22.5 56.5t-55.5 23.5t-56.5 -23.5t-23.5 -56.5zM328 209 q0 -35 23.5 -57.5t56.5 -22.5q35 0 57 22.5t22 57.5q0 33 -22.5 55.5t-56.5 22.5q-33 0 -56.5 -22.5t-23.5 -55.5zM424 367q0 -35 22.5 -57.5t57.5 -22.5q33 0 56.5 22.5t23.5 57.5q0 33 -23.5 56t-56.5 23q-35 0 -57.5 -23.5t-22.5 -55.5zM457 555q0 -33 22.5 -55.5 t55.5 -22.5t56 22.5t23 55.5t-23.5 56.5t-55.5 23.5q-33 0 -55.5 -23.5t-22.5 -56.5zM457 745q0 -33 22.5 -56t55.5 -23t56 23t23 56q0 35 -23.5 56.5t-55.5 21.5q-33 0 -55.5 -21.5t-22.5 -56.5zM457 936q0 -35 22.5 -57.5t55.5 -22.5t56 22.5t23 57.5q0 33 -23.5 56.5 t-55.5 23.5q-33 0 -55.5 -23.5t-22.5 -56.5zM457 1124q0 -33 22.5 -55t55.5 -22t56 22t23 55t-23.5 56.5t-55.5 23.5q-33 0 -55.5 -23.5t-22.5 -56.5z" />
<glyph unicode="K" horiz-adv-x="1064" d="M76 0v1288h399v-258l117 258h448l-348 -606l361 -682h-445l-133 303v-303h-399zM193 176q0 -33 23 -56.5t56 -23.5q35 0 56.5 23.5t21.5 56.5t-21.5 55.5t-56.5 22.5q-33 0 -56 -22.5t-23 -55.5zM193 367q0 -35 23 -57.5t56 -22.5q35 0 56.5 22.5t21.5 57.5 q0 33 -21.5 56t-56.5 23q-33 0 -56 -23.5t-23 -55.5zM193 555q0 -33 23.5 -55.5t55.5 -22.5q35 0 56.5 22.5t21.5 55.5t-21.5 56.5t-56.5 23.5q-33 0 -56 -23.5t-23 -56.5zM193 745q0 -33 23 -56t56 -23q35 0 56.5 23.5t21.5 55.5q0 35 -21.5 56.5t-56.5 21.5 q-33 0 -56 -21.5t-23 -56.5zM193 936q0 -35 23 -57.5t56 -22.5q35 0 56.5 22.5t21.5 57.5q0 33 -21.5 56.5t-56.5 23.5q-33 0 -56 -23.5t-23 -56.5zM193 1124q0 -33 23.5 -55t55.5 -22q35 0 56.5 22t21.5 55t-21.5 56.5t-56.5 23.5q-33 0 -56 -23.5t-23 -56.5zM371 657 q0 -35 23.5 -57t56.5 -22q35 0 57 22t22 57q0 33 -22.5 56.5t-56.5 23.5q-33 0 -56.5 -23.5t-23.5 -56.5zM473 823q0 -33 23.5 -56.5t56.5 -23.5t55.5 24t22.5 56q0 35 -22.5 56.5t-55.5 21.5t-56.5 -21.5t-23.5 -56.5zM485 489q0 -33 22.5 -56t57.5 -23q33 0 55.5 23.5 t22.5 55.5q0 35 -22.5 56.5t-55.5 21.5q-35 0 -57.5 -21.5t-22.5 -56.5zM573 979q0 -35 22.5 -57.5t55.5 -22.5t56.5 23.5t23.5 56.5t-23.5 56.5t-56.5 23.5t-55.5 -23.5t-22.5 -56.5zM584 319q0 -33 21.5 -55t56.5 -22q33 0 56 22t23 55t-23.5 56.5t-55.5 23.5 q-35 0 -56.5 -23.5t-21.5 -56.5zM674 156q0 -33 23.5 -56.5t56.5 -23.5t56.5 23.5t23.5 56.5t-24 55t-56 22q-33 0 -56.5 -22.5t-23.5 -54.5zM680 1143q0 -33 21.5 -56.5t56.5 -23.5q33 0 56.5 23.5t23.5 56.5t-23.5 55.5t-56.5 22.5q-35 0 -56.5 -21.5t-21.5 -56.5z" />
<glyph unicode="L" horiz-adv-x="811" d="M76 0v1288h399v-950h305v-338h-704zM193 176q0 -33 23 -56.5t56 -23.5q35 0 56.5 23.5t21.5 56.5t-21.5 55.5t-56.5 22.5q-33 0 -56 -22.5t-23 -55.5zM193 367q0 -35 23 -57.5t56 -22.5q35 0 56.5 22.5t21.5 57.5q0 33 -21.5 56t-56.5 23q-33 0 -56 -23.5t-23 -55.5z M193 555q0 -33 23.5 -55.5t55.5 -22.5q35 0 56.5 22.5t21.5 55.5t-21.5 56.5t-56.5 23.5q-33 0 -56 -23.5t-23 -56.5zM193 745q0 -33 23 -56t56 -23q35 0 56.5 23.5t21.5 55.5q0 35 -21.5 56.5t-56.5 21.5q-33 0 -56 -21.5t-23 -56.5zM193 936q0 -35 23 -57.5t56 -22.5 q35 0 56.5 22.5t21.5 57.5q0 33 -21.5 56.5t-56.5 23.5q-33 0 -56 -23.5t-23 -56.5zM193 1124q0 -33 23.5 -55t55.5 -22q35 0 56.5 22t21.5 55t-21.5 56.5t-56.5 23.5q-33 0 -56 -23.5t-23 -56.5zM383 176q0 -33 22.5 -56.5t57.5 -23.5q33 0 56.5 23.5t23.5 56.5t-23.5 55.5 t-56.5 22.5q-35 0 -57.5 -22.5t-22.5 -55.5zM573 176q0 -33 22.5 -56.5t55.5 -23.5t56.5 23.5t23.5 56.5t-23.5 55.5t-56.5 22.5t-55.5 -22.5t-22.5 -55.5z" />
<glyph unicode="M" horiz-adv-x="1581" d="M72 0v1288h452l267 -588l280 588h438v-1288h-374v657l-347 -745l-342 741v-653h-374zM188 176q0 -33 24 -56.5t56 -23.5q35 0 57.5 23.5t22.5 56.5t-22.5 55.5t-57.5 22.5q-33 0 -56.5 -22.5t-23.5 -55.5zM188 367q0 -35 24 -57.5t56 -22.5q35 0 57.5 22.5t22.5 57.5 q0 33 -22.5 56t-57.5 23q-33 0 -56.5 -23.5t-23.5 -55.5zM188 555q0 -33 24 -55.5t56 -22.5q35 0 57.5 22.5t22.5 55.5t-22.5 56.5t-57.5 23.5q-33 0 -56.5 -23.5t-23.5 -56.5zM188 745q0 -33 24 -56t56 -23q35 0 57.5 23t22.5 56q0 35 -22.5 56.5t-57.5 21.5 q-33 0 -56.5 -21.5t-23.5 -56.5zM188 936q0 -35 24 -57.5t56 -22.5q35 0 57.5 22.5t22.5 57.5q0 33 -22.5 56.5t-57.5 23.5q-33 0 -56.5 -23.5t-23.5 -56.5zM188 1124q0 -33 24 -55t56 -22q35 0 57.5 22t22.5 55t-22.5 56.5t-57.5 23.5q-33 0 -56.5 -23.5t-23.5 -56.5z M369 1032q0 -33 22.5 -56.5t54.5 -23.5q35 0 57.5 23.5t22.5 56.5t-22.5 56.5t-57.5 23.5q-33 0 -55 -23.5t-22 -56.5zM449 860q0 -35 23.5 -57.5t55.5 -22.5q35 0 57.5 22.5t22.5 57.5q0 33 -22.5 56.5t-57.5 23.5q-33 0 -56 -23.5t-23 -56.5zM530 686q0 -33 22.5 -55.5 t55.5 -22.5t56.5 23.5t23.5 54.5q0 35 -22.5 57.5t-57.5 22.5q-33 0 -55.5 -22.5t-22.5 -57.5zM608 516q0 -33 23.5 -56.5t56.5 -23.5q35 0 57.5 23.5t22.5 56.5t-22.5 56.5t-57.5 23.5q-31 0 -55.5 -24.5t-24.5 -55.5zM705 344q0 -35 23.5 -57.5t55.5 -22.5q35 0 57.5 22.5 t22.5 57.5q0 33 -22.5 56.5t-57.5 23.5q-33 0 -56 -23.5t-23 -56.5zM813 516q0 -33 23.5 -56.5t56.5 -23.5t56.5 23.5t23.5 56.5q0 31 -24.5 55.5t-55.5 24.5q-33 0 -56.5 -23.5t-23.5 -56.5zM893 686q0 -31 23.5 -54.5t56.5 -23.5t55.5 22.5t22.5 55.5q0 35 -22.5 57.5 t-55.5 22.5t-56.5 -22.5t-23.5 -57.5zM973 860q0 -35 22.5 -57.5t57.5 -22.5q33 0 56.5 22.5t23.5 57.5q0 33 -24 56.5t-56 23.5q-35 0 -57.5 -23.5t-22.5 -56.5zM1055 1032q0 -33 22.5 -56.5t57.5 -23.5q33 0 55 23.5t22 56.5t-22.5 56.5t-54.5 23.5q-35 0 -57.5 -23.5 t-22.5 -56.5zM1233 176q0 -33 22.5 -56.5t57.5 -23.5q33 0 56.5 23.5t23.5 56.5t-23.5 55.5t-56.5 22.5q-35 0 -57.5 -22.5t-22.5 -55.5zM1233 367q0 -35 22.5 -57.5t57.5 -22.5q33 0 56.5 22.5t23.5 57.5q0 33 -23.5 56t-56.5 23q-35 0 -57.5 -23.5t-22.5 -55.5zM1233 555 q0 -33 22.5 -55.5t57.5 -22.5q33 0 56.5 22.5t23.5 55.5t-23.5 56.5t-56.5 23.5q-35 0 -57.5 -23.5t-22.5 -56.5zM1233 745q0 -33 22.5 -56t57.5 -23q33 0 56.5 23t23.5 56q0 35 -23.5 56.5t-56.5 21.5q-35 0 -57.5 -21.5t-22.5 -56.5zM1233 936q0 -35 22.5 -57.5 t57.5 -22.5q33 0 56.5 22.5t23.5 57.5q0 33 -23.5 56.5t-56.5 23.5q-35 0 -57.5 -23.5t-22.5 -56.5zM1233 1124q0 -33 22.5 -55t57.5 -22q33 0 56.5 22t23.5 55t-23.5 56.5t-56.5 23.5q-35 0 -57.5 -23.5t-22.5 -56.5z" />
<glyph unicode="N" horiz-adv-x="1329" d="M76 0v1288h397l389 -645v645h391v-1288h-366l-416 618v-618h-395zM193 176q0 -33 23 -56.5t56 -23.5q35 0 56.5 23.5t21.5 56.5t-21.5 55.5t-56.5 22.5q-33 0 -56 -22.5t-23 -55.5zM193 367q0 -35 23 -57.5t56 -22.5q35 0 56.5 22.5t21.5 57.5q0 33 -21.5 56t-56.5 23 q-33 0 -56 -23.5t-23 -55.5zM193 555q0 -33 23.5 -55.5t55.5 -22.5q35 0 56.5 22.5t21.5 55.5t-21.5 56.5t-56.5 23.5q-33 0 -56 -23.5t-23 -56.5zM193 745q0 -33 23 -56t56 -23q35 0 56.5 23.5t21.5 55.5q0 35 -21.5 56.5t-56.5 21.5q-33 0 -56 -21.5t-23 -56.5zM193 936 q0 -35 23 -57.5t56 -22.5q35 0 56.5 22.5t21.5 57.5q0 33 -21.5 56.5t-56.5 23.5q-33 0 -56 -23.5t-23 -56.5zM193 1124q0 -33 23.5 -55t55.5 -22q35 0 56.5 22t21.5 55t-21.5 56.5t-56.5 23.5q-33 0 -56 -23.5t-23 -56.5zM356 1010q0 -31 23.5 -55.5t56.5 -24.5t55.5 23.5 t22.5 56.5t-22.5 56.5t-55.5 23.5t-56.5 -24t-23.5 -56zM457 834q0 -33 23.5 -56.5t56.5 -23.5t56 23.5t23 56.5t-23.5 55t-55.5 22q-33 0 -56.5 -22.5t-23.5 -54.5zM575 657q0 -35 23 -57t55 -22q33 0 56.5 22t23.5 57q0 31 -24.5 55.5t-55.5 24.5q-33 0 -55.5 -23.5 t-22.5 -56.5zM705 465q0 -35 23.5 -57.5t55.5 -22.5q35 0 57.5 22.5t22.5 57.5q0 33 -22.5 55.5t-57.5 22.5q-31 0 -55 -23.5t-24 -54.5zM823 303q0 -35 22.5 -57.5t55.5 -22.5t56.5 23.5t23.5 56.5t-22.5 55.5t-57.5 22.5q-33 0 -55.5 -22.5t-22.5 -55.5zM983 176 q0 -33 23.5 -56.5t56.5 -23.5q35 0 57.5 23.5t22.5 56.5t-22.5 55.5t-57.5 22.5q-33 0 -56.5 -22.5t-23.5 -55.5zM983 367q0 -35 23.5 -57.5t56.5 -22.5q35 0 57.5 22.5t22.5 57.5q0 33 -22.5 56t-57.5 23q-33 0 -56.5 -23.5t-23.5 -55.5zM983 555q0 -33 23.5 -55.5 t56.5 -22.5q35 0 57.5 22.5t22.5 55.5t-22.5 56.5t-57.5 23.5q-33 0 -56.5 -23.5t-23.5 -56.5zM983 745q0 -33 23.5 -56t56.5 -23q35 0 57.5 23t22.5 56q0 35 -22.5 56.5t-57.5 21.5q-33 0 -56.5 -21.5t-23.5 -56.5zM983 936q0 -35 23.5 -57.5t56.5 -22.5q35 0 57.5 22.5 t22.5 57.5q0 33 -22.5 56.5t-57.5 23.5q-33 0 -56.5 -23.5t-23.5 -56.5zM983 1124q0 -33 23.5 -55t56.5 -22q35 0 57.5 22t22.5 55t-22.5 56.5t-57.5 23.5q-33 0 -56.5 -23.5t-23.5 -56.5z" />
<glyph unicode="O" horiz-adv-x="1466" d="M53 643q0 147 51.5 270t142.5 212t216 138.5t270 49.5q143 0 267 -50.5t216.5 -139.5t144.5 -212t52 -268t-52 -267t-143.5 -211t-216 -139.5t-268.5 -50.5q-145 0 -269 50.5t-215 139.5t-143.5 211t-52.5 267zM176 643q0 -33 21.5 -55.5t56.5 -22.5q33 0 56.5 22.5 t23.5 55.5q0 35 -23.5 57.5t-56.5 22.5q-35 0 -56.5 -22.5t-21.5 -57.5zM201 461q0 -31 24.5 -55.5t55.5 -24.5q33 0 56 23.5t23 56.5q0 35 -23.5 57.5t-55.5 22.5q-33 0 -56.5 -22.5t-23.5 -57.5zM205 827q0 -31 23.5 -55t56.5 -24t55 23.5t22 55.5q0 35 -22.5 57.5 t-54.5 22.5q-33 0 -56.5 -22.5t-23.5 -57.5zM303 303q0 -33 22.5 -56.5t55.5 -23.5t56.5 24.5t23.5 55.5q0 33 -23.5 55.5t-56.5 22.5t-55.5 -22.5t-22.5 -55.5zM303 983q0 -33 22.5 -55.5t55.5 -22.5t56.5 22.5t23.5 55.5t-23.5 56.5t-56.5 23.5t-55.5 -23.5t-22.5 -56.5z M453 643q0 -147 75.5 -226t204.5 -79q125 0 203 79t78 226t-78 227t-203 80q-129 0 -204.5 -78.5t-75.5 -228.5zM459 201q0 -33 22.5 -55.5t57.5 -22.5q31 0 55 22.5t24 55.5t-23.5 56.5t-55.5 23.5q-35 0 -57.5 -24t-22.5 -56zM459 1085q0 -33 22.5 -56t57.5 -23 q31 0 55 24t24 55q0 33 -23.5 56.5t-55.5 23.5q-35 0 -57.5 -23.5t-22.5 -56.5zM653 156q0 -33 23.5 -56.5t56.5 -23.5q35 0 56.5 23.5t21.5 56.5t-21.5 55t-56.5 22q-33 0 -56.5 -22.5t-23.5 -54.5zM653 1135q0 -35 23.5 -57.5t56.5 -22.5q35 0 56.5 22.5t21.5 57.5 q0 33 -21.5 55t-56.5 22q-31 0 -55.5 -23.5t-24.5 -53.5zM848 201q0 -33 24.5 -55.5t55.5 -22.5q35 0 56.5 22.5t21.5 55.5t-21.5 56.5t-56.5 23.5q-33 0 -56.5 -24t-23.5 -56zM848 1085q0 -31 24.5 -55t55.5 -24q35 0 56.5 23.5t21.5 55.5q0 33 -21.5 56.5t-56.5 23.5 q-33 0 -56.5 -23.5t-23.5 -56.5zM1006 303q0 -31 23.5 -55.5t53.5 -24.5q33 0 56.5 23.5t23.5 56.5t-23.5 55.5t-56.5 22.5t-55 -22.5t-22 -55.5zM1006 983q0 -33 23.5 -55.5t53.5 -22.5q33 0 56.5 22.5t23.5 55.5t-23.5 56.5t-56.5 23.5t-55 -23.5t-22 -56.5zM1102 827 q0 -33 23.5 -56t56.5 -23q31 0 55.5 24t24.5 55q0 35 -24 57.5t-56 22.5q-33 0 -56.5 -22.5t-23.5 -57.5zM1106 461q0 -33 23.5 -56.5t56.5 -23.5q31 0 54.5 24.5t23.5 55.5q0 35 -22.5 57.5t-55.5 22.5t-56.5 -22.5t-23.5 -57.5zM1133 643q0 -33 22.5 -55.5t54.5 -22.5 q35 0 57.5 22.5t22.5 55.5q0 35 -22.5 57.5t-57.5 22.5q-33 0 -55 -22.5t-22 -57.5z" />
<glyph unicode="P" horiz-adv-x="1038" d="M76 0v1288h469q104 0 190 -30.5t147.5 -89t95.5 -140.5t34 -186q0 -217 -122 -335t-358 -118h-57v-389h-399zM193 176q0 -33 23 -56.5t56 -23.5q35 0 56.5 23.5t21.5 56.5t-21.5 55.5t-56.5 22.5q-33 0 -56 -22.5t-23 -55.5zM193 367q0 -35 23 -57.5t56 -22.5 q35 0 56.5 22.5t21.5 57.5q0 33 -21.5 56t-56.5 23q-33 0 -56 -23.5t-23 -55.5zM193 555q0 -33 23.5 -55.5t55.5 -22.5q35 0 56.5 22.5t21.5 55.5t-21.5 56.5t-56.5 23.5q-33 0 -56 -23.5t-23 -56.5zM193 745q0 -33 23 -56t56 -23q35 0 56.5 23.5t21.5 55.5q0 35 -21.5 56.5 t-56.5 21.5q-33 0 -56 -21.5t-23 -56.5zM193 936q0 -35 23 -57.5t56 -22.5q35 0 56.5 22.5t21.5 57.5q0 33 -21.5 56.5t-56.5 23.5q-33 0 -56 -23.5t-23 -56.5zM193 1124q0 -33 23.5 -55t55.5 -22q35 0 56.5 22t21.5 55t-21.5 56.5t-56.5 23.5q-33 0 -56 -23.5t-23 -56.5z M371 1130q0 -33 22.5 -56t55.5 -23t56 23t23 54q0 33 -22.5 55.5t-56.5 22.5q-33 0 -55.5 -21.5t-22.5 -54.5zM377 565q0 -35 23.5 -57.5t56.5 -22.5t55.5 22.5t22.5 57.5q0 33 -23 55.5t-55 22.5q-33 0 -56.5 -22.5t-23.5 -55.5zM475 725q76 2 104.5 32.5t28.5 88.5 q0 59 -28.5 87t-104.5 28v-236zM543 1118q0 -35 22.5 -57.5t57.5 -22.5q33 0 56 22.5t23 57.5q0 31 -24.5 55.5t-54.5 24.5q-35 0 -57.5 -23.5t-22.5 -56.5zM551 582q0 -33 23.5 -56.5t54.5 -23.5q33 0 56.5 22.5t23.5 57.5q0 33 -23.5 56.5t-56.5 23.5t-55.5 -24t-22.5 -56 zM684 1014q0 -35 23.5 -57.5t56.5 -22.5t56.5 23.5t23.5 56.5t-22.5 55.5t-57.5 22.5q-33 0 -56.5 -22.5t-23.5 -55.5zM705 678q0 -35 22.5 -57.5t54.5 -22.5q35 0 57.5 22.5t22.5 57.5q0 33 -22.5 56.5t-57.5 23.5q-31 0 -54 -24.5t-23 -55.5zM725 850q0 -33 22.5 -57.5 t55.5 -24.5t56.5 24.5t23.5 55.5q0 33 -22.5 56.5t-57.5 23.5q-33 0 -55.5 -22.5t-22.5 -55.5z" />
<glyph unicode="Q" horiz-adv-x="1460" d="M51 643q0 147 51.5 270t142.5 212t216 138.5t270 49.5q143 0 267 -50.5t216.5 -139.5t144.5 -212t52 -268q0 -211 -113 -379l95 -96l-195 -197l-104 101q-164 -96 -363 -97q-145 0 -269 50.5t-215 139.5t-143.5 211t-52.5 267zM186 643q0 -33 21.5 -55.5t56.5 -22.5 q33 0 56.5 22.5t23.5 55.5q0 35 -23.5 57.5t-56.5 22.5q-35 0 -56.5 -22.5t-21.5 -57.5zM217 465q0 -31 23.5 -55.5t54.5 -24.5q33 0 56.5 23.5t23.5 56.5q0 35 -23.5 56.5t-56.5 21.5t-55.5 -21.5t-22.5 -56.5zM217 821q0 -31 23.5 -55.5t54.5 -24.5q33 0 56.5 23.5 t23.5 56.5q0 35 -23.5 56.5t-56.5 21.5t-55.5 -21.5t-22.5 -56.5zM317 315q0 -33 24 -56t56 -23q31 0 55.5 24t24.5 55q0 33 -23.5 55.5t-56.5 22.5t-56.5 -22.5t-23.5 -55.5zM317 973q0 -33 24 -56.5t56 -23.5q31 0 55.5 23.5t24.5 56.5t-23.5 55.5t-56.5 22.5t-56.5 -22.5 t-23.5 -55.5zM451 643q0 -68 20.5 -123t58 -96t89 -63.5t112.5 -22.5q47 0 84 12l-84 82l203 203l70 -70q4 18 6 39t2 39q0 68 -20.5 124t-57.5 97t-89 63.5t-114 22.5q-61 0 -112.5 -22.5t-89 -63.5t-58 -97t-20.5 -124zM463 201q0 -33 22.5 -55.5t57.5 -22.5 q31 0 54.5 22.5t23.5 55.5t-23 56.5t-55 23.5q-35 0 -57.5 -24t-22.5 -56zM463 1085q0 -33 22.5 -56t57.5 -23q31 0 54.5 24.5t23.5 54.5q0 33 -23 56.5t-55 23.5q-35 0 -57.5 -23.5t-22.5 -56.5zM643 156q0 -33 23.5 -56.5t56.5 -23.5q35 0 56.5 23.5t21.5 56.5t-21.5 55 t-56.5 22q-33 0 -56.5 -22.5t-23.5 -54.5zM643 1135q0 -35 23.5 -57.5t56.5 -22.5q35 0 56.5 22.5t21.5 57.5q0 33 -21.5 55t-56.5 22q-31 0 -55.5 -23.5t-24.5 -53.5zM844 201q0 -33 22.5 -55.5t55.5 -22.5t56 22.5t23 55.5t-22.5 56.5t-56.5 23.5q-33 0 -55.5 -24 t-22.5 -56zM844 1085q0 -33 22.5 -56t55.5 -23t56 24t23 55q0 33 -22.5 56.5t-56.5 23.5q-33 0 -55.5 -23.5t-22.5 -56.5zM856 446q0 -35 22.5 -57t57.5 -22q33 0 56.5 22t23.5 57q0 33 -23.5 55.5t-56.5 22.5t-56.5 -23.5t-23.5 -54.5zM987 315q0 -33 23.5 -56t56.5 -23 q31 0 54.5 24.5t23.5 54.5q0 33 -22.5 55.5t-55.5 22.5t-56.5 -22.5t-23.5 -55.5zM987 973q0 -33 23.5 -56.5t56.5 -23.5q31 0 54.5 23.5t23.5 56.5t-22.5 55.5t-55.5 22.5t-56.5 -22.5t-23.5 -55.5zM1087 465q0 -33 23.5 -56.5t56.5 -23.5t55.5 23.5t22.5 56.5 q0 35 -22.5 56.5t-55.5 21.5t-56.5 -21.5t-23.5 -56.5zM1087 821q0 -33 23.5 -56.5t56.5 -23.5t55.5 23.5t22.5 56.5q0 35 -22.5 56.5t-55.5 21.5t-56.5 -21.5t-23.5 -56.5zM1120 643q0 -33 22.5 -55.5t55.5 -22.5q35 0 57.5 22.5t22.5 55.5t-23.5 56.5t-56.5 23.5 t-55.5 -22.5t-22.5 -57.5zM1122 174q0 -33 22.5 -56.5t55.5 -23.5t56.5 24.5t23.5 55.5q0 35 -22.5 56.5t-57.5 21.5q-33 0 -55.5 -21.5t-22.5 -56.5z" />
<glyph unicode="R" horiz-adv-x="1167" d="M76 0v1288h489q111 0 202 -30.5t155.5 -86t99.5 -135.5t35 -178q0 -135 -63.5 -228t-174.5 -126l326 -504h-483l-187 360v-360h-399zM193 176q0 -33 23 -56.5t56 -23.5q35 0 56.5 23.5t21.5 56.5t-21.5 55.5t-56.5 22.5q-33 0 -56 -22.5t-23 -55.5zM193 367 q0 -35 23 -57.5t56 -22.5q35 0 56.5 22.5t21.5 57.5q0 33 -21.5 56t-56.5 23q-33 0 -56 -23.5t-23 -55.5zM193 555q0 -33 23.5 -55.5t55.5 -22.5q35 0 56.5 22.5t21.5 55.5t-21.5 56.5t-56.5 23.5q-33 0 -56 -23.5t-23 -56.5zM193 745q0 -33 23 -56t56 -23q35 0 56.5 23.5 t21.5 55.5q0 35 -21.5 56.5t-56.5 21.5q-33 0 -56 -21.5t-23 -56.5zM193 936q0 -35 23 -57.5t56 -22.5q35 0 56.5 22.5t21.5 57.5q0 33 -21.5 56.5t-56.5 23.5q-33 0 -56 -23.5t-23 -56.5zM193 1124q0 -33 23.5 -55t55.5 -22q35 0 56.5 22t21.5 55t-21.5 56.5t-56.5 23.5 q-33 0 -56 -23.5t-23 -56.5zM365 565q0 -35 22 -57.5t57 -22.5q33 0 55.5 22.5t22.5 57.5q0 33 -22.5 55.5t-55.5 22.5q-35 0 -57 -22.5t-22 -55.5zM385 1130q0 -33 23.5 -56t56.5 -23t55.5 23t22.5 54q0 33 -21.5 55.5t-56.5 22.5q-33 0 -56.5 -21.5t-23.5 -54.5zM475 725 h43q133 0 133 121q0 115 -141 115h-35v-236zM551 565q0 -33 22.5 -56.5t55.5 -23.5t56.5 23.5t23.5 56.5q0 35 -23.5 56.5t-56.5 21.5q-31 0 -54.5 -22.5t-23.5 -55.5zM575 1118q0 -35 23 -57.5t55 -22.5q33 0 56.5 22.5t23.5 57.5q0 31 -24.5 55.5t-55.5 24.5 q-33 0 -55.5 -23.5t-22.5 -56.5zM627 367q0 -33 22.5 -56.5t55.5 -23.5q35 0 57 23.5t22 56.5q0 35 -22.5 57t-56.5 22q-31 0 -54.5 -23.5t-23.5 -55.5zM700 672q0 -33 22.5 -56.5t57.5 -23.5q33 0 55.5 23.5t22.5 56.5t-22.5 55.5t-55.5 22.5t-56.5 -24t-23.5 -54zM723 172 q0 -33 21.5 -56.5t56.5 -23.5q33 0 56.5 23.5t23.5 56.5q0 35 -23.5 57.5t-56.5 22.5t-55.5 -23.5t-22.5 -56.5zM733 1014q0 -35 22.5 -57.5t55.5 -22.5t56.5 23.5t23.5 56.5t-23.5 55.5t-56.5 22.5t-55.5 -22.5t-22.5 -55.5zM772 842q0 -33 23.5 -56.5t56.5 -23.5 q31 0 54.5 23.5t23.5 56.5t-22.5 55.5t-55.5 22.5t-56.5 -21.5t-23.5 -56.5z" />
<glyph unicode="S" horiz-adv-x="1058" d="M57 901q0 100 36 177t98.5 129.5t144.5 79t174 26.5q80 0 152.5 -15.5t132 -52.5t100.5 -95t57 -144l-334 -127q-8 45 -29.5 82.5t-76.5 37.5q-33 0 -55.5 -17t-22.5 -48q0 -29 17.5 -47.5t42 -30.5t52 -20.5t50.5 -14.5q70 -23 142.5 -52.5t127.5 -76.5q66 -57 103 -131 t37 -155q0 -106 -39 -187.5t-106.5 -134.5t-156 -81t-186.5 -28q-80 0 -155.5 18.5t-137 58.5t-102.5 102.5t-53 150.5l350 111q0 -49 32.5 -75t79.5 -26q33 0 58.5 14.5t25.5 51.5q0 20 -17 36.5t-42 29t-52.5 22.5t-47.5 20q-80 33 -155 64t-134 90q-51 49 -81 117.5 t-30 140.5zM172 907q0 -33 23.5 -56.5t56.5 -23.5q35 0 56.5 23.5t21.5 56.5t-21.5 55.5t-56.5 22.5q-33 0 -56.5 -22.5t-23.5 -55.5zM250 1092q0 -33 23.5 -56.5t54.5 -23.5q33 0 56.5 23.5t23.5 56.5t-24 55t-56 22q-33 0 -55.5 -22.5t-22.5 -54.5zM252 236 q0 -31 21.5 -55.5t54.5 -24.5t57.5 23.5t24.5 56.5q0 35 -24 57t-56 22q-33 0 -55.5 -23.5t-22.5 -55.5zM270 743q0 -33 23.5 -56t56.5 -23q35 0 56.5 23.5t21.5 55.5q0 35 -21.5 57.5t-56.5 22.5q-33 0 -56.5 -22.5t-23.5 -57.5zM442 1151q0 -31 23.5 -55.5t56.5 -24.5 t55.5 23.5t22.5 56.5q0 35 -22.5 57.5t-55.5 22.5q-35 0 -57.5 -22.5t-22.5 -57.5zM446 162q0 -35 23.5 -57.5t58.5 -22.5q33 0 55.5 22.5t22.5 57.5q0 33 -23.5 56.5t-56.5 23.5t-56.5 -24.5t-23.5 -55.5zM453 651q0 -33 23 -56.5t56 -23.5q31 0 54.5 23.5t23.5 56.5 t-22.5 55.5t-55.5 22.5t-56 -22.5t-23 -55.5zM627 567q0 -33 22.5 -55.5t55.5 -22.5t56 22.5t23 55.5q0 31 -23.5 55.5t-55.5 24.5q-33 0 -55.5 -23.5t-22.5 -56.5zM633 217q0 -33 24.5 -56.5t57.5 -23.5t54.5 23.5t21.5 56.5q0 35 -21.5 56.5t-56.5 21.5q-31 0 -55.5 -22.5 t-24.5 -55.5zM633 1092q0 -33 23.5 -55.5t56.5 -22.5t55.5 21.5t22.5 56.5q0 33 -21.5 57.5t-54.5 24.5q-35 0 -58.5 -25t-23.5 -57zM725 399q0 -33 23.5 -56.5t56.5 -23.5q31 0 55.5 24.5t24.5 55.5q0 33 -23.5 56.5t-56.5 23.5t-56.5 -23.5t-23.5 -56.5z" />
<glyph unicode="T" horiz-adv-x="1138" d="M35 952v336h1069v-336h-336v-952h-397v952h-336zM113 1124q0 -33 23.5 -55t56.5 -22t56 22t23 55t-23.5 56.5t-55.5 23.5q-33 0 -56.5 -23.5t-23.5 -56.5zM303 1124q0 -33 22.5 -55t55.5 -22q35 0 57.5 22t22.5 55t-22.5 56.5t-57.5 23.5q-33 0 -55.5 -23.5t-22.5 -56.5z M494 176q0 -33 22 -56.5t57 -23.5q33 0 55.5 23.5t22.5 56.5t-22.5 55.5t-55.5 22.5q-35 0 -57 -22.5t-22 -55.5zM494 367q0 -35 22 -57.5t57 -22.5q33 0 55.5 22.5t22.5 57.5q0 33 -22.5 56t-55.5 23q-35 0 -57 -23.5t-22 -55.5zM494 555q0 -33 22.5 -55.5t56.5 -22.5 q33 0 55.5 22.5t22.5 55.5t-22.5 56.5t-55.5 23.5q-35 0 -57 -23.5t-22 -56.5zM494 745q0 -33 22 -56t57 -23q33 0 55.5 23.5t22.5 55.5q0 35 -22.5 56.5t-55.5 21.5q-35 0 -57 -21.5t-22 -56.5zM494 936q0 -35 22 -57.5t57 -22.5q33 0 55.5 22.5t22.5 57.5q0 33 -22.5 56.5 t-55.5 23.5q-35 0 -57 -23.5t-22 -56.5zM494 1124q0 -33 22.5 -55t56.5 -22q33 0 55.5 22t22.5 55t-22.5 56.5t-55.5 23.5q-35 0 -57 -23.5t-22 -56.5zM682 1124q0 -33 23.5 -55t56.5 -22t56.5 22t23.5 55t-23.5 56.5t-56.5 23.5t-56.5 -23.5t-23.5 -56.5zM874 1124 q0 -33 22 -55t56 -22q33 0 56.5 22t23.5 55t-23.5 56.5t-56.5 23.5q-35 0 -56.5 -23.5t-21.5 -56.5z" />
<glyph unicode="U" horiz-adv-x="1214" d="M68 475v813h399v-778q0 -92 31.5 -133t107.5 -41q78 0 110 41t32 133v778h397v-813q0 -117 -38 -210t-107.5 -157.5t-169 -98.5t-224.5 -34q-123 0 -223 34t-170 98.5t-107.5 157.5t-37.5 210zM176 555q0 -33 22.5 -55.5t55.5 -22.5t56.5 22.5t23.5 55.5t-23.5 56.5 t-56.5 23.5t-55.5 -23.5t-22.5 -56.5zM176 745q0 -33 22.5 -56t55.5 -23t56.5 23t23.5 56q0 35 -23.5 56.5t-56.5 21.5t-55.5 -21.5t-22.5 -56.5zM176 936q0 -35 22.5 -57.5t55.5 -22.5t56.5 22.5t23.5 57.5q0 33 -23.5 56.5t-56.5 23.5t-55.5 -23.5t-22.5 -56.5zM176 1124 q0 -33 22.5 -55t55.5 -22t56.5 22t23.5 55t-23.5 56.5t-56.5 23.5t-55.5 -23.5t-22.5 -56.5zM221 367q0 -35 22.5 -57.5t57.5 -22.5q33 0 56.5 22.5t23.5 57.5q0 33 -23.5 56t-56.5 23q-35 0 -57.5 -23.5t-22.5 -55.5zM340 211q0 -33 22.5 -55.5t57.5 -22.5q31 0 55.5 23.5 t24.5 54.5q0 35 -23.5 57.5t-56.5 22.5q-35 0 -57.5 -22.5t-22.5 -57.5zM532 164q0 -35 23 -57.5t55 -22.5q33 0 56.5 22.5t23.5 57.5q0 31 -24.5 54.5t-55.5 23.5q-33 0 -55.5 -22.5t-22.5 -55.5zM709 211q0 -33 23.5 -55.5t55.5 -22.5q33 0 55.5 22.5t22.5 55.5 q0 35 -22.5 57.5t-55.5 22.5t-56 -22.5t-23 -57.5zM827 367q0 -35 23.5 -57.5t56.5 -22.5t55.5 22.5t22.5 57.5q0 33 -22.5 56t-55.5 23t-56.5 -23.5t-23.5 -55.5zM874 555q0 -33 22 -55.5t56 -22.5q33 0 56.5 22.5t23.5 55.5t-23.5 56.5t-56.5 23.5q-35 0 -56.5 -23.5 t-21.5 -56.5zM874 745q0 -33 22 -56t56 -23q33 0 56.5 23t23.5 56q0 35 -23.5 56.5t-56.5 21.5q-35 0 -56.5 -21.5t-21.5 -56.5zM874 936q0 -35 22 -57.5t56 -22.5q33 0 56.5 22.5t23.5 57.5q0 33 -23.5 56.5t-56.5 23.5q-35 0 -56.5 -23.5t-21.5 -56.5zM874 1124 q0 -33 22 -55t56 -22q33 0 56.5 22t23.5 55t-23.5 56.5t-56.5 23.5q-35 0 -56.5 -23.5t-21.5 -56.5z" />
<glyph unicode="V" horiz-adv-x="1200" d="M12 1288h426l170 -692l172 692h408l-408 -1288h-360zM186 1145q0 -33 22.5 -56.5t55.5 -23.5q35 0 57.5 23.5t22.5 56.5t-22.5 55.5t-57.5 22.5q-33 0 -55.5 -22.5t-22.5 -55.5zM242 979q0 -33 22.5 -56.5t57.5 -23.5q31 0 55 24.5t24 55.5q0 35 -23.5 57.5t-55.5 22.5 q-35 0 -57.5 -22.5t-22.5 -57.5zM297 815q0 -35 22.5 -56.5t57.5 -21.5q31 0 55.5 22.5t24.5 55.5t-23.5 56.5t-56.5 23.5q-35 0 -57.5 -23.5t-22.5 -56.5zM346 651q0 -33 23.5 -56.5t54.5 -23.5q35 0 57.5 23.5t22.5 56.5t-22.5 55.5t-57.5 22.5q-33 0 -55.5 -22.5 t-22.5 -55.5zM399 485q0 -31 23.5 -55t56.5 -24t55.5 23.5t22.5 55.5q0 35 -22.5 57.5t-55.5 22.5q-35 0 -57.5 -22.5t-22.5 -57.5zM442 322q0 -35 23.5 -57.5t56.5 -22.5q35 0 56.5 22.5t21.5 57.5q0 31 -18.5 56t-49.5 25q-35 0 -62.5 -22.5t-27.5 -58.5zM518 156 q0 -33 21.5 -55.5t56.5 -22.5q33 0 56.5 23.5t23.5 54.5q0 33 -23.5 56.5t-56.5 23.5q-35 0 -56.5 -24t-21.5 -56zM618 322q0 -35 22 -57.5t56 -22.5q31 0 55.5 23.5t24.5 56.5q0 37 -27.5 59t-64.5 22q-29 0 -47.5 -25.5t-18.5 -55.5zM662 485q0 -33 22.5 -56t54.5 -23 q33 0 56.5 24t23.5 55q0 35 -22.5 57.5t-57.5 22.5q-33 0 -55 -22.5t-22 -57.5zM713 651q0 -33 22.5 -56.5t55.5 -23.5t56 23.5t23 56.5t-23.5 55.5t-55.5 22.5q-35 0 -56.5 -22.5t-21.5 -55.5zM762 815q0 -33 24.5 -55.5t55.5 -22.5q35 0 56.5 21.5t21.5 56.5 q0 33 -21.5 56.5t-56.5 23.5q-33 0 -56.5 -23.5t-23.5 -56.5zM817 979q0 -33 23.5 -56.5t56.5 -23.5q35 0 56.5 23.5t21.5 56.5q0 35 -21.5 57.5t-56.5 22.5q-33 0 -56.5 -22.5t-23.5 -57.5zM874 1145q0 -33 22 -56.5t56 -23.5q33 0 56.5 23.5t23.5 56.5t-23.5 55.5 t-56.5 22.5q-35 0 -56.5 -22.5t-21.5 -55.5z" />
<glyph unicode="W" horiz-adv-x="1898" d="M12 1288h426l170 -692l174 692h355l170 -692l172 692h407l-407 -1288h-361l-164 625l-172 -625h-362zM188 1145q0 -33 21.5 -56.5t56.5 -23.5q33 0 56.5 23.5t23.5 56.5t-23.5 55.5t-56.5 22.5q-35 0 -56.5 -22.5t-21.5 -55.5zM238 979q0 -33 22.5 -56.5t56.5 -23.5 q31 0 55.5 24.5t24.5 55.5q0 35 -23.5 57.5t-56.5 22.5q-35 0 -57 -22.5t-22 -57.5zM289 815q0 -35 23.5 -56.5t56.5 -21.5q31 0 55.5 22.5t24.5 55.5t-24 56.5t-56 23.5q-33 0 -56.5 -23.5t-23.5 -56.5zM334 651q0 -33 22.5 -56.5t55.5 -23.5t56.5 23.5t23.5 56.5t-24 55.5 t-56 22.5q-35 0 -56.5 -22.5t-21.5 -55.5zM379 481q0 -31 23.5 -55.5t56.5 -24.5t55.5 24t22.5 56q0 35 -22.5 57.5t-55.5 22.5t-56.5 -22.5t-23.5 -57.5zM434 317q0 -33 22.5 -56t55.5 -23q35 0 57.5 23t22.5 56t-22.5 55.5t-57.5 22.5q-33 0 -55.5 -22.5t-22.5 -55.5z M524 164q0 -33 22.5 -55.5t55.5 -22.5t56.5 23.5t23.5 54.5q0 33 -23.5 56.5t-56.5 23.5t-55.5 -23.5t-22.5 -56.5zM612 317q0 -33 22.5 -56t55.5 -23q35 0 57.5 23t22.5 56t-22.5 55.5t-57.5 22.5q-33 0 -55.5 -22.5t-22.5 -55.5zM664 483q0 -33 22.5 -56.5t56.5 -23.5 q31 0 55.5 24.5t24.5 55.5q0 35 -23.5 57.5t-56.5 22.5q-35 0 -57 -22.5t-22 -57.5zM713 651q0 -33 23.5 -56.5t54.5 -23.5q33 0 56 23.5t23 56.5t-23.5 55.5t-55.5 22.5q-33 0 -55.5 -22.5t-22.5 -55.5zM756 817q0 -33 22.5 -56.5t55.5 -23.5q35 0 57 23.5t22 56.5 t-22.5 55.5t-56.5 22.5q-33 0 -55.5 -22.5t-22.5 -55.5zM795 987q0 -33 24.5 -55.5t54.5 -22.5q35 0 56.5 22.5t21.5 55.5t-21.5 56.5t-56.5 23.5q-33 0 -56 -23.5t-23 -56.5zM879 1145q0 -33 22.5 -56.5t56.5 -23.5q33 0 55.5 23.5t22.5 56.5t-22.5 55.5t-55.5 22.5 q-35 0 -57 -22.5t-22 -55.5zM963 987q0 -33 21.5 -55.5t55.5 -22.5q31 0 55.5 22.5t24.5 55.5t-23.5 56.5t-56.5 23.5q-35 0 -56 -23.5t-21 -56.5zM1001 817q0 -33 23 -56.5t57 -23.5q33 0 55.5 23.5t22.5 56.5t-22.5 55.5t-55.5 22.5q-35 0 -57.5 -22.5t-22.5 -55.5z M1044 651q0 -33 24 -56.5t56 -23.5q31 0 54.5 23.5t23.5 56.5t-22.5 55.5t-55.5 22.5t-56.5 -22.5t-23.5 -55.5zM1092 483q0 -31 24.5 -55.5t54.5 -24.5q35 0 57.5 24t22.5 56q0 35 -22.5 57.5t-57.5 22.5q-33 0 -56 -22.5t-23 -57.5zM1145 317q0 -33 22.5 -56t57.5 -23 q33 0 55.5 23.5t22.5 55.5q0 33 -23 55.5t-55 22.5q-35 0 -57.5 -22.5t-22.5 -55.5zM1233 164q0 -31 23.5 -54.5t56.5 -23.5t55.5 22.5t22.5 55.5t-22.5 56.5t-55.5 23.5t-56.5 -23.5t-23.5 -56.5zM1323 317q0 -33 22.5 -56t57.5 -23q33 0 55.5 23.5t22.5 55.5 q0 33 -22.5 55.5t-55.5 22.5q-35 0 -57.5 -22.5t-22.5 -55.5zM1378 481q0 -33 22.5 -56.5t55.5 -23.5t56.5 25t23.5 55q0 35 -23.5 57.5t-56.5 22.5t-55.5 -22.5t-22.5 -57.5zM1423 651q0 -33 23.5 -56.5t56.5 -23.5t55.5 23.5t22.5 56.5t-21.5 55.5t-56.5 22.5 q-33 0 -56.5 -22.5t-23.5 -55.5zM1466 815q0 -33 25 -55.5t55 -22.5q33 0 56.5 21.5t23.5 56.5q0 33 -23.5 56.5t-56.5 23.5t-56.5 -23.5t-23.5 -56.5zM1518 979q0 -31 24.5 -55.5t54.5 -24.5q35 0 57.5 23.5t22.5 56.5q0 35 -22.5 57.5t-57.5 22.5q-33 0 -56 -22.5 t-23 -57.5zM1569 1145q0 -33 23.5 -56.5t56.5 -23.5q35 0 56 23.5t21 56.5t-21.5 55.5t-55.5 22.5q-33 0 -56.5 -22.5t-23.5 -55.5z" />
<glyph unicode="X" horiz-adv-x="1273" d="M8 0l393 688l-350 600h461l133 -276l129 276h457l-354 -600l391 -688h-465l-170 356l-166 -356h-459zM254 168q0 -35 22.5 -56.5t57.5 -21.5q33 0 56.5 21.5t23.5 56.5q0 33 -23.5 56.5t-56.5 23.5q-35 0 -57.5 -23.5t-22.5 -56.5zM264 1155q0 -35 22.5 -57.5t55.5 -22.5 t56.5 22.5t23.5 57.5q0 33 -23.5 55.5t-56.5 22.5t-55.5 -22.5t-22.5 -55.5zM346 332q0 -33 22.5 -56.5t55.5 -23.5t56.5 24.5t23.5 55.5q0 35 -23.5 57.5t-56.5 22.5t-55.5 -22.5t-22.5 -57.5zM358 991q0 -33 22.5 -56.5t55.5 -23.5q35 0 57.5 23.5t22.5 56.5t-22.5 55.5 t-57.5 22.5q-33 0 -55.5 -22.5t-22.5 -55.5zM453 502q0 -35 23.5 -56.5t55.5 -21.5q33 0 55.5 22.5t22.5 55.5t-21.5 56.5t-56.5 23.5q-33 0 -56 -23.5t-23 -56.5zM469 827q0 -33 22.5 -56t57.5 -23q33 0 56.5 23t23.5 56t-23.5 56.5t-56.5 23.5q-35 0 -57.5 -23.5 t-22.5 -56.5zM543 664q0 -33 22.5 -55.5t55.5 -22.5t56 22.5t23 55.5q0 35 -23.5 57t-55.5 22q-33 0 -55.5 -22.5t-22.5 -56.5zM651 827q0 -33 22.5 -56t55.5 -23q35 0 57.5 23t22.5 56t-22.5 56.5t-57.5 23.5q-33 0 -55.5 -23.5t-22.5 -56.5zM666 502q0 -33 23.5 -55.5 t55.5 -22.5q33 0 55.5 21.5t22.5 56.5q0 33 -22.5 56.5t-55.5 23.5q-35 0 -57 -23.5t-22 -56.5zM758 991q0 -33 23.5 -56.5t56.5 -23.5t56.5 23.5t23.5 56.5t-24 55.5t-56 22.5q-33 0 -56.5 -22.5t-23.5 -55.5zM768 332q0 -33 23.5 -56.5t56.5 -23.5q35 0 57.5 23.5 t22.5 56.5q0 35 -22.5 57.5t-57.5 22.5q-33 0 -56.5 -22.5t-23.5 -57.5zM848 1155q0 -35 23.5 -57.5t56.5 -22.5q35 0 56.5 22.5t21.5 57.5q0 31 -22.5 54.5t-55.5 23.5t-56.5 -22.5t-23.5 -55.5zM852 168q0 -35 22.5 -56.5t55.5 -21.5q35 0 57.5 21.5t22.5 56.5 q0 33 -22.5 56.5t-57.5 23.5q-33 0 -55.5 -23.5t-22.5 -56.5z" />
<glyph unicode="Y" horiz-adv-x="1241" d="M2 1288h455l164 -348l163 348h455l-418 -715v-573h-401v573zM231 1155q0 -35 22.5 -57.5t55.5 -22.5t56.5 22.5t23.5 57.5q0 31 -24.5 54.5t-55.5 23.5q-33 0 -55.5 -22.5t-22.5 -55.5zM326 975q0 -35 22.5 -56.5t54.5 -21.5q33 0 56.5 21.5t23.5 56.5q0 33 -23.5 56.5 t-56.5 23.5t-55 -23.5t-22 -56.5zM418 797q0 -35 24.5 -57.5t57.5 -22.5q35 0 55 22.5t20 57.5q0 33 -21.5 56.5t-55.5 23.5q-33 0 -56.5 -24t-23.5 -56zM541 188q0 -33 22.5 -55t54.5 -22q35 0 57.5 22t22.5 55q0 35 -22.5 57.5t-57.5 22.5q-33 0 -55 -22.5t-22 -57.5z M541 395q0 -33 22.5 -55.5t54.5 -22.5q35 0 57.5 22.5t22.5 55.5t-22.5 56.5t-57.5 23.5q-33 0 -55 -23.5t-22 -56.5zM541 618q0 -35 22.5 -57t54.5 -22q35 0 57.5 22t22.5 57q0 33 -22.5 55.5t-57.5 22.5q-33 0 -55 -22.5t-22 -55.5zM666 797q0 -35 23 -57.5t56 -22.5 t55.5 22.5t22.5 57.5q0 33 -22.5 56.5t-55.5 23.5t-56 -24t-23 -56zM772 975q0 -35 23.5 -56.5t56.5 -21.5q35 0 56.5 21.5t21.5 56.5q0 33 -21.5 56.5t-56.5 23.5q-33 0 -56.5 -23.5t-23.5 -56.5zM864 1155q0 -35 22.5 -57.5t55.5 -22.5t56.5 22.5t23.5 57.5 q0 31 -24.5 54.5t-55.5 23.5q-33 0 -55.5 -22.5t-22.5 -55.5z" />
<glyph unicode="Z" horiz-adv-x="1159" d="M18 0l510 961h-473v327h1086l-508 -950h448v-338h-1063zM143 1106q0 -33 22.5 -56.5t55.5 -23.5q35 0 57.5 23.5t22.5 56.5t-22.5 56.5t-57.5 23.5q-31 0 -54.5 -24.5t-23.5 -55.5zM256 182q0 -35 22.5 -57.5t57.5 -22.5q31 0 54.5 24t23.5 56q0 33 -22.5 56.5 t-55.5 23.5q-35 0 -57.5 -23.5t-22.5 -56.5zM334 1106q0 -33 22.5 -56.5t57.5 -23.5q33 0 55.5 23.5t22.5 56.5t-23 56.5t-55 23.5q-33 0 -56.5 -24.5t-23.5 -55.5zM354 379q0 -33 22.5 -56.5t57.5 -23.5q33 0 55.5 23.5t22.5 56.5q0 31 -23.5 54.5t-54.5 23.5 q-35 0 -57.5 -22.5t-22.5 -55.5zM446 182q0 -35 23 -57.5t55 -22.5q31 0 55.5 23.5t24.5 56.5t-23.5 56.5t-56.5 23.5t-55.5 -23.5t-22.5 -56.5zM465 565q0 -35 22.5 -57.5t55.5 -22.5t56.5 22.5t23.5 57.5q0 33 -24 55.5t-56 22.5q-33 0 -55.5 -22.5t-22.5 -55.5zM522 1106 q0 -33 23.5 -56.5t56.5 -23.5t56.5 23.5t23.5 56.5t-23.5 56.5t-56.5 23.5q-31 0 -55.5 -24.5t-24.5 -55.5zM549 739q0 -35 23.5 -56t56.5 -21q31 0 54.5 22t23.5 55t-22.5 56.5t-55.5 23.5t-56.5 -23.5t-23.5 -56.5zM635 182q0 -35 23.5 -57.5t56.5 -22.5t55.5 24t22.5 56 q0 33 -21.5 56.5t-56.5 23.5q-33 0 -56.5 -23.5t-23.5 -56.5zM649 918q0 -35 21.5 -57.5t56.5 -22.5q33 0 56.5 22.5t23.5 57.5q0 31 -24.5 54t-55.5 23q-35 0 -56.5 -22.5t-21.5 -54.5zM715 1108q0 -33 23.5 -56.5t56.5 -23.5q35 0 57 23.5t22 56.5q0 31 -23.5 55.5 t-55.5 24.5q-33 0 -56.5 -23.5t-23.5 -56.5zM825 182q0 -35 23.5 -57.5t56.5 -22.5q31 0 54.5 24t23.5 56q0 33 -22.5 56.5t-55.5 23.5t-56.5 -23.5t-23.5 -56.5z" />
<glyph unicode="[" horiz-adv-x="645" d="M125 -135v1603h520v-317h-182v-971h182v-315h-520zM219 23q0 -33 22.5 -56.5t55.5 -23.5q35 0 57.5 23.5t22.5 56.5t-22.5 56t-57.5 23q-33 0 -55.5 -23.5t-22.5 -55.5zM219 244q0 -35 22.5 -56.5t55.5 -21.5q35 0 57.5 21.5t22.5 56.5q0 33 -22.5 56.5t-57.5 23.5 q-33 0 -55.5 -24t-22.5 -56zM219 449q0 -33 22.5 -55.5t55.5 -22.5q35 0 57.5 22.5t22.5 55.5q0 35 -22.5 57t-57.5 22q-33 0 -55.5 -22.5t-22.5 -56.5zM219 662q0 -35 22.5 -56.5t55.5 -21.5q35 0 57.5 21.5t22.5 56.5q0 33 -22.5 56t-57.5 23q-33 0 -55.5 -23.5 t-22.5 -55.5zM219 870q0 -33 22.5 -56t55.5 -23q35 0 57.5 23t22.5 56t-22.5 56.5t-57.5 23.5q-33 0 -55.5 -23.5t-22.5 -56.5zM219 1085q0 -33 22.5 -56t55.5 -23q35 0 57.5 23t22.5 56t-22.5 56.5t-57.5 23.5q-33 0 -55.5 -23.5t-22.5 -56.5zM219 1305q0 -33 22.5 -56.5 t55.5 -23.5q35 0 57.5 23.5t22.5 56.5t-22.5 55t-57.5 22q-33 0 -55.5 -22.5t-22.5 -54.5zM410 23q0 -33 23 -56.5t56 -23.5t55.5 23.5t22.5 56.5t-22.5 56t-55.5 23t-56 -23.5t-23 -55.5zM410 1305q0 -33 23 -56.5t56 -23.5t55.5 23.5t22.5 56.5t-22.5 55t-55.5 22 t-56 -22.5t-23 -54.5z" />
<glyph unicode="\" horiz-adv-x="692" d="M4 1309h334l350 -1329h-346zM125 1159q0 -33 22.5 -55.5t57.5 -22.5q33 0 56.5 22.5t23.5 55.5t-24.5 56.5t-55.5 23.5q-35 0 -57.5 -22.5t-22.5 -57.5zM168 993q0 -33 23.5 -56.5t56.5 -23.5q35 0 57.5 23.5t22.5 56.5t-22.5 55.5t-57.5 22.5q-31 0 -55.5 -23.5 t-24.5 -54.5zM215 823q0 -33 23.5 -56.5t56.5 -23.5q31 0 54.5 24t23.5 56q0 35 -22.5 56.5t-55.5 21.5t-56.5 -21.5t-23.5 -56.5zM260 655q0 -33 22.5 -56.5t55.5 -23.5t56.5 23.5t23.5 56.5t-23.5 56.5t-56.5 23.5q-35 0 -56.5 -23.5t-21.5 -56.5zM305 487q0 -33 22.5 -56 t55.5 -23q35 0 57.5 23t22.5 56t-23.5 55.5t-56.5 22.5t-55.5 -21.5t-22.5 -56.5zM350 319q0 -33 22.5 -55t55.5 -22t56.5 22t23.5 55t-23.5 56.5t-56.5 23.5q-31 0 -54.5 -24.5t-23.5 -55.5zM395 150q0 -33 23.5 -56.5t56.5 -23.5q31 0 54.5 24.5t23.5 55.5q0 35 -22.5 57 t-55.5 22t-56.5 -22.5t-23.5 -56.5z" />
<glyph unicode="]" horiz-adv-x="645" d="M0 -135v315h182v971h-182v317h520v-1603h-520zM78 23q0 -33 22.5 -56.5t55.5 -23.5t56.5 23.5t23.5 56.5t-24 56t-56 23q-33 0 -55.5 -23.5t-22.5 -55.5zM78 1305q0 -33 22.5 -56.5t55.5 -23.5t56.5 23.5t23.5 56.5t-24 55t-56 22q-33 0 -55.5 -22.5t-22.5 -54.5zM268 23 q0 -33 22.5 -56.5t57.5 -23.5q33 0 55.5 23.5t22.5 56.5t-22.5 56t-55.5 23q-35 0 -57.5 -23.5t-22.5 -55.5zM268 244q0 -35 22.5 -56.5t57.5 -21.5q33 0 55.5 21.5t22.5 56.5q0 33 -22.5 56.5t-55.5 23.5q-35 0 -57.5 -24t-22.5 -56zM268 449q0 -33 22.5 -55.5t57.5 -22.5 q33 0 55.5 22.5t22.5 55.5q0 35 -22.5 57t-55.5 22q-35 0 -57.5 -22.5t-22.5 -56.5zM268 662q0 -35 22.5 -56.5t57.5 -21.5q33 0 55.5 21.5t22.5 56.5q0 33 -22.5 56t-55.5 23q-35 0 -57.5 -23.5t-22.5 -55.5zM268 870q0 -33 22.5 -56t57.5 -23q33 0 55.5 23.5t22.5 55.5 q0 33 -22.5 56.5t-55.5 23.5q-35 0 -57.5 -23.5t-22.5 -56.5zM268 1085q0 -33 22.5 -56t57.5 -23q33 0 55.5 23.5t22.5 55.5q0 33 -22.5 56.5t-55.5 23.5q-35 0 -57.5 -23.5t-22.5 -56.5zM268 1305q0 -33 22.5 -56.5t57.5 -23.5q33 0 55.5 23.5t22.5 56.5t-22.5 55t-55.5 22 q-35 0 -57.5 -22.5t-22.5 -54.5z" />
<glyph unicode="^" horiz-adv-x="1050" d="M37 397l344 891h287l346 -887h-324l-166 451l-170 -455h-317zM164 524q0 -33 21.5 -55.5t56.5 -22.5q33 0 56.5 22.5t23.5 55.5q0 35 -24 57.5t-56 22.5q-33 0 -55.5 -23.5t-22.5 -56.5zM229 686q0 -33 22.5 -55.5t55.5 -22.5q35 0 57.5 22.5t22.5 55.5q0 31 -23.5 55.5 t-56.5 24.5t-55.5 -23.5t-22.5 -56.5zM295 848q0 -33 22.5 -56.5t55.5 -23.5t56.5 23.5t23.5 56.5q0 31 -23.5 55.5t-56.5 24.5t-55.5 -23.5t-22.5 -56.5zM360 1010q0 -35 22.5 -57.5t55.5 -22.5t56.5 22.5t23.5 57.5q0 33 -23.5 56.5t-56.5 23.5t-55.5 -24t-22.5 -56z M444 1163q0 -33 21.5 -56.5t56.5 -23.5q33 0 56.5 23.5t23.5 56.5t-23.5 55.5t-56.5 22.5q-35 0 -56.5 -22.5t-21.5 -55.5zM530 1010q0 -35 22.5 -57.5t55.5 -22.5q35 0 57.5 22.5t22.5 57.5q0 31 -23.5 55.5t-56.5 24.5t-55.5 -24t-22.5 -56zM596 848q0 -33 22.5 -56.5 t55.5 -23.5t56.5 23.5t23.5 56.5q0 31 -24.5 55.5t-55.5 24.5q-33 0 -55.5 -23.5t-22.5 -56.5zM662 686q0 -33 21.5 -55.5t55.5 -22.5q33 0 56.5 22.5t23.5 55.5t-23.5 56.5t-56.5 23.5q-35 0 -56 -23.5t-21 -56.5zM725 524q0 -33 22.5 -55.5t55.5 -22.5q35 0 57.5 22.5 t22.5 55.5q0 35 -22.5 57.5t-57.5 22.5q-31 0 -54.5 -23.5t-23.5 -56.5z" />
<glyph unicode="_" horiz-adv-x="1032" d="M37 -51h958v-271h-958v271zM88 -184q0 -35 22.5 -57.5t55.5 -22.5q35 0 57.5 22.5t22.5 57.5q0 31 -23.5 55.5t-56.5 24.5t-55.5 -24t-22.5 -56zM262 -184q0 -35 22.5 -57.5t55.5 -22.5q35 0 57.5 22.5t22.5 57.5q0 31 -23.5 55.5t-56.5 24.5t-55.5 -24t-22.5 -56z M436 -184q0 -35 22.5 -57.5t57.5 -22.5q33 0 56.5 22.5t23.5 57.5q0 31 -24.5 55.5t-55.5 24.5q-35 0 -57.5 -24t-22.5 -56zM610 -184q0 -35 23.5 -57.5t56.5 -22.5t55.5 22.5t22.5 57.5q0 31 -23.5 55.5t-54.5 24.5q-33 0 -56.5 -24t-23.5 -56zM784 -184q0 -35 23.5 -57.5 t56.5 -22.5t55.5 22.5t22.5 57.5q0 31 -23.5 55.5t-54.5 24.5q-33 0 -56.5 -24t-23.5 -56z" />
<glyph unicode="`" horiz-adv-x="503" d="M8 1802h348l119 -452h-262zM150 1669q0 -33 22.5 -56.5t56.5 -23.5q33 0 56.5 23.5t23.5 56.5t-23.5 55.5t-56.5 22.5q-35 0 -57 -22.5t-22 -55.5zM225 1479q0 -35 23.5 -57.5t56.5 -22.5q35 0 57.5 22.5t22.5 57.5q0 33 -22.5 55t-57.5 22q-33 0 -56.5 -22.5 t-23.5 -54.5z" />
<glyph unicode="a" d="M12 0l447 1288h442l449 -1288h-422l-41 135h-408l-43 -135h-424zM178 145q0 -35 21.5 -57t56.5 -22q33 0 56.5 22t23.5 57q0 31 -24.5 54.5t-55.5 23.5q-35 0 -56.5 -22.5t-21.5 -55.5zM233 307q0 -33 24 -55.5t56 -22.5q33 0 56.5 22.5t23.5 55.5t-24.5 56.5t-55.5 23.5 q-33 0 -56.5 -22.5t-23.5 -57.5zM291 473q0 -33 22.5 -56.5t55.5 -23.5t56.5 23.5t23.5 56.5q0 31 -24 55.5t-56 24.5q-33 0 -55.5 -23.5t-22.5 -56.5zM348 639q0 -33 22.5 -56.5t55.5 -23.5t56.5 23.5t23.5 56.5q0 31 -23.5 55.5t-56.5 24.5t-55.5 -23.5t-22.5 -56.5z M406 803q0 -33 22.5 -56.5t54.5 -23.5q33 0 56.5 23.5t23.5 56.5q0 31 -23.5 55.5t-56.5 24.5t-55 -23.5t-22 -56.5zM414 301q0 -33 22.5 -56.5t55.5 -23.5t56 22.5t23 57.5q0 33 -23.5 56.5t-55.5 23.5q-33 0 -55.5 -23.5t-22.5 -56.5zM461 969q0 -33 22.5 -56.5 t55.5 -23.5t56 23.5t23 56.5q0 31 -23.5 55.5t-55.5 24.5q-33 0 -55.5 -24t-22.5 -56zM514 1133q0 -35 22.5 -57.5t57.5 -22.5q33 0 55.5 22.5t22.5 57.5q0 31 -23.5 54t-54.5 23q-35 0 -57.5 -22.5t-22.5 -54.5zM571 457h220l-111 374zM596 301q0 -33 24.5 -56.5 t55.5 -23.5q35 0 57.5 22.5t22.5 57.5q0 33 -22.5 56.5t-57.5 23.5q-33 0 -56.5 -23.5t-23.5 -56.5zM688 1133q0 -35 23.5 -57.5t56.5 -22.5t55.5 22.5t22.5 57.5q0 31 -23.5 54t-54.5 23q-33 0 -56.5 -22.5t-23.5 -54.5zM735 967q0 -33 21.5 -56.5t56.5 -23.5 q33 0 56.5 23.5t23.5 56.5t-23.5 56.5t-56.5 23.5t-55.5 -24t-22.5 -56zM786 301q0 -33 23.5 -56.5t56.5 -23.5t55.5 22.5t22.5 57.5q0 33 -22.5 56.5t-55.5 23.5t-56.5 -23.5t-23.5 -56.5zM791 801q0 -33 22.5 -55.5t56.5 -22.5q33 0 56.5 22.5t23.5 55.5q0 35 -23.5 57.5 t-56.5 22.5t-56 -23.5t-23 -56.5zM848 639q0 -35 23.5 -57.5t56.5 -22.5t55.5 22.5t22.5 57.5q0 33 -22.5 55.5t-55.5 22.5t-56.5 -22.5t-23.5 -55.5zM905 473q0 -33 22.5 -56.5t55.5 -23.5t56.5 23.5t23.5 56.5q0 31 -23.5 55.5t-56.5 24.5t-55.5 -23.5t-22.5 -56.5z M963 307q0 -33 22.5 -55.5t54.5 -22.5q33 0 56.5 22.5t23.5 55.5t-24.5 56.5t-55.5 23.5q-33 0 -55 -22.5t-22 -57.5zM1016 145q0 -35 23.5 -57t56.5 -22q35 0 57.5 22t22.5 57q0 33 -23 55.5t-57 22.5q-31 0 -55.5 -23.5t-24.5 -54.5z" />
<glyph unicode="b" horiz-adv-x="1054" d="M76 0v1288h489q92 0 167 -24.5t128 -72.5t83 -116.5t30 -154.5q0 -162 -119 -250q59 -35 97 -106.5t38 -166.5q0 -193 -112.5 -295t-333.5 -102h-467zM178 166q0 -35 22.5 -56.5t55.5 -21.5t56.5 21.5t23.5 56.5q0 33 -23.5 56.5t-56.5 23.5t-55.5 -23.5t-22.5 -56.5z M178 356q0 -33 22.5 -56.5t55.5 -23.5t56.5 23.5t23.5 56.5t-23.5 56.5t-56.5 23.5t-55.5 -23.5t-22.5 -56.5zM178 563q0 -35 22.5 -57.5t55.5 -22.5t56.5 22.5t23.5 57.5q0 33 -23.5 55.5t-56.5 22.5t-55.5 -22.5t-22.5 -55.5zM178 752q0 -33 22.5 -56.5t55.5 -23.5 t56.5 23.5t23.5 56.5t-23.5 56t-56.5 23t-55.5 -23.5t-22.5 -55.5zM178 940q0 -33 22.5 -55.5t55.5 -22.5t56.5 22.5t23.5 55.5q0 35 -23.5 57.5t-56.5 22.5t-55.5 -22.5t-22.5 -57.5zM178 1133q0 -35 22.5 -57.5t55.5 -22.5t56.5 22.5t23.5 57.5q0 33 -23.5 55t-56.5 22 t-55.5 -22.5t-22.5 -54.5zM358 666q0 -31 22.5 -55.5t55.5 -24.5t56.5 23.5t23.5 56.5q0 35 -23.5 57t-56.5 22q-35 0 -56.5 -22.5t-21.5 -56.5zM371 1135q0 -33 22.5 -55.5t55.5 -22.5q31 0 55 22.5t24 55.5q0 35 -23.5 57t-55.5 22q-33 0 -55.5 -22.5t-22.5 -56.5z M381 166q0 -35 22.5 -56.5t55.5 -21.5q35 0 57.5 21.5t22.5 56.5q0 33 -22.5 56.5t-57.5 23.5q-33 0 -55.5 -23.5t-22.5 -56.5zM451 311h51q47 0 76.5 28t29.5 75q0 102 -131 102h-26v-205zM451 803q82 0 113.5 20.5t31.5 73.5q0 57 -36 76.5t-109 19.5v-190zM547 670 q0 -35 22.5 -57.5t57.5 -22.5q33 0 55.5 22.5t22.5 57.5q0 33 -23 55.5t-55 22.5q-35 0 -57.5 -23t-22.5 -55zM559 1112q0 -33 23.5 -55.5t56.5 -22.5q35 0 56.5 22.5t21.5 55.5t-22.5 56.5t-55.5 23.5t-56.5 -22.5t-23.5 -57.5zM584 203q0 -33 21.5 -56.5t56.5 -23.5 q33 0 56 23.5t23 56.5q0 35 -23.5 57.5t-55.5 22.5q-35 0 -56.5 -22.5t-21.5 -57.5zM680 809q0 -33 22.5 -57.5t55.5 -24.5t56.5 24.5t23.5 55.5q0 35 -23.5 57.5t-56.5 22.5t-55.5 -21.5t-22.5 -56.5zM692 541q0 -33 22.5 -56.5t55.5 -23.5q35 0 57.5 23.5t22.5 56.5 q0 35 -22.5 56t-57.5 21q-31 0 -54.5 -22.5t-23.5 -54.5zM698 989q0 -33 23.5 -56.5t56.5 -23.5t55.5 24.5t22.5 55.5q0 33 -22.5 56.5t-55.5 23.5t-56.5 -23.5t-23.5 -56.5zM715 350q0 -33 21.5 -56.5t56.5 -23.5q33 0 56 23.5t23 56.5q0 35 -23.5 56.5t-55.5 21.5 q-35 0 -56.5 -21.5t-21.5 -56.5z" />
<glyph unicode="c" horiz-adv-x="1310" d="M49 643q0 147 49 270t138.5 212t211 138.5t267.5 49.5q211 0 342 -73t209 -214l-279 -258q-80 182 -262 182q-66 0 -118 -23.5t-91 -64.5t-59.5 -97t-20.5 -122t20.5 -121t58.5 -96t91 -64.5t119 -23.5q113 0 180.5 52t98.5 130l290 -209q-39 -74 -92 -135t-124.5 -105 t-162 -70t-200.5 -26q-145 0 -267 49.5t-211.5 138.5t-138.5 212t-49 268zM166 647q0 -33 21.5 -56.5t56.5 -23.5q33 0 56.5 23.5t23.5 56.5q0 35 -24 56.5t-56 21.5q-35 0 -56.5 -21.5t-21.5 -56.5zM197 461q0 -31 23.5 -55.5t53.5 -24.5q33 0 56.5 23.5t23.5 56.5 q0 35 -23.5 57.5t-56.5 22.5t-55 -22.5t-22 -57.5zM197 825q0 -31 23.5 -54t53.5 -23q33 0 56.5 22t23.5 55q0 35 -23.5 57.5t-56.5 22.5t-55 -22.5t-22 -57.5zM295 977q0 -33 23.5 -56.5t56.5 -23.5q31 0 55.5 23.5t24.5 56.5t-23.5 56.5t-56.5 23.5t-56.5 -23.5 t-23.5 -56.5zM299 305q0 -33 23.5 -56.5t56.5 -23.5q31 0 54.5 24.5t23.5 55.5q0 33 -22.5 55.5t-55.5 22.5t-56.5 -22.5t-23.5 -55.5zM446 1090q0 -33 21.5 -56.5t56.5 -23.5q31 0 55.5 24.5t24.5 55.5q0 33 -23.5 55t-56.5 22q-35 0 -56.5 -22.5t-21.5 -54.5zM449 199 q0 -33 22.5 -55.5t56.5 -22.5q31 0 55.5 22.5t24.5 55.5t-23.5 56.5t-56.5 23.5q-35 0 -57 -24t-22 -56zM629 156q0 -33 23.5 -56.5t56.5 -23.5q35 0 57 23.5t22 56.5t-22.5 55t-56.5 22q-33 0 -56.5 -22.5t-23.5 -54.5zM629 1135q0 -35 23.5 -57.5t56.5 -22.5q35 0 57 22.5 t22 57.5q0 33 -22.5 55t-56.5 22q-31 0 -55.5 -23.5t-24.5 -53.5zM813 1100q0 -33 23.5 -56.5t56.5 -23.5t56.5 24.5t23.5 55.5q0 33 -22.5 55.5t-57.5 22.5q-33 0 -56.5 -22.5t-23.5 -55.5zM817 193q0 -33 23.5 -56.5t56.5 -23.5t55.5 23.5t22.5 56.5t-21.5 56t-56.5 23 q-33 0 -56.5 -23.5t-23.5 -55.5zM971 995q0 -33 22.5 -56.5t55.5 -23.5t56 23.5t23 56.5t-23.5 55.5t-55.5 22.5q-33 0 -55.5 -22.5t-22.5 -55.5zM975 301q0 -33 23.5 -56.5t56.5 -23.5q31 0 55.5 24.5t24.5 55.5q0 33 -24 56.5t-56 23.5q-33 0 -56.5 -23.5t-23.5 -56.5z " />
<glyph unicode="d" horiz-adv-x="1177" d="M76 0v1292h356q141 0 268 -40t221.5 -118.5t149.5 -198.5t55 -280q0 -135 -42 -254.5t-128 -209t-217 -140.5t-307 -51h-356zM193 176q0 -33 23 -56.5t56 -23.5q35 0 56.5 23.5t21.5 56.5t-21.5 55.5t-56.5 22.5q-33 0 -56 -22.5t-23 -55.5zM193 367q0 -35 23 -57.5 t56 -22.5q35 0 56.5 22.5t21.5 57.5q0 33 -21.5 56t-56.5 23q-33 0 -56 -23.5t-23 -55.5zM193 555q0 -33 23.5 -55.5t55.5 -22.5q35 0 56.5 22.5t21.5 55.5t-21.5 56.5t-56.5 23.5q-33 0 -56 -23.5t-23 -56.5zM193 745q0 -33 23 -56t56 -23q35 0 56.5 23.5t21.5 55.5 q0 35 -21.5 56.5t-56.5 21.5q-33 0 -56 -21.5t-23 -56.5zM193 936q0 -35 23 -57.5t56 -22.5q35 0 56.5 22.5t21.5 57.5q0 33 -21.5 56.5t-56.5 23.5q-33 0 -56 -23.5t-23 -56.5zM193 1124q0 -33 23.5 -55t55.5 -22q35 0 56.5 22t21.5 55t-21.5 56.5t-56.5 23.5 q-33 0 -56 -23.5t-23 -56.5zM371 156q0 -33 23.5 -56.5t56.5 -23.5q35 0 57 23.5t22 56.5t-22.5 55t-56.5 22q-33 0 -56.5 -22.5t-23.5 -54.5zM371 1135q0 -35 23.5 -57.5t56.5 -22.5q35 0 57 22.5t22 57.5q0 33 -22.5 55t-56.5 22q-31 0 -55.5 -23.5t-24.5 -53.5zM449 338 q135 0 206.5 80t71.5 227q0 309 -278 309v-616zM571 201q0 -33 23.5 -55.5t56.5 -22.5t55.5 22.5t22.5 55.5t-22.5 56.5t-55.5 23.5t-56.5 -24t-23.5 -56zM571 1085q0 -33 23.5 -56t56.5 -23t55.5 24.5t22.5 54.5q0 33 -22.5 56.5t-55.5 23.5t-56.5 -23.5t-23.5 -56.5z M715 315q0 -33 23.5 -56t56.5 -23q31 0 55 24t24 55q0 33 -23.5 55.5t-55.5 22.5q-33 0 -56.5 -22.5t-23.5 -55.5zM715 973q0 -33 23.5 -56.5t56.5 -23.5q31 0 55 23.5t24 56.5t-23.5 55.5t-55.5 22.5q-33 0 -56.5 -22.5t-23.5 -55.5zM815 465q0 -33 22.5 -56.5t57.5 -23.5 q33 0 55.5 23.5t22.5 56.5q0 35 -22.5 56.5t-55.5 21.5q-35 0 -57.5 -21.5t-22.5 -56.5zM815 821q0 -33 22.5 -56.5t57.5 -23.5q33 0 55.5 23.5t22.5 56.5q0 35 -22.5 56.5t-55.5 21.5q-35 0 -57.5 -21.5t-22.5 -56.5zM848 643q0 -33 23.5 -55.5t56.5 -22.5t55.5 22.5 t22.5 55.5t-22.5 56.5t-55.5 23.5t-56.5 -22.5t-23.5 -57.5z" />
<glyph unicode="e" horiz-adv-x="909" d="M76 0v1288h772v-325h-373v-150h373v-326h-373v-149h373v-338h-772zM193 176q0 -33 23 -56.5t56 -23.5q35 0 56.5 23.5t21.5 56.5t-21.5 55.5t-56.5 22.5q-33 0 -56 -22.5t-23 -55.5zM193 367q0 -35 23 -57.5t56 -22.5q35 0 56.5 22.5t21.5 57.5q0 33 -21.5 56t-56.5 23 q-33 0 -56 -23.5t-23 -55.5zM193 555q0 -33 23.5 -55.5t55.5 -22.5q35 0 56.5 22.5t21.5 55.5t-21.5 56.5t-56.5 23.5q-33 0 -56 -23.5t-23 -56.5zM193 745q0 -33 23 -56t56 -23q35 0 56.5 23.5t21.5 55.5q0 35 -21.5 56.5t-56.5 21.5q-33 0 -56 -21.5t-23 -56.5zM193 936 q0 -35 23 -57.5t56 -22.5q35 0 56.5 22.5t21.5 57.5q0 33 -21.5 56.5t-56.5 23.5q-33 0 -56 -23.5t-23 -56.5zM193 1124q0 -33 23.5 -55t55.5 -22q35 0 56.5 22t21.5 55t-21.5 56.5t-56.5 23.5q-33 0 -56 -23.5t-23 -56.5zM383 176q0 -33 22.5 -56.5t57.5 -23.5 q33 0 56.5 23.5t23.5 56.5t-23.5 55.5t-56.5 22.5q-35 0 -57.5 -22.5t-22.5 -55.5zM383 651q0 -33 22.5 -56.5t57.5 -23.5q33 0 56.5 23.5t23.5 56.5t-23.5 55.5t-56.5 22.5q-35 0 -57.5 -22.5t-22.5 -55.5zM383 1124q0 -33 22.5 -55t57.5 -22q33 0 56.5 22t23.5 55 t-23.5 56.5t-56.5 23.5q-35 0 -57.5 -23.5t-22.5 -56.5zM573 176q0 -33 22.5 -56.5t55.5 -23.5t56.5 23.5t23.5 56.5t-23.5 55.5t-56.5 22.5t-55.5 -22.5t-22.5 -55.5zM573 651q0 -33 22.5 -56.5t55.5 -23.5t56.5 23.5t23.5 56.5t-23.5 55.5t-56.5 22.5t-55.5 -22.5 t-22.5 -55.5zM573 1124q0 -33 22.5 -55t55.5 -22t56.5 22t23.5 55t-23.5 56.5t-56.5 23.5t-55.5 -23.5t-22.5 -56.5z" />
<glyph unicode="f" horiz-adv-x="886" d="M76 0v1288h772v-325h-373v-150h373v-326h-373v-487h-399zM193 176q0 -33 23 -56.5t56 -23.5q35 0 56.5 23.5t21.5 56.5t-21.5 55.5t-56.5 22.5q-33 0 -56 -22.5t-23 -55.5zM193 367q0 -35 23 -57.5t56 -22.5q35 0 56.5 22.5t21.5 57.5q0 33 -21.5 56t-56.5 23 q-33 0 -56 -23.5t-23 -55.5zM193 555q0 -33 23.5 -55.5t55.5 -22.5q35 0 56.5 22.5t21.5 55.5t-21.5 56.5t-56.5 23.5q-33 0 -56 -23.5t-23 -56.5zM193 745q0 -33 23 -56t56 -23q35 0 56.5 23.5t21.5 55.5q0 35 -21.5 56.5t-56.5 21.5q-33 0 -56 -21.5t-23 -56.5zM193 936 q0 -35 23 -57.5t56 -22.5q35 0 56.5 22.5t21.5 57.5q0 33 -21.5 56.5t-56.5 23.5q-33 0 -56 -23.5t-23 -56.5zM193 1124q0 -33 23.5 -55t55.5 -22q35 0 56.5 22t21.5 55t-21.5 56.5t-56.5 23.5q-33 0 -56 -23.5t-23 -56.5zM383 651q0 -33 22.5 -56.5t57.5 -23.5 q33 0 56.5 23.5t23.5 56.5t-23.5 55.5t-56.5 22.5q-35 0 -57.5 -22.5t-22.5 -55.5zM383 1124q0 -33 22.5 -55t57.5 -22q33 0 56.5 22t23.5 55t-23.5 56.5t-56.5 23.5q-35 0 -57.5 -23.5t-22.5 -56.5zM573 651q0 -33 22.5 -56.5t55.5 -23.5t56.5 23.5t23.5 56.5t-23.5 55.5 t-56.5 22.5t-55.5 -22.5t-22.5 -55.5zM573 1124q0 -33 22.5 -55t55.5 -22t56.5 22t23.5 55t-23.5 56.5t-56.5 23.5t-55.5 -23.5t-22.5 -56.5z" />
<glyph unicode="g" horiz-adv-x="1445" d="M55 643q0 143 51.5 266t141.5 213t216 140.5t273 50.5q117 0 205 -19.5t153.5 -57.5t113.5 -93.5t87 -124.5l-280 -217q-47 82 -108.5 118.5t-174.5 36.5q-59 0 -109.5 -21.5t-88 -61t-59 -98t-21.5 -132.5q0 -63 19.5 -119.5t56 -99.5t90 -67.5t118.5 -24.5 q139 0 226 114h-271v324h697q4 -35 6 -68.5t2 -68.5q0 -117 -33 -223.5t-113 -204.5q-92 -111 -227 -170.5t-295 -59.5q-147 0 -271 49.5t-214 137.5t-140.5 211t-50.5 270zM186 643q0 -33 21.5 -55.5t56.5 -22.5q33 0 56.5 22.5t23.5 55.5q0 35 -23.5 57.5t-56.5 22.5 q-35 0 -56.5 -22.5t-21.5 -57.5zM217 465q0 -31 23.5 -55.5t54.5 -24.5q33 0 56.5 23.5t23.5 56.5q0 35 -23.5 56.5t-56.5 21.5t-55.5 -21.5t-22.5 -56.5zM217 821q0 -31 23.5 -55.5t54.5 -24.5q33 0 56.5 23.5t23.5 56.5q0 35 -23.5 56.5t-56.5 21.5t-55.5 -21.5 t-22.5 -56.5zM317 315q0 -33 24 -56t56 -23q31 0 55.5 24t24.5 55q0 33 -23.5 55.5t-56.5 22.5t-56.5 -22.5t-23.5 -55.5zM317 973q0 -33 24 -56.5t56 -23.5q31 0 55.5 23.5t24.5 56.5t-23.5 55.5t-56.5 22.5t-56.5 -22.5t-23.5 -55.5zM463 201q0 -33 22.5 -55.5t57.5 -22.5 q31 0 54.5 22.5t23.5 55.5t-23 56.5t-55 23.5q-35 0 -57.5 -24t-22.5 -56zM467 1085q0 -33 22.5 -56t57.5 -23q31 0 55.5 24t24.5 55q0 33 -23.5 56.5t-56.5 23.5q-35 0 -57.5 -23.5t-22.5 -56.5zM643 156q0 -33 23.5 -56.5t56.5 -23.5q35 0 56.5 23.5t21.5 56.5t-21.5 55 t-56.5 22q-33 0 -56.5 -22.5t-23.5 -54.5zM645 1130q0 -35 23.5 -57t56.5 -22q35 0 56.5 22.5t21.5 56.5q0 33 -21.5 56.5t-56.5 23.5q-33 0 -56.5 -24.5t-23.5 -55.5zM772 608q0 -33 23.5 -55.5t56.5 -22.5t55.5 22.5t22.5 55.5t-23.5 56.5t-54.5 23.5q-33 0 -56.5 -22.5 t-23.5 -57.5zM829 188q0 -33 23.5 -56t56.5 -23q31 0 54.5 23.5t23.5 55.5q0 35 -22.5 56.5t-55.5 21.5t-56.5 -21.5t-23.5 -56.5zM834 1102q0 -33 22.5 -56.5t54.5 -23.5q33 0 56.5 23.5t23.5 56.5t-22.5 55.5t-57.5 22.5q-33 0 -55 -22.5t-22 -55.5zM946 608 q0 -33 23.5 -55.5t56.5 -22.5t55.5 22.5t22.5 55.5t-23.5 56.5t-54.5 23.5q-33 0 -56.5 -22.5t-23.5 -57.5zM973 291q0 -33 22.5 -56.5t57.5 -23.5q31 0 55.5 24.5t24.5 55.5q0 35 -24 57.5t-56 22.5q-35 0 -57.5 -22.5t-22.5 -57.5zM995 999q0 -33 22.5 -56t55.5 -23 q31 0 55.5 23t24.5 56t-23.5 56.5t-56.5 23.5t-55.5 -23.5t-22.5 -56.5zM1081 436q0 -33 22.5 -55.5t55.5 -22.5q35 0 57.5 22.5t22.5 55.5t-22.5 56.5t-57.5 23.5q-33 0 -55.5 -23.5t-22.5 -56.5zM1120 608q0 -33 22.5 -55.5t55.5 -22.5q35 0 57.5 22.5t22.5 55.5 t-23.5 56.5t-56.5 23.5t-55.5 -22.5t-22.5 -57.5z" />
<glyph unicode="h" horiz-adv-x="1241" d="M76 0v1288h399v-467h291v467h399v-1288h-399v485h-291v-485h-399zM195 176q0 -33 23 -56.5t56 -23.5t55.5 23.5t22.5 56.5t-22.5 55.5t-55.5 22.5t-56 -22.5t-23 -55.5zM195 367q0 -35 23 -57.5t56 -22.5t55.5 22.5t22.5 57.5q0 33 -22.5 56t-55.5 23t-56 -23.5 t-23 -55.5zM195 555q0 -33 23.5 -55.5t55.5 -22.5q33 0 55.5 22.5t22.5 55.5t-22.5 56.5t-55.5 23.5t-56 -23.5t-23 -56.5zM195 745q0 -33 23 -56t56 -23t55.5 23.5t22.5 55.5q0 35 -22.5 56.5t-55.5 21.5t-56 -21.5t-23 -56.5zM195 936q0 -35 23 -57.5t56 -22.5t55.5 22.5 t22.5 57.5q0 33 -22.5 56.5t-55.5 23.5t-56 -23.5t-23 -56.5zM195 1124q0 -33 23.5 -55t55.5 -22q33 0 55.5 22t22.5 55t-22.5 56.5t-55.5 23.5t-56 -23.5t-23 -56.5zM365 657q0 -35 22 -57t57 -22q33 0 55.5 22.5t22.5 56.5q0 33 -22.5 56.5t-55.5 23.5q-35 0 -57 -23.5 t-22 -56.5zM545 657q0 -35 23.5 -57t56.5 -22t56.5 22t23.5 57q0 33 -24 56.5t-56 23.5q-33 0 -56.5 -23.5t-23.5 -56.5zM729 657q0 -35 23.5 -57t56.5 -22q35 0 56.5 22.5t21.5 56.5q0 33 -21.5 56.5t-56.5 23.5q-33 0 -56.5 -23.5t-23.5 -56.5zM891 176q0 -33 23.5 -56.5 t56.5 -23.5t55.5 23.5t22.5 56.5t-22.5 55.5t-55.5 22.5t-56.5 -22.5t-23.5 -55.5zM891 367q0 -35 23.5 -57.5t56.5 -22.5t55.5 22.5t22.5 57.5q0 33 -22.5 56t-55.5 23t-56.5 -23.5t-23.5 -55.5zM891 555q0 -33 23.5 -55.5t56.5 -22.5t55.5 22.5t22.5 55.5t-22.5 56.5 t-55.5 23.5t-56.5 -23.5t-23.5 -56.5zM891 745q0 -33 23.5 -56t56.5 -23t55.5 23.5t22.5 55.5q0 35 -22.5 56.5t-55.5 21.5t-56.5 -21.5t-23.5 -56.5zM891 936q0 -35 23.5 -57.5t56.5 -22.5t55.5 22.5t22.5 57.5q0 33 -22.5 56.5t-55.5 23.5t-56.5 -23.5t-23.5 -56.5z M891 1124q0 -33 23.5 -55t56.5 -22t55.5 22t22.5 55t-22.5 56.5t-55.5 23.5t-56.5 -23.5t-23.5 -56.5z" />
<glyph unicode="i" horiz-adv-x="555" d="M76 0v1288h403v-1288h-403zM193 176q0 -33 23 -56.5t56 -23.5q35 0 56.5 23.5t21.5 56.5t-21.5 55.5t-56.5 22.5q-33 0 -56 -22.5t-23 -55.5zM193 367q0 -35 23 -57.5t56 -22.5q35 0 56.5 22.5t21.5 57.5q0 33 -21.5 56t-56.5 23q-33 0 -56 -23.5t-23 -55.5zM193 555 q0 -33 23.5 -55.5t55.5 -22.5q35 0 56.5 22.5t21.5 55.5t-21.5 56.5t-56.5 23.5q-33 0 -56 -23.5t-23 -56.5zM193 745q0 -33 23 -56t56 -23q35 0 56.5 23.5t21.5 55.5q0 35 -21.5 56.5t-56.5 21.5q-33 0 -56 -21.5t-23 -56.5zM193 936q0 -35 23 -57.5t56 -22.5 q35 0 56.5 22.5t21.5 57.5q0 33 -21.5 56.5t-56.5 23.5q-33 0 -56 -23.5t-23 -56.5zM193 1124q0 -33 23.5 -55t55.5 -22q35 0 56.5 22t21.5 55t-21.5 56.5t-56.5 23.5q-33 0 -56 -23.5t-23 -56.5z" />
<glyph unicode="j" horiz-adv-x="788" d="M31 2v336q61 -14 94 -16.5t53 -2.5q49 0 78 13.5t44 38t19.5 60.5t4.5 79v778h399v-796q0 -252 -119 -384.5t-342 -132.5q-78 0 -136 8.5t-95 18.5zM139 160q0 -33 23.5 -56.5t56.5 -23.5t55.5 23.5t22.5 56.5t-22.5 56.5t-55.5 23.5t-56.5 -23.5t-23.5 -56.5zM328 209 q0 -35 23.5 -57.5t56.5 -22.5q35 0 57 22.5t22 57.5q0 33 -22.5 55.5t-56.5 22.5q-33 0 -56.5 -22.5t-23.5 -55.5zM424 367q0 -35 22.5 -57.5t57.5 -22.5q33 0 56.5 22.5t23.5 57.5q0 33 -23.5 56t-56.5 23q-35 0 -57.5 -23.5t-22.5 -55.5zM457 555q0 -33 22.5 -55.5 t55.5 -22.5t56 22.5t23 55.5t-23.5 56.5t-55.5 23.5q-33 0 -55.5 -23.5t-22.5 -56.5zM457 745q0 -33 22.5 -56t55.5 -23t56 23t23 56q0 35 -23.5 56.5t-55.5 21.5q-33 0 -55.5 -21.5t-22.5 -56.5zM457 936q0 -35 22.5 -57.5t55.5 -22.5t56 22.5t23 57.5q0 33 -23.5 56.5 t-55.5 23.5q-33 0 -55.5 -23.5t-22.5 -56.5zM457 1124q0 -33 22.5 -55t55.5 -22t56 22t23 55t-23.5 56.5t-55.5 23.5q-33 0 -55.5 -23.5t-22.5 -56.5z" />
<glyph unicode="k" horiz-adv-x="1064" d="M76 0v1288h399v-258l117 258h448l-348 -606l361 -682h-445l-133 303v-303h-399zM193 176q0 -33 23 -56.5t56 -23.5q35 0 56.5 23.5t21.5 56.5t-21.5 55.5t-56.5 22.5q-33 0 -56 -22.5t-23 -55.5zM193 367q0 -35 23 -57.5t56 -22.5q35 0 56.5 22.5t21.5 57.5 q0 33 -21.5 56t-56.5 23q-33 0 -56 -23.5t-23 -55.5zM193 555q0 -33 23.5 -55.5t55.5 -22.5q35 0 56.5 22.5t21.5 55.5t-21.5 56.5t-56.5 23.5q-33 0 -56 -23.5t-23 -56.5zM193 745q0 -33 23 -56t56 -23q35 0 56.5 23.5t21.5 55.5q0 35 -21.5 56.5t-56.5 21.5 q-33 0 -56 -21.5t-23 -56.5zM193 936q0 -35 23 -57.5t56 -22.5q35 0 56.5 22.5t21.5 57.5q0 33 -21.5 56.5t-56.5 23.5q-33 0 -56 -23.5t-23 -56.5zM193 1124q0 -33 23.5 -55t55.5 -22q35 0 56.5 22t21.5 55t-21.5 56.5t-56.5 23.5q-33 0 -56 -23.5t-23 -56.5zM371 657 q0 -35 23.5 -57t56.5 -22q35 0 57 22t22 57q0 33 -22.5 56.5t-56.5 23.5q-33 0 -56.5 -23.5t-23.5 -56.5zM473 823q0 -33 23.5 -56.5t56.5 -23.5t55.5 24t22.5 56q0 35 -22.5 56.5t-55.5 21.5t-56.5 -21.5t-23.5 -56.5zM485 489q0 -33 22.5 -56t57.5 -23q33 0 55.5 23.5 t22.5 55.5q0 35 -22.5 56.5t-55.5 21.5q-35 0 -57.5 -21.5t-22.5 -56.5zM573 979q0 -35 22.5 -57.5t55.5 -22.5t56.5 23.5t23.5 56.5t-23.5 56.5t-56.5 23.5t-55.5 -23.5t-22.5 -56.5zM584 319q0 -33 21.5 -55t56.5 -22q33 0 56 22t23 55t-23.5 56.5t-55.5 23.5 q-35 0 -56.5 -23.5t-21.5 -56.5zM674 156q0 -33 23.5 -56.5t56.5 -23.5t56.5 23.5t23.5 56.5t-24 55t-56 22q-33 0 -56.5 -22.5t-23.5 -54.5zM680 1143q0 -33 21.5 -56.5t56.5 -23.5q33 0 56.5 23.5t23.5 56.5t-23.5 55.5t-56.5 22.5q-35 0 -56.5 -21.5t-21.5 -56.5z" />
<glyph unicode="l" horiz-adv-x="811" d="M76 0v1288h399v-950h305v-338h-704zM193 176q0 -33 23 -56.5t56 -23.5q35 0 56.5 23.5t21.5 56.5t-21.5 55.5t-56.5 22.5q-33 0 -56 -22.5t-23 -55.5zM193 367q0 -35 23 -57.5t56 -22.5q35 0 56.5 22.5t21.5 57.5q0 33 -21.5 56t-56.5 23q-33 0 -56 -23.5t-23 -55.5z M193 555q0 -33 23.5 -55.5t55.5 -22.5q35 0 56.5 22.5t21.5 55.5t-21.5 56.5t-56.5 23.5q-33 0 -56 -23.5t-23 -56.5zM193 745q0 -33 23 -56t56 -23q35 0 56.5 23.5t21.5 55.5q0 35 -21.5 56.5t-56.5 21.5q-33 0 -56 -21.5t-23 -56.5zM193 936q0 -35 23 -57.5t56 -22.5 q35 0 56.5 22.5t21.5 57.5q0 33 -21.5 56.5t-56.5 23.5q-33 0 -56 -23.5t-23 -56.5zM193 1124q0 -33 23.5 -55t55.5 -22q35 0 56.5 22t21.5 55t-21.5 56.5t-56.5 23.5q-33 0 -56 -23.5t-23 -56.5zM383 176q0 -33 22.5 -56.5t57.5 -23.5q33 0 56.5 23.5t23.5 56.5t-23.5 55.5 t-56.5 22.5q-35 0 -57.5 -22.5t-22.5 -55.5zM573 176q0 -33 22.5 -56.5t55.5 -23.5t56.5 23.5t23.5 56.5t-23.5 55.5t-56.5 22.5t-55.5 -22.5t-22.5 -55.5z" />
<glyph unicode="m" horiz-adv-x="1581" d="M72 0v1288h452l267 -588l280 588h438v-1288h-374v657l-347 -745l-342 741v-653h-374zM188 176q0 -33 24 -56.5t56 -23.5q35 0 57.5 23.5t22.5 56.5t-22.5 55.5t-57.5 22.5q-33 0 -56.5 -22.5t-23.5 -55.5zM188 367q0 -35 24 -57.5t56 -22.5q35 0 57.5 22.5t22.5 57.5 q0 33 -22.5 56t-57.5 23q-33 0 -56.5 -23.5t-23.5 -55.5zM188 555q0 -33 24 -55.5t56 -22.5q35 0 57.5 22.5t22.5 55.5t-22.5 56.5t-57.5 23.5q-33 0 -56.5 -23.5t-23.5 -56.5zM188 745q0 -33 24 -56t56 -23q35 0 57.5 23t22.5 56q0 35 -22.5 56.5t-57.5 21.5 q-33 0 -56.5 -21.5t-23.5 -56.5zM188 936q0 -35 24 -57.5t56 -22.5q35 0 57.5 22.5t22.5 57.5q0 33 -22.5 56.5t-57.5 23.5q-33 0 -56.5 -23.5t-23.5 -56.5zM188 1124q0 -33 24 -55t56 -22q35 0 57.5 22t22.5 55t-22.5 56.5t-57.5 23.5q-33 0 -56.5 -23.5t-23.5 -56.5z M369 1032q0 -33 22.5 -56.5t54.5 -23.5q35 0 57.5 23.5t22.5 56.5t-22.5 56.5t-57.5 23.5q-33 0 -55 -23.5t-22 -56.5zM449 860q0 -35 23.5 -57.5t55.5 -22.5q35 0 57.5 22.5t22.5 57.5q0 33 -22.5 56.5t-57.5 23.5q-33 0 -56 -23.5t-23 -56.5zM530 686q0 -33 22.5 -55.5 t55.5 -22.5t56.5 23.5t23.5 54.5q0 35 -22.5 57.5t-57.5 22.5q-33 0 -55.5 -22.5t-22.5 -57.5zM608 516q0 -33 23.5 -56.5t56.5 -23.5q35 0 57.5 23.5t22.5 56.5t-22.5 56.5t-57.5 23.5q-31 0 -55.5 -24.5t-24.5 -55.5zM705 344q0 -35 23.5 -57.5t55.5 -22.5q35 0 57.5 22.5 t22.5 57.5q0 33 -22.5 56.5t-57.5 23.5q-33 0 -56 -23.5t-23 -56.5zM813 516q0 -33 23.5 -56.5t56.5 -23.5t56.5 23.5t23.5 56.5q0 31 -24.5 55.5t-55.5 24.5q-33 0 -56.5 -23.5t-23.5 -56.5zM893 686q0 -31 23.5 -54.5t56.5 -23.5t55.5 22.5t22.5 55.5q0 35 -22.5 57.5 t-55.5 22.5t-56.5 -22.5t-23.5 -57.5zM973 860q0 -35 22.5 -57.5t57.5 -22.5q33 0 56.5 22.5t23.5 57.5q0 33 -24 56.5t-56 23.5q-35 0 -57.5 -23.5t-22.5 -56.5zM1055 1032q0 -33 22.5 -56.5t57.5 -23.5q33 0 55 23.5t22 56.5t-22.5 56.5t-54.5 23.5q-35 0 -57.5 -23.5 t-22.5 -56.5zM1233 176q0 -33 22.5 -56.5t57.5 -23.5q33 0 56.5 23.5t23.5 56.5t-23.5 55.5t-56.5 22.5q-35 0 -57.5 -22.5t-22.5 -55.5zM1233 367q0 -35 22.5 -57.5t57.5 -22.5q33 0 56.5 22.5t23.5 57.5q0 33 -23.5 56t-56.5 23q-35 0 -57.5 -23.5t-22.5 -55.5zM1233 555 q0 -33 22.5 -55.5t57.5 -22.5q33 0 56.5 22.5t23.5 55.5t-23.5 56.5t-56.5 23.5q-35 0 -57.5 -23.5t-22.5 -56.5zM1233 745q0 -33 22.5 -56t57.5 -23q33 0 56.5 23t23.5 56q0 35 -23.5 56.5t-56.5 21.5q-35 0 -57.5 -21.5t-22.5 -56.5zM1233 936q0 -35 22.5 -57.5 t57.5 -22.5q33 0 56.5 22.5t23.5 57.5q0 33 -23.5 56.5t-56.5 23.5q-35 0 -57.5 -23.5t-22.5 -56.5zM1233 1124q0 -33 22.5 -55t57.5 -22q33 0 56.5 22t23.5 55t-23.5 56.5t-56.5 23.5q-35 0 -57.5 -23.5t-22.5 -56.5z" />
<glyph unicode="n" horiz-adv-x="1329" d="M76 0v1288h397l389 -645v645h391v-1288h-366l-416 618v-618h-395zM193 176q0 -33 23 -56.5t56 -23.5q35 0 56.5 23.5t21.5 56.5t-21.5 55.5t-56.5 22.5q-33 0 -56 -22.5t-23 -55.5zM193 367q0 -35 23 -57.5t56 -22.5q35 0 56.5 22.5t21.5 57.5q0 33 -21.5 56t-56.5 23 q-33 0 -56 -23.5t-23 -55.5zM193 555q0 -33 23.5 -55.5t55.5 -22.5q35 0 56.5 22.5t21.5 55.5t-21.5 56.5t-56.5 23.5q-33 0 -56 -23.5t-23 -56.5zM193 745q0 -33 23 -56t56 -23q35 0 56.5 23.5t21.5 55.5q0 35 -21.5 56.5t-56.5 21.5q-33 0 -56 -21.5t-23 -56.5zM193 936 q0 -35 23 -57.5t56 -22.5q35 0 56.5 22.5t21.5 57.5q0 33 -21.5 56.5t-56.5 23.5q-33 0 -56 -23.5t-23 -56.5zM193 1124q0 -33 23.5 -55t55.5 -22q35 0 56.5 22t21.5 55t-21.5 56.5t-56.5 23.5q-33 0 -56 -23.5t-23 -56.5zM356 1010q0 -31 23.5 -55.5t56.5 -24.5t55.5 23.5 t22.5 56.5t-22.5 56.5t-55.5 23.5t-56.5 -24t-23.5 -56zM457 834q0 -33 23.5 -56.5t56.5 -23.5t56 23.5t23 56.5t-23.5 55t-55.5 22q-33 0 -56.5 -22.5t-23.5 -54.5zM575 657q0 -35 23 -57t55 -22q33 0 56.5 22t23.5 57q0 31 -24.5 55.5t-55.5 24.5q-33 0 -55.5 -23.5 t-22.5 -56.5zM705 465q0 -35 23.5 -57.5t55.5 -22.5q35 0 57.5 22.5t22.5 57.5q0 33 -22.5 55.5t-57.5 22.5q-31 0 -55 -23.5t-24 -54.5zM823 303q0 -35 22.5 -57.5t55.5 -22.5t56.5 23.5t23.5 56.5t-22.5 55.5t-57.5 22.5q-33 0 -55.5 -22.5t-22.5 -55.5zM983 176 q0 -33 23.5 -56.5t56.5 -23.5q35 0 57.5 23.5t22.5 56.5t-22.5 55.5t-57.5 22.5q-33 0 -56.5 -22.5t-23.5 -55.5zM983 367q0 -35 23.5 -57.5t56.5 -22.5q35 0 57.5 22.5t22.5 57.5q0 33 -22.5 56t-57.5 23q-33 0 -56.5 -23.5t-23.5 -55.5zM983 555q0 -33 23.5 -55.5 t56.5 -22.5q35 0 57.5 22.5t22.5 55.5t-22.5 56.5t-57.5 23.5q-33 0 -56.5 -23.5t-23.5 -56.5zM983 745q0 -33 23.5 -56t56.5 -23q35 0 57.5 23t22.5 56q0 35 -22.5 56.5t-57.5 21.5q-33 0 -56.5 -21.5t-23.5 -56.5zM983 936q0 -35 23.5 -57.5t56.5 -22.5q35 0 57.5 22.5 t22.5 57.5q0 33 -22.5 56.5t-57.5 23.5q-33 0 -56.5 -23.5t-23.5 -56.5zM983 1124q0 -33 23.5 -55t56.5 -22q35 0 57.5 22t22.5 55t-22.5 56.5t-57.5 23.5q-33 0 -56.5 -23.5t-23.5 -56.5z" />
<glyph unicode="o" horiz-adv-x="1466" d="M53 643q0 147 51.5 270t142.5 212t216 138.5t270 49.5q143 0 267 -50.5t216.5 -139.5t144.5 -212t52 -268t-52 -267t-143.5 -211t-216 -139.5t-268.5 -50.5q-145 0 -269 50.5t-215 139.5t-143.5 211t-52.5 267zM176 643q0 -33 21.5 -55.5t56.5 -22.5q33 0 56.5 22.5 t23.5 55.5q0 35 -23.5 57.5t-56.5 22.5q-35 0 -56.5 -22.5t-21.5 -57.5zM201 461q0 -31 24.5 -55.5t55.5 -24.5q33 0 56 23.5t23 56.5q0 35 -23.5 57.5t-55.5 22.5q-33 0 -56.5 -22.5t-23.5 -57.5zM205 827q0 -31 23.5 -55t56.5 -24t55 23.5t22 55.5q0 35 -22.5 57.5 t-54.5 22.5q-33 0 -56.5 -22.5t-23.5 -57.5zM303 303q0 -33 22.5 -56.5t55.5 -23.5t56.5 24.5t23.5 55.5q0 33 -23.5 55.5t-56.5 22.5t-55.5 -22.5t-22.5 -55.5zM303 983q0 -33 22.5 -55.5t55.5 -22.5t56.5 22.5t23.5 55.5t-23.5 56.5t-56.5 23.5t-55.5 -23.5t-22.5 -56.5z M453 643q0 -147 75.5 -226t204.5 -79q125 0 203 79t78 226t-78 227t-203 80q-129 0 -204.5 -78.5t-75.5 -228.5zM459 201q0 -33 22.5 -55.5t57.5 -22.5q31 0 55 22.5t24 55.5t-23.5 56.5t-55.5 23.5q-35 0 -57.5 -24t-22.5 -56zM459 1085q0 -33 22.5 -56t57.5 -23 q31 0 55 24t24 55q0 33 -23.5 56.5t-55.5 23.5q-35 0 -57.5 -23.5t-22.5 -56.5zM653 156q0 -33 23.5 -56.5t56.5 -23.5q35 0 56.5 23.5t21.5 56.5t-21.5 55t-56.5 22q-33 0 -56.5 -22.5t-23.5 -54.5zM653 1135q0 -35 23.5 -57.5t56.5 -22.5q35 0 56.5 22.5t21.5 57.5 q0 33 -21.5 55t-56.5 22q-31 0 -55.5 -23.5t-24.5 -53.5zM848 201q0 -33 24.5 -55.5t55.5 -22.5q35 0 56.5 22.5t21.5 55.5t-21.5 56.5t-56.5 23.5q-33 0 -56.5 -24t-23.5 -56zM848 1085q0 -31 24.5 -55t55.5 -24q35 0 56.5 23.5t21.5 55.5q0 33 -21.5 56.5t-56.5 23.5 q-33 0 -56.5 -23.5t-23.5 -56.5zM1006 303q0 -31 23.5 -55.5t53.5 -24.5q33 0 56.5 23.5t23.5 56.5t-23.5 55.5t-56.5 22.5t-55 -22.5t-22 -55.5zM1006 983q0 -33 23.5 -55.5t53.5 -22.5q33 0 56.5 22.5t23.5 55.5t-23.5 56.5t-56.5 23.5t-55 -23.5t-22 -56.5zM1102 827 q0 -33 23.5 -56t56.5 -23q31 0 55.5 24t24.5 55q0 35 -24 57.5t-56 22.5q-33 0 -56.5 -22.5t-23.5 -57.5zM1106 461q0 -33 23.5 -56.5t56.5 -23.5q31 0 54.5 24.5t23.5 55.5q0 35 -22.5 57.5t-55.5 22.5t-56.5 -22.5t-23.5 -57.5zM1133 643q0 -33 22.5 -55.5t54.5 -22.5 q35 0 57.5 22.5t22.5 55.5q0 35 -22.5 57.5t-57.5 22.5q-33 0 -55 -22.5t-22 -57.5z" />
<glyph unicode="p" horiz-adv-x="1038" d="M76 0v1288h469q104 0 190 -30.5t147.5 -89t95.5 -140.5t34 -186q0 -217 -122 -335t-358 -118h-57v-389h-399zM193 176q0 -33 23 -56.5t56 -23.5q35 0 56.5 23.5t21.5 56.5t-21.5 55.5t-56.5 22.5q-33 0 -56 -22.5t-23 -55.5zM193 367q0 -35 23 -57.5t56 -22.5 q35 0 56.5 22.5t21.5 57.5q0 33 -21.5 56t-56.5 23q-33 0 -56 -23.5t-23 -55.5zM193 555q0 -33 23.5 -55.5t55.5 -22.5q35 0 56.5 22.5t21.5 55.5t-21.5 56.5t-56.5 23.5q-33 0 -56 -23.5t-23 -56.5zM193 745q0 -33 23 -56t56 -23q35 0 56.5 23.5t21.5 55.5q0 35 -21.5 56.5 t-56.5 21.5q-33 0 -56 -21.5t-23 -56.5zM193 936q0 -35 23 -57.5t56 -22.5q35 0 56.5 22.5t21.5 57.5q0 33 -21.5 56.5t-56.5 23.5q-33 0 -56 -23.5t-23 -56.5zM193 1124q0 -33 23.5 -55t55.5 -22q35 0 56.5 22t21.5 55t-21.5 56.5t-56.5 23.5q-33 0 -56 -23.5t-23 -56.5z M371 1130q0 -33 22.5 -56t55.5 -23t56 23t23 54q0 33 -22.5 55.5t-56.5 22.5q-33 0 -55.5 -21.5t-22.5 -54.5zM377 565q0 -35 23.5 -57.5t56.5 -22.5t55.5 22.5t22.5 57.5q0 33 -23 55.5t-55 22.5q-33 0 -56.5 -22.5t-23.5 -55.5zM475 725q76 2 104.5 32.5t28.5 88.5 q0 59 -28.5 87t-104.5 28v-236zM543 1118q0 -35 22.5 -57.5t57.5 -22.5q33 0 56 22.5t23 57.5q0 31 -24.5 55.5t-54.5 24.5q-35 0 -57.5 -23.5t-22.5 -56.5zM551 582q0 -33 23.5 -56.5t54.5 -23.5q33 0 56.5 22.5t23.5 57.5q0 33 -23.5 56.5t-56.5 23.5t-55.5 -24t-22.5 -56 zM684 1014q0 -35 23.5 -57.5t56.5 -22.5t56.5 23.5t23.5 56.5t-22.5 55.5t-57.5 22.5q-33 0 -56.5 -22.5t-23.5 -55.5zM705 678q0 -35 22.5 -57.5t54.5 -22.5q35 0 57.5 22.5t22.5 57.5q0 33 -22.5 56.5t-57.5 23.5q-31 0 -54 -24.5t-23 -55.5zM725 850q0 -33 22.5 -57.5 t55.5 -24.5t56.5 24.5t23.5 55.5q0 33 -22.5 56.5t-57.5 23.5q-33 0 -55.5 -22.5t-22.5 -55.5z" />
<glyph unicode="q" horiz-adv-x="1460" d="M51 643q0 147 51.5 270t142.5 212t216 138.5t270 49.5q143 0 267 -50.5t216.5 -139.5t144.5 -212t52 -268q0 -211 -113 -379l95 -96l-195 -197l-104 101q-164 -96 -363 -97q-145 0 -269 50.5t-215 139.5t-143.5 211t-52.5 267zM186 643q0 -33 21.5 -55.5t56.5 -22.5 q33 0 56.5 22.5t23.5 55.5q0 35 -23.5 57.5t-56.5 22.5q-35 0 -56.5 -22.5t-21.5 -57.5zM217 465q0 -31 23.5 -55.5t54.5 -24.5q33 0 56.5 23.5t23.5 56.5q0 35 -23.5 56.5t-56.5 21.5t-55.5 -21.5t-22.5 -56.5zM217 821q0 -31 23.5 -55.5t54.5 -24.5q33 0 56.5 23.5 t23.5 56.5q0 35 -23.5 56.5t-56.5 21.5t-55.5 -21.5t-22.5 -56.5zM317 315q0 -33 24 -56t56 -23q31 0 55.5 24t24.5 55q0 33 -23.5 55.5t-56.5 22.5t-56.5 -22.5t-23.5 -55.5zM317 973q0 -33 24 -56.5t56 -23.5q31 0 55.5 23.5t24.5 56.5t-23.5 55.5t-56.5 22.5t-56.5 -22.5 t-23.5 -55.5zM451 643q0 -68 20.5 -123t58 -96t89 -63.5t112.5 -22.5q47 0 84 12l-84 82l203 203l70 -70q4 18 6 39t2 39q0 68 -20.5 124t-57.5 97t-89 63.5t-114 22.5q-61 0 -112.5 -22.5t-89 -63.5t-58 -97t-20.5 -124zM463 201q0 -33 22.5 -55.5t57.5 -22.5 q31 0 54.5 22.5t23.5 55.5t-23 56.5t-55 23.5q-35 0 -57.5 -24t-22.5 -56zM463 1085q0 -33 22.5 -56t57.5 -23q31 0 54.5 24.5t23.5 54.5q0 33 -23 56.5t-55 23.5q-35 0 -57.5 -23.5t-22.5 -56.5zM643 156q0 -33 23.5 -56.5t56.5 -23.5q35 0 56.5 23.5t21.5 56.5t-21.5 55 t-56.5 22q-33 0 -56.5 -22.5t-23.5 -54.5zM643 1135q0 -35 23.5 -57.5t56.5 -22.5q35 0 56.5 22.5t21.5 57.5q0 33 -21.5 55t-56.5 22q-31 0 -55.5 -23.5t-24.5 -53.5zM844 201q0 -33 22.5 -55.5t55.5 -22.5t56 22.5t23 55.5t-22.5 56.5t-56.5 23.5q-33 0 -55.5 -24 t-22.5 -56zM844 1085q0 -33 22.5 -56t55.5 -23t56 24t23 55q0 33 -22.5 56.5t-56.5 23.5q-33 0 -55.5 -23.5t-22.5 -56.5zM856 446q0 -35 22.5 -57t57.5 -22q33 0 56.5 22t23.5 57q0 33 -23.5 55.5t-56.5 22.5t-56.5 -23.5t-23.5 -54.5zM987 315q0 -33 23.5 -56t56.5 -23 q31 0 54.5 24.5t23.5 54.5q0 33 -22.5 55.5t-55.5 22.5t-56.5 -22.5t-23.5 -55.5zM987 973q0 -33 23.5 -56.5t56.5 -23.5q31 0 54.5 23.5t23.5 56.5t-22.5 55.5t-55.5 22.5t-56.5 -22.5t-23.5 -55.5zM1087 465q0 -33 23.5 -56.5t56.5 -23.5t55.5 23.5t22.5 56.5 q0 35 -22.5 56.5t-55.5 21.5t-56.5 -21.5t-23.5 -56.5zM1087 821q0 -33 23.5 -56.5t56.5 -23.5t55.5 23.5t22.5 56.5q0 35 -22.5 56.5t-55.5 21.5t-56.5 -21.5t-23.5 -56.5zM1120 643q0 -33 22.5 -55.5t55.5 -22.5q35 0 57.5 22.5t22.5 55.5t-23.5 56.5t-56.5 23.5 t-55.5 -22.5t-22.5 -57.5zM1122 174q0 -33 22.5 -56.5t55.5 -23.5t56.5 24.5t23.5 55.5q0 35 -22.5 56.5t-57.5 21.5q-33 0 -55.5 -21.5t-22.5 -56.5z" />
<glyph unicode="r" horiz-adv-x="1167" d="M76 0v1288h489q111 0 202 -30.5t155.5 -86t99.5 -135.5t35 -178q0 -135 -63.5 -228t-174.5 -126l326 -504h-483l-187 360v-360h-399zM193 176q0 -33 23 -56.5t56 -23.5q35 0 56.5 23.5t21.5 56.5t-21.5 55.5t-56.5 22.5q-33 0 -56 -22.5t-23 -55.5zM193 367 q0 -35 23 -57.5t56 -22.5q35 0 56.5 22.5t21.5 57.5q0 33 -21.5 56t-56.5 23q-33 0 -56 -23.5t-23 -55.5zM193 555q0 -33 23.5 -55.5t55.5 -22.5q35 0 56.5 22.5t21.5 55.5t-21.5 56.5t-56.5 23.5q-33 0 -56 -23.5t-23 -56.5zM193 745q0 -33 23 -56t56 -23q35 0 56.5 23.5 t21.5 55.5q0 35 -21.5 56.5t-56.5 21.5q-33 0 -56 -21.5t-23 -56.5zM193 936q0 -35 23 -57.5t56 -22.5q35 0 56.5 22.5t21.5 57.5q0 33 -21.5 56.5t-56.5 23.5q-33 0 -56 -23.5t-23 -56.5zM193 1124q0 -33 23.5 -55t55.5 -22q35 0 56.5 22t21.5 55t-21.5 56.5t-56.5 23.5 q-33 0 -56 -23.5t-23 -56.5zM365 565q0 -35 22 -57.5t57 -22.5q33 0 55.5 22.5t22.5 57.5q0 33 -22.5 55.5t-55.5 22.5q-35 0 -57 -22.5t-22 -55.5zM385 1130q0 -33 23.5 -56t56.5 -23t55.5 23t22.5 54q0 33 -21.5 55.5t-56.5 22.5q-33 0 -56.5 -21.5t-23.5 -54.5zM475 725 h43q133 0 133 121q0 115 -141 115h-35v-236zM551 565q0 -33 22.5 -56.5t55.5 -23.5t56.5 23.5t23.5 56.5q0 35 -23.5 56.5t-56.5 21.5q-31 0 -54.5 -22.5t-23.5 -55.5zM575 1118q0 -35 23 -57.5t55 -22.5q33 0 56.5 22.5t23.5 57.5q0 31 -24.5 55.5t-55.5 24.5 q-33 0 -55.5 -23.5t-22.5 -56.5zM627 367q0 -33 22.5 -56.5t55.5 -23.5q35 0 57 23.5t22 56.5q0 35 -22.5 57t-56.5 22q-31 0 -54.5 -23.5t-23.5 -55.5zM700 672q0 -33 22.5 -56.5t57.5 -23.5q33 0 55.5 23.5t22.5 56.5t-22.5 55.5t-55.5 22.5t-56.5 -24t-23.5 -54zM723 172 q0 -33 21.5 -56.5t56.5 -23.5q33 0 56.5 23.5t23.5 56.5q0 35 -23.5 57.5t-56.5 22.5t-55.5 -23.5t-22.5 -56.5zM733 1014q0 -35 22.5 -57.5t55.5 -22.5t56.5 23.5t23.5 56.5t-23.5 55.5t-56.5 22.5t-55.5 -22.5t-22.5 -55.5zM772 842q0 -33 23.5 -56.5t56.5 -23.5 q31 0 54.5 23.5t23.5 56.5t-22.5 55.5t-55.5 22.5t-56.5 -21.5t-23.5 -56.5z" />
<glyph unicode="s" horiz-adv-x="1058" d="M57 901q0 100 36 177t98.5 129.5t144.5 79t174 26.5q80 0 152.5 -15.5t132 -52.5t100.5 -95t57 -144l-334 -127q-8 45 -29.5 82.5t-76.5 37.5q-33 0 -55.5 -17t-22.5 -48q0 -29 17.5 -47.5t42 -30.5t52 -20.5t50.5 -14.5q70 -23 142.5 -52.5t127.5 -76.5q66 -57 103 -131 t37 -155q0 -106 -39 -187.5t-106.5 -134.5t-156 -81t-186.5 -28q-80 0 -155.5 18.5t-137 58.5t-102.5 102.5t-53 150.5l350 111q0 -49 32.5 -75t79.5 -26q33 0 58.5 14.5t25.5 51.5q0 20 -17 36.5t-42 29t-52.5 22.5t-47.5 20q-80 33 -155 64t-134 90q-51 49 -81 117.5 t-30 140.5zM172 907q0 -33 23.5 -56.5t56.5 -23.5q35 0 56.5 23.5t21.5 56.5t-21.5 55.5t-56.5 22.5q-33 0 -56.5 -22.5t-23.5 -55.5zM250 1092q0 -33 23.5 -56.5t54.5 -23.5q33 0 56.5 23.5t23.5 56.5t-24 55t-56 22q-33 0 -55.5 -22.5t-22.5 -54.5zM252 236 q0 -31 21.5 -55.5t54.5 -24.5t57.5 23.5t24.5 56.5q0 35 -24 57t-56 22q-33 0 -55.5 -23.5t-22.5 -55.5zM270 743q0 -33 23.5 -56t56.5 -23q35 0 56.5 23.5t21.5 55.5q0 35 -21.5 57.5t-56.5 22.5q-33 0 -56.5 -22.5t-23.5 -57.5zM442 1151q0 -31 23.5 -55.5t56.5 -24.5 t55.5 23.5t22.5 56.5q0 35 -22.5 57.5t-55.5 22.5q-35 0 -57.5 -22.5t-22.5 -57.5zM446 162q0 -35 23.5 -57.5t58.5 -22.5q33 0 55.5 22.5t22.5 57.5q0 33 -23.5 56.5t-56.5 23.5t-56.5 -24.5t-23.5 -55.5zM453 651q0 -33 23 -56.5t56 -23.5q31 0 54.5 23.5t23.5 56.5 t-22.5 55.5t-55.5 22.5t-56 -22.5t-23 -55.5zM627 567q0 -33 22.5 -55.5t55.5 -22.5t56 22.5t23 55.5q0 31 -23.5 55.5t-55.5 24.5q-33 0 -55.5 -23.5t-22.5 -56.5zM633 217q0 -33 24.5 -56.5t57.5 -23.5t54.5 23.5t21.5 56.5q0 35 -21.5 56.5t-56.5 21.5q-31 0 -55.5 -22.5 t-24.5 -55.5zM633 1092q0 -33 23.5 -55.5t56.5 -22.5t55.5 21.5t22.5 56.5q0 33 -21.5 57.5t-54.5 24.5q-35 0 -58.5 -25t-23.5 -57zM725 399q0 -33 23.5 -56.5t56.5 -23.5q31 0 55.5 24.5t24.5 55.5q0 33 -23.5 56.5t-56.5 23.5t-56.5 -23.5t-23.5 -56.5z" />
<glyph unicode="t" horiz-adv-x="1138" d="M35 952v336h1069v-336h-336v-952h-397v952h-336zM113 1124q0 -33 23.5 -55t56.5 -22t56 22t23 55t-23.5 56.5t-55.5 23.5q-33 0 -56.5 -23.5t-23.5 -56.5zM303 1124q0 -33 22.5 -55t55.5 -22q35 0 57.5 22t22.5 55t-22.5 56.5t-57.5 23.5q-33 0 -55.5 -23.5t-22.5 -56.5z M494 176q0 -33 22 -56.5t57 -23.5q33 0 55.5 23.5t22.5 56.5t-22.5 55.5t-55.5 22.5q-35 0 -57 -22.5t-22 -55.5zM494 367q0 -35 22 -57.5t57 -22.5q33 0 55.5 22.5t22.5 57.5q0 33 -22.5 56t-55.5 23q-35 0 -57 -23.5t-22 -55.5zM494 555q0 -33 22.5 -55.5t56.5 -22.5 q33 0 55.5 22.5t22.5 55.5t-22.5 56.5t-55.5 23.5q-35 0 -57 -23.5t-22 -56.5zM494 745q0 -33 22 -56t57 -23q33 0 55.5 23.5t22.5 55.5q0 35 -22.5 56.5t-55.5 21.5q-35 0 -57 -21.5t-22 -56.5zM494 936q0 -35 22 -57.5t57 -22.5q33 0 55.5 22.5t22.5 57.5q0 33 -22.5 56.5 t-55.5 23.5q-35 0 -57 -23.5t-22 -56.5zM494 1124q0 -33 22.5 -55t56.5 -22q33 0 55.5 22t22.5 55t-22.5 56.5t-55.5 23.5q-35 0 -57 -23.5t-22 -56.5zM682 1124q0 -33 23.5 -55t56.5 -22t56.5 22t23.5 55t-23.5 56.5t-56.5 23.5t-56.5 -23.5t-23.5 -56.5zM874 1124 q0 -33 22 -55t56 -22q33 0 56.5 22t23.5 55t-23.5 56.5t-56.5 23.5q-35 0 -56.5 -23.5t-21.5 -56.5z" />
<glyph unicode="u" horiz-adv-x="1214" d="M68 475v813h399v-778q0 -92 31.5 -133t107.5 -41q78 0 110 41t32 133v778h397v-813q0 -117 -38 -210t-107.5 -157.5t-169 -98.5t-224.5 -34q-123 0 -223 34t-170 98.5t-107.5 157.5t-37.5 210zM176 555q0 -33 22.5 -55.5t55.5 -22.5t56.5 22.5t23.5 55.5t-23.5 56.5 t-56.5 23.5t-55.5 -23.5t-22.5 -56.5zM176 745q0 -33 22.5 -56t55.5 -23t56.5 23t23.5 56q0 35 -23.5 56.5t-56.5 21.5t-55.5 -21.5t-22.5 -56.5zM176 936q0 -35 22.5 -57.5t55.5 -22.5t56.5 22.5t23.5 57.5q0 33 -23.5 56.5t-56.5 23.5t-55.5 -23.5t-22.5 -56.5zM176 1124 q0 -33 22.5 -55t55.5 -22t56.5 22t23.5 55t-23.5 56.5t-56.5 23.5t-55.5 -23.5t-22.5 -56.5zM221 367q0 -35 22.5 -57.5t57.5 -22.5q33 0 56.5 22.5t23.5 57.5q0 33 -23.5 56t-56.5 23q-35 0 -57.5 -23.5t-22.5 -55.5zM340 211q0 -33 22.5 -55.5t57.5 -22.5q31 0 55.5 23.5 t24.5 54.5q0 35 -23.5 57.5t-56.5 22.5q-35 0 -57.5 -22.5t-22.5 -57.5zM532 164q0 -35 23 -57.5t55 -22.5q33 0 56.5 22.5t23.5 57.5q0 31 -24.5 54.5t-55.5 23.5q-33 0 -55.5 -22.5t-22.5 -55.5zM709 211q0 -33 23.5 -55.5t55.5 -22.5q33 0 55.5 22.5t22.5 55.5 q0 35 -22.5 57.5t-55.5 22.5t-56 -22.5t-23 -57.5zM827 367q0 -35 23.5 -57.5t56.5 -22.5t55.5 22.5t22.5 57.5q0 33 -22.5 56t-55.5 23t-56.5 -23.5t-23.5 -55.5zM874 555q0 -33 22 -55.5t56 -22.5q33 0 56.5 22.5t23.5 55.5t-23.5 56.5t-56.5 23.5q-35 0 -56.5 -23.5 t-21.5 -56.5zM874 745q0 -33 22 -56t56 -23q33 0 56.5 23t23.5 56q0 35 -23.5 56.5t-56.5 21.5q-35 0 -56.5 -21.5t-21.5 -56.5zM874 936q0 -35 22 -57.5t56 -22.5q33 0 56.5 22.5t23.5 57.5q0 33 -23.5 56.5t-56.5 23.5q-35 0 -56.5 -23.5t-21.5 -56.5zM874 1124 q0 -33 22 -55t56 -22q33 0 56.5 22t23.5 55t-23.5 56.5t-56.5 23.5q-35 0 -56.5 -23.5t-21.5 -56.5z" />
<glyph unicode="v" horiz-adv-x="1200" d="M12 1288h426l170 -692l172 692h408l-408 -1288h-360zM186 1145q0 -33 22.5 -56.5t55.5 -23.5q35 0 57.5 23.5t22.5 56.5t-22.5 55.5t-57.5 22.5q-33 0 -55.5 -22.5t-22.5 -55.5zM242 979q0 -33 22.5 -56.5t57.5 -23.5q31 0 55 24.5t24 55.5q0 35 -23.5 57.5t-55.5 22.5 q-35 0 -57.5 -22.5t-22.5 -57.5zM297 815q0 -35 22.5 -56.5t57.5 -21.5q31 0 55.5 22.5t24.5 55.5t-23.5 56.5t-56.5 23.5q-35 0 -57.5 -23.5t-22.5 -56.5zM346 651q0 -33 23.5 -56.5t54.5 -23.5q35 0 57.5 23.5t22.5 56.5t-22.5 55.5t-57.5 22.5q-33 0 -55.5 -22.5 t-22.5 -55.5zM399 485q0 -31 23.5 -55t56.5 -24t55.5 23.5t22.5 55.5q0 35 -22.5 57.5t-55.5 22.5q-35 0 -57.5 -22.5t-22.5 -57.5zM442 322q0 -35 23.5 -57.5t56.5 -22.5q35 0 56.5 22.5t21.5 57.5q0 31 -18.5 56t-49.5 25q-35 0 -62.5 -22.5t-27.5 -58.5zM518 156 q0 -33 21.5 -55.5t56.5 -22.5q33 0 56.5 23.5t23.5 54.5q0 33 -23.5 56.5t-56.5 23.5q-35 0 -56.5 -24t-21.5 -56zM618 322q0 -35 22 -57.5t56 -22.5q31 0 55.5 23.5t24.5 56.5q0 37 -27.5 59t-64.5 22q-29 0 -47.5 -25.5t-18.5 -55.5zM662 485q0 -33 22.5 -56t54.5 -23 q33 0 56.5 24t23.5 55q0 35 -22.5 57.5t-57.5 22.5q-33 0 -55 -22.5t-22 -57.5zM713 651q0 -33 22.5 -56.5t55.5 -23.5t56 23.5t23 56.5t-23.5 55.5t-55.5 22.5q-35 0 -56.5 -22.5t-21.5 -55.5zM762 815q0 -33 24.5 -55.5t55.5 -22.5q35 0 56.5 21.5t21.5 56.5 q0 33 -21.5 56.5t-56.5 23.5q-33 0 -56.5 -23.5t-23.5 -56.5zM817 979q0 -33 23.5 -56.5t56.5 -23.5q35 0 56.5 23.5t21.5 56.5q0 35 -21.5 57.5t-56.5 22.5q-33 0 -56.5 -22.5t-23.5 -57.5zM874 1145q0 -33 22 -56.5t56 -23.5q33 0 56.5 23.5t23.5 56.5t-23.5 55.5 t-56.5 22.5q-35 0 -56.5 -22.5t-21.5 -55.5z" />
<glyph unicode="w" horiz-adv-x="1898" d="M12 1288h426l170 -692l174 692h355l170 -692l172 692h407l-407 -1288h-361l-164 625l-172 -625h-362zM188 1145q0 -33 21.5 -56.5t56.5 -23.5q33 0 56.5 23.5t23.5 56.5t-23.5 55.5t-56.5 22.5q-35 0 -56.5 -22.5t-21.5 -55.5zM238 979q0 -33 22.5 -56.5t56.5 -23.5 q31 0 55.5 24.5t24.5 55.5q0 35 -23.5 57.5t-56.5 22.5q-35 0 -57 -22.5t-22 -57.5zM289 815q0 -35 23.5 -56.5t56.5 -21.5q31 0 55.5 22.5t24.5 55.5t-24 56.5t-56 23.5q-33 0 -56.5 -23.5t-23.5 -56.5zM334 651q0 -33 22.5 -56.5t55.5 -23.5t56.5 23.5t23.5 56.5t-24 55.5 t-56 22.5q-35 0 -56.5 -22.5t-21.5 -55.5zM379 481q0 -31 23.5 -55.5t56.5 -24.5t55.5 24t22.5 56q0 35 -22.5 57.5t-55.5 22.5t-56.5 -22.5t-23.5 -57.5zM434 317q0 -33 22.5 -56t55.5 -23q35 0 57.5 23t22.5 56t-22.5 55.5t-57.5 22.5q-33 0 -55.5 -22.5t-22.5 -55.5z M524 164q0 -33 22.5 -55.5t55.5 -22.5t56.5 23.5t23.5 54.5q0 33 -23.5 56.5t-56.5 23.5t-55.5 -23.5t-22.5 -56.5zM612 317q0 -33 22.5 -56t55.5 -23q35 0 57.5 23t22.5 56t-22.5 55.5t-57.5 22.5q-33 0 -55.5 -22.5t-22.5 -55.5zM664 483q0 -33 22.5 -56.5t56.5 -23.5 q31 0 55.5 24.5t24.5 55.5q0 35 -23.5 57.5t-56.5 22.5q-35 0 -57 -22.5t-22 -57.5zM713 651q0 -33 23.5 -56.5t54.5 -23.5q33 0 56 23.5t23 56.5t-23.5 55.5t-55.5 22.5q-33 0 -55.5 -22.5t-22.5 -55.5zM756 817q0 -33 22.5 -56.5t55.5 -23.5q35 0 57 23.5t22 56.5 t-22.5 55.5t-56.5 22.5q-33 0 -55.5 -22.5t-22.5 -55.5zM795 987q0 -33 24.5 -55.5t54.5 -22.5q35 0 56.5 22.5t21.5 55.5t-21.5 56.5t-56.5 23.5q-33 0 -56 -23.5t-23 -56.5zM879 1145q0 -33 22.5 -56.5t56.5 -23.5q33 0 55.5 23.5t22.5 56.5t-22.5 55.5t-55.5 22.5 q-35 0 -57 -22.5t-22 -55.5zM963 987q0 -33 21.5 -55.5t55.5 -22.5q31 0 55.5 22.5t24.5 55.5t-23.5 56.5t-56.5 23.5q-35 0 -56 -23.5t-21 -56.5zM1001 817q0 -33 23 -56.5t57 -23.5q33 0 55.5 23.5t22.5 56.5t-22.5 55.5t-55.5 22.5q-35 0 -57.5 -22.5t-22.5 -55.5z M1044 651q0 -33 24 -56.5t56 -23.5q31 0 54.5 23.5t23.5 56.5t-22.5 55.5t-55.5 22.5t-56.5 -22.5t-23.5 -55.5zM1092 483q0 -31 24.5 -55.5t54.5 -24.5q35 0 57.5 24t22.5 56q0 35 -22.5 57.5t-57.5 22.5q-33 0 -56 -22.5t-23 -57.5zM1145 317q0 -33 22.5 -56t57.5 -23 q33 0 55.5 23.5t22.5 55.5q0 33 -23 55.5t-55 22.5q-35 0 -57.5 -22.5t-22.5 -55.5zM1233 164q0 -31 23.5 -54.5t56.5 -23.5t55.5 22.5t22.5 55.5t-22.5 56.5t-55.5 23.5t-56.5 -23.5t-23.5 -56.5zM1323 317q0 -33 22.5 -56t57.5 -23q33 0 55.5 23.5t22.5 55.5 q0 33 -22.5 55.5t-55.5 22.5q-35 0 -57.5 -22.5t-22.5 -55.5zM1378 481q0 -33 22.5 -56.5t55.5 -23.5t56.5 25t23.5 55q0 35 -23.5 57.5t-56.5 22.5t-55.5 -22.5t-22.5 -57.5zM1423 651q0 -33 23.5 -56.5t56.5 -23.5t55.5 23.5t22.5 56.5t-21.5 55.5t-56.5 22.5 q-33 0 -56.5 -22.5t-23.5 -55.5zM1466 815q0 -33 25 -55.5t55 -22.5q33 0 56.5 21.5t23.5 56.5q0 33 -23.5 56.5t-56.5 23.5t-56.5 -23.5t-23.5 -56.5zM1518 979q0 -31 24.5 -55.5t54.5 -24.5q35 0 57.5 23.5t22.5 56.5q0 35 -22.5 57.5t-57.5 22.5q-33 0 -56 -22.5 t-23 -57.5zM1569 1145q0 -33 23.5 -56.5t56.5 -23.5q35 0 56 23.5t21 56.5t-21.5 55.5t-55.5 22.5q-33 0 -56.5 -22.5t-23.5 -55.5z" />
<glyph unicode="x" horiz-adv-x="1273" d="M8 0l393 688l-350 600h461l133 -276l129 276h457l-354 -600l391 -688h-465l-170 356l-166 -356h-459zM254 168q0 -35 22.5 -56.5t57.5 -21.5q33 0 56.5 21.5t23.5 56.5q0 33 -23.5 56.5t-56.5 23.5q-35 0 -57.5 -23.5t-22.5 -56.5zM264 1155q0 -35 22.5 -57.5t55.5 -22.5 t56.5 22.5t23.5 57.5q0 33 -23.5 55.5t-56.5 22.5t-55.5 -22.5t-22.5 -55.5zM346 332q0 -33 22.5 -56.5t55.5 -23.5t56.5 24.5t23.5 55.5q0 35 -23.5 57.5t-56.5 22.5t-55.5 -22.5t-22.5 -57.5zM358 991q0 -33 22.5 -56.5t55.5 -23.5q35 0 57.5 23.5t22.5 56.5t-22.5 55.5 t-57.5 22.5q-33 0 -55.5 -22.5t-22.5 -55.5zM453 502q0 -35 23.5 -56.5t55.5 -21.5q33 0 55.5 22.5t22.5 55.5t-21.5 56.5t-56.5 23.5q-33 0 -56 -23.5t-23 -56.5zM469 827q0 -33 22.5 -56t57.5 -23q33 0 56.5 23t23.5 56t-23.5 56.5t-56.5 23.5q-35 0 -57.5 -23.5 t-22.5 -56.5zM543 664q0 -33 22.5 -55.5t55.5 -22.5t56 22.5t23 55.5q0 35 -23.5 57t-55.5 22q-33 0 -55.5 -22.5t-22.5 -56.5zM651 827q0 -33 22.5 -56t55.5 -23q35 0 57.5 23t22.5 56t-22.5 56.5t-57.5 23.5q-33 0 -55.5 -23.5t-22.5 -56.5zM666 502q0 -33 23.5 -55.5 t55.5 -22.5q33 0 55.5 21.5t22.5 56.5q0 33 -22.5 56.5t-55.5 23.5q-35 0 -57 -23.5t-22 -56.5zM758 991q0 -33 23.5 -56.5t56.5 -23.5t56.5 23.5t23.5 56.5t-24 55.5t-56 22.5q-33 0 -56.5 -22.5t-23.5 -55.5zM768 332q0 -33 23.5 -56.5t56.5 -23.5q35 0 57.5 23.5 t22.5 56.5q0 35 -22.5 57.5t-57.5 22.5q-33 0 -56.5 -22.5t-23.5 -57.5zM848 1155q0 -35 23.5 -57.5t56.5 -22.5q35 0 56.5 22.5t21.5 57.5q0 31 -22.5 54.5t-55.5 23.5t-56.5 -22.5t-23.5 -55.5zM852 168q0 -35 22.5 -56.5t55.5 -21.5q35 0 57.5 21.5t22.5 56.5 q0 33 -22.5 56.5t-57.5 23.5q-33 0 -55.5 -23.5t-22.5 -56.5z" />
<glyph unicode="y" horiz-adv-x="1241" d="M2 1288h455l164 -348l163 348h455l-418 -715v-573h-401v573zM231 1155q0 -35 22.5 -57.5t55.5 -22.5t56.5 22.5t23.5 57.5q0 31 -24.5 54.5t-55.5 23.5q-33 0 -55.5 -22.5t-22.5 -55.5zM326 975q0 -35 22.5 -56.5t54.5 -21.5q33 0 56.5 21.5t23.5 56.5q0 33 -23.5 56.5 t-56.5 23.5t-55 -23.5t-22 -56.5zM418 797q0 -35 24.5 -57.5t57.5 -22.5q35 0 55 22.5t20 57.5q0 33 -21.5 56.5t-55.5 23.5q-33 0 -56.5 -24t-23.5 -56zM541 188q0 -33 22.5 -55t54.5 -22q35 0 57.5 22t22.5 55q0 35 -22.5 57.5t-57.5 22.5q-33 0 -55 -22.5t-22 -57.5z M541 395q0 -33 22.5 -55.5t54.5 -22.5q35 0 57.5 22.5t22.5 55.5t-22.5 56.5t-57.5 23.5q-33 0 -55 -23.5t-22 -56.5zM541 618q0 -35 22.5 -57t54.5 -22q35 0 57.5 22t22.5 57q0 33 -22.5 55.5t-57.5 22.5q-33 0 -55 -22.5t-22 -55.5zM666 797q0 -35 23 -57.5t56 -22.5 t55.5 22.5t22.5 57.5q0 33 -22.5 56.5t-55.5 23.5t-56 -24t-23 -56zM772 975q0 -35 23.5 -56.5t56.5 -21.5q35 0 56.5 21.5t21.5 56.5q0 33 -21.5 56.5t-56.5 23.5q-33 0 -56.5 -23.5t-23.5 -56.5zM864 1155q0 -35 22.5 -57.5t55.5 -22.5t56.5 22.5t23.5 57.5 q0 31 -24.5 54.5t-55.5 23.5q-33 0 -55.5 -22.5t-22.5 -55.5z" />
<glyph unicode="z" horiz-adv-x="1159" d="M18 0l510 961h-473v327h1086l-508 -950h448v-338h-1063zM143 1106q0 -33 22.5 -56.5t55.5 -23.5q35 0 57.5 23.5t22.5 56.5t-22.5 56.5t-57.5 23.5q-31 0 -54.5 -24.5t-23.5 -55.5zM256 182q0 -35 22.5 -57.5t57.5 -22.5q31 0 54.5 24t23.5 56q0 33 -22.5 56.5 t-55.5 23.5q-35 0 -57.5 -23.5t-22.5 -56.5zM334 1106q0 -33 22.5 -56.5t57.5 -23.5q33 0 55.5 23.5t22.5 56.5t-23 56.5t-55 23.5q-33 0 -56.5 -24.5t-23.5 -55.5zM354 379q0 -33 22.5 -56.5t57.5 -23.5q33 0 55.5 23.5t22.5 56.5q0 31 -23.5 54.5t-54.5 23.5 q-35 0 -57.5 -22.5t-22.5 -55.5zM446 182q0 -35 23 -57.5t55 -22.5q31 0 55.5 23.5t24.5 56.5t-23.5 56.5t-56.5 23.5t-55.5 -23.5t-22.5 -56.5zM465 565q0 -35 22.5 -57.5t55.5 -22.5t56.5 22.5t23.5 57.5q0 33 -24 55.5t-56 22.5q-33 0 -55.5 -22.5t-22.5 -55.5zM522 1106 q0 -33 23.5 -56.5t56.5 -23.5t56.5 23.5t23.5 56.5t-23.5 56.5t-56.5 23.5q-31 0 -55.5 -24.5t-24.5 -55.5zM549 739q0 -35 23.5 -56t56.5 -21q31 0 54.5 22t23.5 55t-22.5 56.5t-55.5 23.5t-56.5 -23.5t-23.5 -56.5zM635 182q0 -35 23.5 -57.5t56.5 -22.5t55.5 24t22.5 56 q0 33 -21.5 56.5t-56.5 23.5q-33 0 -56.5 -23.5t-23.5 -56.5zM649 918q0 -35 21.5 -57.5t56.5 -22.5q33 0 56.5 22.5t23.5 57.5q0 31 -24.5 54t-55.5 23q-35 0 -56.5 -22.5t-21.5 -54.5zM715 1108q0 -33 23.5 -56.5t56.5 -23.5q35 0 57 23.5t22 56.5q0 31 -23.5 55.5 t-55.5 24.5q-33 0 -56.5 -23.5t-23.5 -56.5zM825 182q0 -35 23.5 -57.5t56.5 -22.5q31 0 54.5 24t23.5 56q0 33 -22.5 56.5t-55.5 23.5t-56.5 -23.5t-23.5 -56.5z" />
<glyph unicode="{" horiz-adv-x="636" d="M14 512v313h111q35 0 49 22.5t14 92.5v131q0 74 28 129t73 92t98 54.5t107 17.5h143v-277h-82q-47 0 -68.5 -39.5t-21.5 -152.5v-39q0 -127 -74 -194q41 -25 57.5 -72t16.5 -111v-141q0 -82 20.5 -106.5t61.5 -24.5h90v-279h-137q-51 0 -106.5 18.5t-100.5 56.5t-75 98.5 t-30 146.5v143q0 80 -16 100.5t-47 20.5h-111zM41 672q0 -33 23.5 -55.5t56.5 -22.5q35 0 56.5 22.5t21.5 55.5t-21.5 56.5t-56.5 23.5q-33 0 -56.5 -23.5t-23.5 -56.5zM209 532q0 -33 22.5 -56t55.5 -23q35 0 57.5 23t22.5 56t-22.5 55.5t-57.5 22.5q-33 0 -55.5 -22.5 t-22.5 -55.5zM209 758q0 -33 22.5 -56.5t55.5 -23.5q35 0 57.5 23.5t22.5 56.5t-22.5 55.5t-57.5 22.5q-33 0 -55.5 -22.5t-22.5 -55.5zM248 350q0 -33 23.5 -56.5t56.5 -23.5q35 0 56.5 23.5t21.5 56.5t-22 55.5t-56 22.5q-33 0 -56.5 -22.5t-23.5 -55.5zM248 940 q0 -33 23.5 -56.5t56.5 -23.5q35 0 56.5 23.5t21.5 56.5t-22 55.5t-56 22.5q-33 0 -56.5 -22.5t-23.5 -55.5zM281 164q0 -33 23 -56.5t56 -23.5q35 0 56.5 23.5t21.5 56.5t-21.5 55.5t-56.5 22.5q-33 0 -56 -22.5t-23 -55.5zM281 1124q0 -33 23.5 -55t55.5 -22q35 0 56.5 22 t21.5 55t-21.5 56.5t-56.5 23.5q-33 0 -56 -23.5t-23 -56.5zM432 66q0 -33 22.5 -56.5t55.5 -23.5q35 0 57.5 23.5t22.5 56.5t-22.5 56t-57.5 23q-33 0 -55.5 -23.5t-22.5 -55.5zM432 1223q0 -33 22.5 -55.5t55.5 -22.5q35 0 57.5 22.5t22.5 55.5t-22.5 56.5t-57.5 23.5 q-33 0 -55.5 -24t-22.5 -56z" />
<glyph unicode="|" horiz-adv-x="555" d="M127 -190v1669h299v-1669h-299zM193 -16q0 -33 23.5 -55.5t55.5 -22.5q35 0 56.5 22.5t21.5 55.5t-21.5 56t-56.5 23q-33 0 -56 -23.5t-23 -55.5zM193 176q0 -35 23 -57.5t56 -22.5q35 0 56.5 22.5t21.5 57.5q0 33 -21.5 55.5t-56.5 22.5q-33 0 -56 -22.5t-23 -55.5z M193 365q0 -33 23 -56.5t56 -23.5q35 0 56.5 23.5t21.5 56.5t-21.5 56t-56.5 23q-33 0 -56 -23.5t-23 -55.5zM193 553q0 -33 23.5 -55.5t55.5 -22.5q35 0 56.5 22.5t21.5 55.5q0 35 -21.5 57.5t-56.5 22.5q-33 0 -56 -22.5t-23 -57.5zM193 745q0 -33 23 -56t56 -23 q35 0 56.5 23.5t21.5 55.5q0 33 -21.5 55.5t-56.5 22.5q-33 0 -56 -22.5t-23 -55.5zM193 934q0 -33 23 -56.5t56 -23.5q35 0 56.5 23.5t21.5 56.5q0 35 -21.5 57.5t-56.5 22.5q-33 0 -56 -22.5t-23 -57.5zM193 1124q0 -35 23.5 -56t55.5 -21q35 0 56.5 21t21.5 56 q0 33 -21.5 56.5t-56.5 23.5q-33 0 -56 -23.5t-23 -56.5zM193 1315q0 -33 23 -56.5t56 -23.5q35 0 56.5 23.5t21.5 56.5t-21.5 55.5t-56.5 22.5q-33 0 -56 -22.5t-23 -55.5z" />
<glyph unicode="}" horiz-adv-x="636" d="M0 -72v279h90q41 0 61.5 24.5t20.5 106.5v141q0 63 15.5 110.5t58.5 72.5q-74 68 -74 194v39q0 113 -22.5 152.5t-69.5 39.5h-80v277h143q51 0 105.5 -17.5t99.5 -54.5t73 -92t28 -129v-131q0 -70 13 -92.5t48 -22.5h113v-313h-113q-29 0 -45 -20.5t-16 -100.5v-143 q0 -86 -30 -146.5t-75 -98.5t-100.5 -56.5t-106.5 -18.5h-137zM47 66q0 -33 21.5 -56.5t56.5 -23.5q33 0 56.5 23.5t23.5 56.5t-23.5 56t-56.5 23q-35 0 -56.5 -23.5t-21.5 -55.5zM47 1223q0 -33 21.5 -55.5t56.5 -22.5q33 0 56.5 22.5t23.5 55.5t-23.5 56.5t-56.5 23.5 q-35 0 -56.5 -24t-21.5 -56zM199 164q0 -33 21.5 -56.5t55.5 -23.5q33 0 56.5 23.5t23.5 56.5t-23.5 55.5t-56.5 22.5q-35 0 -56 -22.5t-21 -55.5zM199 1124q0 -33 21.5 -55t55.5 -22q33 0 56.5 22t23.5 55t-23.5 56.5t-56.5 23.5q-35 0 -56 -23.5t-21 -56.5zM231 350 q0 -33 21.5 -56.5t56.5 -23.5q33 0 56.5 23.5t23.5 56.5t-23.5 55.5t-56.5 22.5q-35 0 -56.5 -22.5t-21.5 -55.5zM231 940q0 -33 21.5 -56.5t56.5 -23.5q33 0 56.5 23.5t23.5 56.5t-23.5 55.5t-56.5 22.5q-35 0 -56.5 -22.5t-21.5 -55.5zM270 532q0 -33 22.5 -56t57.5 -23 q33 0 55.5 23.5t22.5 55.5q0 33 -22.5 55.5t-55.5 22.5q-35 0 -57.5 -22.5t-22.5 -55.5zM270 758q0 -33 22.5 -56.5t57.5 -23.5q33 0 55.5 23.5t22.5 56.5t-22.5 55.5t-55.5 22.5q-35 0 -57.5 -22.5t-22.5 -55.5zM436 672q0 -33 22.5 -55.5t57.5 -22.5q33 0 56.5 22.5 t23.5 55.5t-23.5 56.5t-56.5 23.5q-35 0 -57.5 -23.5t-22.5 -56.5z" />
<glyph unicode="~" horiz-adv-x="972" d="M18 403v357q39 47 101.5 86t144.5 39q63 0 117.5 -20.5t106 -44t99.5 -44t97 -20.5q98 0 159.5 34.5t108.5 120.5v-374q-63 -61 -125.5 -90t-154.5 -29q-53 0 -102.5 19.5t-97.5 43t-97 43t-101 19.5q-92 0 -149 -31t-107 -109zM59 657q0 -35 22.5 -57t55.5 -22t56.5 22 t23.5 57q0 31 -24.5 55.5t-55.5 24.5q-33 0 -55.5 -23.5t-22.5 -56.5zM227 725q0 -35 23.5 -57.5t56.5 -22.5t55.5 22.5t22.5 57.5q0 31 -23.5 54.5t-54.5 23.5q-33 0 -56.5 -22.5t-23.5 -55.5zM401 659q0 -35 22.5 -57t55.5 -22t56.5 22t23.5 57q0 31 -23.5 54.5 t-56.5 23.5t-55.5 -22.5t-22.5 -55.5zM575 596q0 -35 24 -56.5t56 -21.5q33 0 56.5 21.5t23.5 56.5q0 33 -24.5 56.5t-55.5 23.5q-33 0 -56.5 -23.5t-23.5 -56.5zM756 643q0 -35 22.5 -56.5t55.5 -21.5t56 21.5t23 56.5q0 31 -23.5 55.5t-55.5 24.5q-33 0 -55.5 -23.5 t-22.5 -56.5z" />
<glyph unicode="&#xa1;" horiz-adv-x="550" d="M74 1112q0 92 55 146.5t148 54.5q88 0 144 -54.5t56 -146.5q0 -66 -33.5 -117t-93.5 -74h119v-921h-371v921h107q-59 23 -95 74t-36 117zM197 160q0 -35 23.5 -57.5t56.5 -22.5t55 22.5t22 57.5q0 33 -22.5 56t-54.5 23q-33 0 -56.5 -23t-23.5 -56zM197 358 q0 -35 23.5 -56.5t56.5 -21.5t55 21.5t22 56.5q0 33 -22.5 56.5t-54.5 23.5q-33 0 -56.5 -23.5t-23.5 -56.5zM197 559q0 -33 23.5 -56.5t56.5 -23.5t55 23.5t22 56.5t-22.5 55.5t-54.5 22.5q-33 0 -56.5 -22.5t-23.5 -55.5zM197 758q0 -33 23.5 -55.5t56.5 -22.5t55 22.5 t22 55.5q0 35 -22.5 57t-54.5 22q-33 0 -56.5 -22t-23.5 -57zM197 1112q0 -35 23.5 -56.5t56.5 -21.5q35 0 56 21.5t21 56.5q0 33 -21.5 56.5t-55.5 23.5q-33 0 -56.5 -23.5t-23.5 -56.5z" />
<glyph unicode="&#xa2;" horiz-adv-x="917" d="M45 641q0 80 26.5 151.5t72.5 130t109.5 99.5t139.5 59v207h205v-209q80 -20 147.5 -65t114.5 -111l-225 -168q-23 35 -59.5 55.5t-81.5 20.5q-70 0 -119 -49t-49 -121t49 -121t119 -49q45 0 81.5 20.5t59.5 55.5l231 -160q-96 -139 -268 -186v-201h-205v201 q-76 16 -139.5 57t-109.5 99.5t-72.5 131t-26.5 152.5zM119 543q0 -33 23.5 -56.5t56.5 -23.5t55 23.5t22 56.5q0 31 -22.5 54.5t-54.5 23.5q-33 0 -56.5 -23t-23.5 -55zM119 737q0 -33 23.5 -56.5t56.5 -23.5t55 24t22 56q0 33 -22.5 55.5t-54.5 22.5q-33 0 -56.5 -22.5 t-23.5 -55.5zM229 381q0 -33 22.5 -56.5t55.5 -23.5t56.5 23.5t23.5 56.5q0 31 -23.5 54.5t-56.5 23.5t-55.5 -22.5t-22.5 -55.5zM229 897q0 -33 22.5 -55.5t55.5 -22.5t56.5 23.5t23.5 54.5q0 33 -23.5 56.5t-56.5 23.5t-55.5 -23.5t-22.5 -56.5zM412 328q0 -33 22.5 -56.5 t54.5 -23.5q33 0 56.5 23.5t23.5 56.5q0 31 -23.5 54.5t-56.5 23.5t-55 -23t-22 -55zM412 952q0 -33 22.5 -56.5t54.5 -23.5q33 0 56.5 23.5t23.5 56.5t-23.5 55.5t-56.5 22.5t-55 -22.5t-22 -55.5zM588 381q0 -33 23.5 -56.5t56.5 -23.5t56.5 23.5t23.5 56.5q0 31 -24 54.5 t-56 23.5q-33 0 -56.5 -22.5t-23.5 -55.5zM588 897q0 -33 23.5 -55.5t56.5 -22.5t56.5 23.5t23.5 54.5q0 33 -24 56.5t-56 23.5q-33 0 -56.5 -23.5t-23.5 -56.5z" />
<glyph unicode="&#xa3;" horiz-adv-x="1155" d="M31 0v338h135v139h-131v271h131v28q0 117 44 215.5t120 170t177 111.5t218 40q188 0 334 -109l-217 -344q-43 55 -117 55q-57 0 -99 -39.5t-42 -99.5v-28h145v-271h-145v-139h544v-338h-1097zM88 178q0 -33 22.5 -55.5t55.5 -22.5q35 0 57.5 22.5t22.5 55.5t-22.5 56.5 t-57.5 23.5q-33 0 -55.5 -23.5t-22.5 -56.5zM88 608q0 -33 22.5 -56.5t55.5 -23.5q35 0 57.5 23.5t22.5 56.5t-22.5 55.5t-57.5 22.5q-33 0 -55.5 -22.5t-22.5 -55.5zM285 389q0 -35 23.5 -57.5t56.5 -22.5q35 0 57 22.5t22 57.5q-2 33 -23.5 55.5t-55.5 22.5 q-33 0 -56.5 -22.5t-23.5 -55.5zM287 608q0 -33 23.5 -56.5t56.5 -23.5q35 0 57 23.5t22 56.5t-22.5 55.5t-56.5 22.5q-33 0 -56.5 -22.5t-23.5 -55.5zM291 178q0 -33 23.5 -55.5t56.5 -22.5q35 0 56.5 22.5t21.5 55.5t-21.5 56.5t-56.5 23.5q-33 0 -56.5 -23.5t-23.5 -56.5 zM301 809q0 -33 23.5 -56.5t56.5 -23.5q35 0 56.5 23.5t21.5 56.5q0 35 -21.5 56.5t-56.5 21.5q-33 0 -56.5 -21.5t-23.5 -56.5zM371 995q0 -35 23.5 -57.5t56.5 -22.5q35 0 57 22.5t22 57.5q0 33 -22.5 55.5t-56.5 22.5q-33 0 -56.5 -22.5t-23.5 -55.5zM483 608 q0 -33 23.5 -56.5t56.5 -23.5q35 0 56.5 23.5t21.5 56.5t-21.5 55.5t-56.5 22.5q-33 0 -56.5 -22.5t-23.5 -55.5zM500 178q0 -33 22.5 -55.5t55.5 -22.5q35 0 57 22.5t22 55.5t-22.5 56.5t-56.5 23.5q-33 0 -55.5 -23.5t-22.5 -56.5zM528 1102q0 -33 23.5 -55.5t56.5 -22.5 q35 0 56.5 22.5t21.5 55.5t-21.5 56.5t-56.5 23.5q-33 0 -56.5 -23.5t-23.5 -56.5zM702 178q0 -33 23 -55.5t55 -22.5q35 0 57.5 22.5t22.5 55.5t-22.5 56.5t-57.5 23.5q-33 0 -55.5 -23.5t-22.5 -56.5zM729 1102q0 -33 23.5 -55.5t56.5 -22.5q35 0 56.5 22.5t21.5 55.5 t-21.5 56.5t-56.5 23.5q-33 0 -56.5 -23.5t-23.5 -56.5zM897 178q0 -33 23.5 -55.5t56.5 -22.5q35 0 57.5 22.5t22.5 55.5t-22.5 56.5t-57.5 23.5q-33 0 -56.5 -23.5t-23.5 -56.5z" />
<glyph unicode="&#xa4;" horiz-adv-x="854" d="M47 403l100 103q-35 59 -34 127q0 66 34 125l-100 104l133 135l109 -114q68 27 135 26q39 0 72.5 -7t66.5 -19l109 114l133 -135l-100 -104q35 -59 34 -125q0 -68 -34 -127l100 -103l-133 -137l-109 115q-59 -27 -139 -27q-76 0 -135 27l-109 -115zM274 633 q0 -59 43 -101.5t107 -42.5q66 0 110 42.5t44 101.5t-44.5 101t-109.5 42q-63 0 -106.5 -42t-43.5 -101z" />
<glyph unicode="&#xa5;" horiz-adv-x="1177" d="M-6 1288h418l161 -229l162 229h416l-375 -473h336v-252h-367v-112h367v-252h-367v-199h-344v199h-366v252h366v112h-366v252h336zM84 322q0 -33 23.5 -56.5t56.5 -23.5q35 0 56.5 23.5t21.5 56.5t-21.5 56t-56.5 23q-33 0 -56.5 -23.5t-23.5 -55.5zM84 682 q0 -33 23.5 -55.5t56.5 -22.5q35 0 56.5 22.5t21.5 55.5t-21.5 56.5t-56.5 23.5q-33 0 -56.5 -23.5t-23.5 -56.5zM223 1167q0 -33 23.5 -56.5t56.5 -23.5q35 0 56.5 24t21.5 56q0 33 -21.5 55.5t-56.5 22.5q-33 0 -56.5 -22.5t-23.5 -55.5zM291 322q0 -33 23.5 -56.5 t56.5 -23.5q35 0 56.5 23.5t21.5 56.5t-21.5 56t-56.5 23q-33 0 -56.5 -23.5t-23.5 -55.5zM291 682q0 -33 23.5 -55.5t56.5 -22.5q35 0 56.5 22.5t21.5 55.5t-21.5 56.5t-56.5 23.5q-33 0 -56.5 -23.5t-23.5 -56.5zM342 999q0 -33 23.5 -56t56.5 -23q35 0 56.5 23.5 t21.5 55.5q0 33 -21.5 56.5t-56.5 23.5q-33 0 -56.5 -23.5t-23.5 -56.5zM492 872q0 -33 22.5 -56t56.5 -23q33 0 56.5 23t23.5 56t-23.5 56.5t-56.5 23.5q-35 0 -57 -23.5t-22 -56.5zM494 135q0 -33 23.5 -55.5t55.5 -22.5q35 0 56.5 22.5t21.5 55.5t-21.5 56.5t-56.5 23.5 q-33 0 -56 -23.5t-23 -56.5zM494 322q0 -33 23 -56.5t56 -23.5q35 0 56.5 23.5t21.5 56.5t-21.5 56t-56.5 23q-33 0 -56 -23.5t-23 -55.5zM494 502q0 -33 23.5 -55.5t55.5 -22.5q35 0 56.5 22.5t21.5 55.5t-21.5 56.5t-56.5 23.5q-33 0 -56 -23.5t-23 -56.5zM494 682 q0 -33 23.5 -55.5t55.5 -22.5q35 0 56.5 22.5t21.5 55.5t-21.5 56.5t-56.5 23.5q-33 0 -56 -23.5t-23 -56.5zM639 999q0 -33 21.5 -56t56.5 -23q33 0 56.5 23t23.5 56t-23.5 56.5t-56.5 23.5q-35 0 -56.5 -23.5t-21.5 -56.5zM690 322q0 -33 21.5 -56.5t56.5 -23.5 q33 0 56.5 23.5t23.5 56.5t-23.5 56t-56.5 23q-35 0 -56.5 -23.5t-21.5 -55.5zM690 682q0 -33 21.5 -55.5t56.5 -22.5q33 0 56.5 22.5t23.5 55.5t-23.5 56.5t-56.5 23.5q-35 0 -56.5 -23.5t-21.5 -56.5zM758 1167q0 -33 21.5 -56.5t56.5 -23.5q33 0 56 23.5t23 56.5 t-23.5 55.5t-55.5 22.5q-35 0 -56.5 -22.5t-21.5 -55.5zM897 322q0 -33 21.5 -56.5t56.5 -23.5q33 0 56.5 23.5t23.5 56.5t-23.5 56t-56.5 23q-35 0 -56.5 -23.5t-21.5 -55.5zM897 682q0 -33 21.5 -55.5t56.5 -22.5q33 0 56.5 22.5t23.5 55.5t-23.5 56.5t-56.5 23.5 q-35 0 -56.5 -23.5t-21.5 -56.5z" />
<glyph unicode="&#xa6;" horiz-adv-x="555" d="M127 -190v714h299v-714h-299zM127 780v699h299v-699h-299zM193 -16q0 -33 23.5 -55.5t55.5 -22.5q35 0 56.5 22.5t21.5 55.5t-21.5 56t-56.5 23q-33 0 -56 -23.5t-23 -55.5zM193 176q0 -35 23 -57.5t56 -22.5q35 0 56.5 22.5t21.5 57.5q0 33 -21.5 55.5t-56.5 22.5 q-33 0 -56 -22.5t-23 -55.5zM193 365q0 -33 23 -56.5t56 -23.5q35 0 56.5 23.5t21.5 56.5t-21.5 56t-56.5 23q-33 0 -56 -23.5t-23 -55.5zM193 934q0 -33 23 -56.5t56 -23.5q35 0 56.5 23.5t21.5 56.5q0 35 -21.5 57.5t-56.5 22.5q-33 0 -56 -22.5t-23 -57.5zM193 1124 q0 -35 23.5 -56t55.5 -21q35 0 56.5 21t21.5 56q0 33 -21.5 56.5t-56.5 23.5q-33 0 -56 -23.5t-23 -56.5zM193 1315q0 -33 23 -56.5t56 -23.5q35 0 56.5 23.5t21.5 56.5t-21.5 55.5t-56.5 22.5q-33 0 -56 -22.5t-23 -55.5z" />
<glyph unicode="&#xa7;" horiz-adv-x="917" d="M27 993q0 154 67.5 224.5t190.5 70.5h389v-266h-273q-66 0 -65 -68q0 -72 65 -71h263q49 0 83.5 -17.5t57 -46t34 -64.5t11.5 -75q0 -150 -80 -201q61 -33 84 -84t23 -100q0 -154 -68 -224.5t-191 -70.5h-389v266h273q68 0 67 68q0 72 -67 72h-264q-47 0 -82 17t-57.5 46 t-34 64.5t-11.5 74.5q0 147 82 203q-63 31 -85.5 82t-22.5 100zM330 647q0 -72 47 -72h147q49 0 49 66q0 72 -49 72h-147q-47 0 -47 -66z" />
<glyph unicode="&#xa8;" horiz-adv-x="978" d="M47 1569q0 88 56.5 145.5t144.5 57.5t144.5 -58.5t56.5 -144.5q0 -92 -54.5 -145.5t-146.5 -53.5q-88 0 -144.5 53.5t-56.5 145.5zM168 1569q0 -33 22.5 -56.5t57.5 -23.5q33 0 56.5 23.5t23.5 56.5q0 35 -23.5 57.5t-56.5 22.5q-35 0 -57.5 -22.5t-22.5 -57.5zM528 1569 q0 88 56.5 145.5t144.5 57.5t144.5 -58.5t56.5 -144.5q0 -92 -54.5 -145.5t-146.5 -53.5q-88 0 -144.5 53.5t-56.5 145.5zM651 1569q0 -33 21.5 -56.5t56.5 -23.5q33 0 56.5 23.5t23.5 56.5q0 35 -23.5 57.5t-56.5 22.5q-35 0 -56.5 -22.5t-21.5 -57.5z" />
<glyph unicode="&#xa9;" horiz-adv-x="1425" d="M45 643q0 137 53.5 260t143.5 213t211.5 143.5t259.5 53.5q137 0 260 -53.5t213 -143.5t143 -213t53 -260t-53 -259t-143 -212t-213 -143.5t-260 -53.5t-259 53.5t-212 143.5t-143.5 212t-53.5 259zM229 643q0 -100 38 -188t103.5 -153.5t153.5 -103.5t189 -38 q100 0 189 38t153.5 103.5t102.5 153.5t38 188t-38 188.5t-102.5 154t-153.5 102t-189 36.5t-188.5 -36.5t-154 -102t-103.5 -154t-38 -188.5zM399 643q0 63 25 119.5t66.5 98.5t98 66.5t120.5 24.5q78 0 143.5 -34.5t108.5 -94.5l-156 -116q-35 53 -96 53q-47 0 -81 -35 t-34 -82t34 -81t81 -34q31 0 55 14.5t41 37.5l147 -125q-41 -55 -104.5 -88t-138.5 -33q-63 0 -120 24.5t-98.5 66.5t-66.5 98.5t-25 119.5z" />
<glyph unicode="&#xaa;" horiz-adv-x="919" d="M35 506l250 782h350l252 -782h-312l-28 123h-193l-28 -123h-291zM399 836h103l-49 192z" />
<glyph unicode="&#xab;" horiz-adv-x="1294" d="M43 510v219l561 285v-316l-190 -77l190 -80v-314zM90 618q0 -35 22.5 -56t55.5 -21t56.5 21t23.5 56q0 33 -23.5 56.5t-56.5 23.5t-55.5 -23.5t-22.5 -56.5zM242 526q0 -33 23.5 -56.5t56.5 -23.5q35 0 57 23.5t22 56.5t-22.5 56.5t-56.5 23.5q-33 0 -56.5 -23.5 t-23.5 -56.5zM242 715q0 -33 23.5 -56.5t56.5 -23.5q35 0 57 23.5t22 56.5q0 35 -22.5 56.5t-56.5 21.5q-31 0 -55.5 -22.5t-24.5 -55.5zM403 449q0 -33 24 -55.5t56 -22.5q33 0 56.5 22.5t23.5 55.5t-23.5 56t-56.5 23q-31 0 -55.5 -23.5t-24.5 -55.5zM403 791 q0 -33 24 -55.5t56 -22.5q33 0 56.5 22.5t23.5 55.5t-23.5 56t-56.5 23q-31 0 -55.5 -23.5t-24.5 -55.5zM690 510v219l561 285v-316l-190 -77l190 -80v-314zM737 618q0 -35 22.5 -56t55.5 -21t56.5 21t23.5 56q0 33 -23.5 56.5t-56.5 23.5t-55.5 -23.5t-22.5 -56.5zM889 526 q0 -33 23.5 -56.5t56.5 -23.5q35 0 57 23.5t22 56.5t-22.5 56.5t-56.5 23.5q-33 0 -56.5 -23.5t-23.5 -56.5zM889 715q0 -33 23.5 -56.5t56.5 -23.5q35 0 57 23.5t22 56.5q0 35 -22.5 56.5t-56.5 21.5q-31 0 -55.5 -22.5t-24.5 -55.5zM1050 449q0 -33 24 -55.5t56 -22.5 q33 0 56.5 22.5t23.5 55.5t-23.5 56t-56.5 23q-31 0 -55.5 -23.5t-24.5 -55.5zM1050 791q0 -33 24 -55.5t56 -22.5q33 0 56.5 22.5t23.5 55.5t-23.5 56t-56.5 23q-31 0 -55.5 -23.5t-24.5 -55.5z" />
<glyph unicode="&#xac;" horiz-adv-x="1015" d="M25 489v226h946v-715h-234v489h-712z" />
<glyph unicode="&#xad;" horiz-adv-x="716" d="M41 461v327h635v-327h-635zM102 631q0 -33 24 -55.5t56 -22.5q33 0 56.5 22.5t23.5 55.5t-24.5 56.5t-55.5 23.5q-33 0 -56.5 -22.5t-23.5 -57.5zM276 631q0 -33 24 -55.5t56 -22.5q35 0 57.5 22.5t22.5 55.5t-23.5 56.5t-56.5 23.5t-56.5 -22.5t-23.5 -57.5zM451 631 q0 -33 23.5 -55.5t55.5 -22.5q35 0 56.5 22.5t21.5 55.5t-22.5 56.5t-55.5 23.5t-56 -22.5t-23 -57.5z" />
<glyph unicode="&#xae;" horiz-adv-x="903" d="M18 901q0 88 34 167t93.5 138.5t137 93t168.5 33.5q90 0 168.5 -33.5t138 -93t93.5 -138.5t34 -167q0 -90 -34 -169t-93.5 -138t-138 -93t-168.5 -34t-168 34t-137.5 93t-93.5 138t-34 169zM137 901q0 -66 24.5 -123t67.5 -100t99.5 -67.5t122.5 -24.5q63 0 120.5 24.5 t99.5 67.5t66.5 100.5t24.5 122.5q0 63 -24.5 120.5t-66.5 99.5t-99.5 66.5t-120.5 24.5q-66 0 -122.5 -24.5t-99.5 -66.5t-67.5 -99t-24.5 -121zM303 723v369h193q53 0 91 -37t38 -92q0 -33 -16.5 -61t-43.5 -46l60 -133h-154l-43 119v-119h-125zM428 920h45q12 0 21.5 10 t9.5 22q0 14 -9.5 22.5t-21.5 8.5h-45v-63z" />
<glyph unicode="&#xaf;" horiz-adv-x="892" d="M41 1432v286h811v-286h-811zM102 1575q0 -33 24 -55.5t56 -22.5q33 0 56.5 22.5t23.5 55.5t-24.5 56.5t-55.5 23.5q-33 0 -56.5 -22.5t-23.5 -57.5zM276 1575q0 -33 24 -55.5t56 -22.5q35 0 57.5 22.5t22.5 55.5t-23.5 56.5t-56.5 23.5t-56.5 -22.5t-23.5 -57.5z M453 1575q0 -33 23.5 -55.5t55.5 -22.5q35 0 56.5 22.5t21.5 55.5t-22.5 56.5t-55.5 23.5t-56 -22.5t-23 -57.5zM627 1575q0 -33 22.5 -55.5t55.5 -22.5q35 0 57 22.5t22 55.5t-23.5 56.5t-55.5 23.5q-33 0 -55.5 -22.5t-22.5 -57.5z" />
<glyph unicode="&#xb0;" horiz-adv-x="747" d="M51 868v142q0 143 87 223t235 80q147 0 234 -80t87 -223v-142q0 -147 -87 -225t-234 -78t-234.5 78t-87.5 225zM135 838q0 -35 23.5 -55.5t54.5 -20.5t53.5 20.5t22.5 55.5q0 33 -22.5 54t-53.5 21t-54.5 -21.5t-23.5 -53.5zM135 1051q0 -31 23.5 -53.5t54.5 -22.5 t53.5 22.5t22.5 53.5q0 35 -22.5 56t-53.5 21t-54.5 -21.5t-23.5 -55.5zM289 700q0 -33 23.5 -55t56.5 -22q29 0 52 22.5t23 54.5q0 31 -23.5 53.5t-51.5 22.5q-33 0 -56.5 -22.5t-23.5 -53.5zM289 1188q0 -29 23.5 -52.5t56.5 -23.5q29 0 52 23.5t23 52.5q0 35 -23.5 56.5 t-51.5 21.5q-33 0 -56.5 -21.5t-23.5 -56.5zM340 864q0 -59 33 -59q31 0 30 59v146q0 61 -30 61q-33 0 -33 -61v-146zM444 838q0 -35 22.5 -55.5t55.5 -20.5q29 0 51.5 20.5t22.5 55.5q0 33 -22.5 54t-51.5 21q-33 0 -55.5 -21.5t-22.5 -53.5zM444 1051q0 -31 22.5 -53.5 t55.5 -22.5q29 0 51.5 22.5t22.5 53.5q0 35 -22.5 56t-51.5 21q-33 0 -55.5 -21.5t-22.5 -55.5z" />
<glyph unicode="&#xb1;" horiz-adv-x="1005" d="M25 104h958v-270h-958v270zM37 504v270h344v342h270v-342h344v-270h-344v-344h-270v344h-344zM76 -29q0 -35 22.5 -56.5t55.5 -21.5q35 0 57.5 21.5t22.5 56.5q0 31 -23.5 55.5t-56.5 24.5t-55.5 -23.5t-22.5 -56.5zM88 643q0 -35 22.5 -56.5t55.5 -21.5q35 0 57.5 21.5 t22.5 56.5q0 31 -23.5 55.5t-56.5 24.5t-55.5 -23.5t-22.5 -56.5zM250 -29q0 -35 22.5 -56.5t55.5 -21.5q35 0 57.5 21.5t22.5 56.5q0 31 -23.5 55.5t-56.5 24.5t-55.5 -23.5t-22.5 -56.5zM262 643q0 -35 22.5 -56.5t55.5 -21.5q35 0 57.5 21.5t22.5 56.5q0 31 -23.5 55.5 t-56.5 24.5t-55.5 -23.5t-22.5 -56.5zM424 -29q0 -35 22.5 -56.5t57.5 -21.5q33 0 56.5 21.5t23.5 56.5q0 31 -24.5 55.5t-55.5 24.5q-35 0 -57.5 -23.5t-22.5 -56.5zM440 641q0 -35 22.5 -56.5t57.5 -21.5q33 0 55.5 21.5t22.5 56.5q0 31 -23.5 55.5t-54.5 24.5 q-35 0 -57.5 -23.5t-22.5 -56.5zM442 291q0 -33 25.5 -56.5t60.5 -23.5q31 0 51.5 24.5t20.5 55.5q0 33 -22.5 56.5t-55.5 23.5q-35 0 -57.5 -23.5t-22.5 -56.5zM442 465q0 -33 22.5 -56.5t57.5 -23.5q31 0 54.5 24.5t23.5 55.5q0 33 -22.5 55.5t-55.5 22.5 q-35 0 -57.5 -22.5t-22.5 -55.5zM442 813q0 -35 22.5 -56.5t57.5 -21.5q31 0 54.5 22.5t23.5 55.5t-22.5 56.5t-55.5 23.5q-35 0 -57.5 -23.5t-22.5 -56.5zM442 987q0 -35 22.5 -56.5t57.5 -21.5q31 0 54.5 22.5t23.5 55.5t-22.5 56.5t-55.5 23.5q-35 0 -57.5 -23.5 t-22.5 -56.5zM598 -29q0 -35 23.5 -56.5t56.5 -21.5t55.5 21.5t22.5 56.5q0 31 -23.5 55.5t-54.5 24.5q-33 0 -56.5 -23.5t-23.5 -56.5zM610 643q0 -35 23.5 -56.5t56.5 -21.5t55.5 21.5t22.5 56.5q0 31 -23.5 55.5t-54.5 24.5q-33 0 -56.5 -23.5t-23.5 -56.5zM772 -29 q0 -35 23.5 -56.5t56.5 -21.5t55.5 21.5t22.5 56.5q0 31 -23.5 55.5t-54.5 24.5q-33 0 -56.5 -23.5t-23.5 -56.5zM784 643q0 -35 23.5 -56.5t56.5 -21.5t55.5 21.5t22.5 56.5q0 31 -23.5 55.5t-54.5 24.5q-33 0 -56.5 -23.5t-23.5 -56.5z" />
<glyph unicode="&#xb4;" horiz-adv-x="503" d="M27 1350l118 452h351l-207 -452h-262zM119 1479q0 -35 21.5 -57.5t56.5 -22.5q33 0 56 22.5t23 57.5q0 33 -23.5 55t-55.5 22q-35 0 -56.5 -22.5t-21.5 -54.5zM195 1669q0 -33 22.5 -56.5t54.5 -23.5q35 0 57.5 23.5t22.5 56.5t-22.5 55.5t-57.5 22.5q-33 0 -55 -22.5 t-22 -55.5z" />
<glyph unicode="&#xb5;" horiz-adv-x="841" d="M72 -248v1125h221v-605q0 -59 32.5 -84.5t90.5 -25.5q47 0 79.5 5t55.5 13v697h217v-850q-51 -16 -127 -34t-168 -18q-86 0 -126 11.5t-54 27.5v-262h-221z" />
<glyph unicode="&#xb6;" horiz-adv-x="1095" d="M20 1061q0 49 15.5 90t51.5 71.5t92.5 48t137.5 17.5h764l-108 -203v-1085h-258v1061h-209v-1061h-260v823q-119 25 -172.5 82.5t-53.5 155.5z" />
<glyph unicode="&#xb7;" horiz-adv-x="499" d="M49 633q0 88 56.5 145.5t144.5 57.5t144.5 -58.5t56.5 -144.5q0 -92 -54.5 -146.5t-146.5 -54.5q-88 0 -144.5 54.5t-56.5 146.5zM170 633q0 -33 22.5 -56.5t57.5 -23.5q33 0 55.5 23.5t22.5 56.5q0 35 -22.5 56.5t-55.5 21.5q-35 0 -57.5 -21.5t-22.5 -56.5z" />
<glyph unicode="&#xb8;" horiz-adv-x="425" d="M49 -414l19 385l305 -51l-90 -364zM104 -311q0 -35 20.5 -54.5t51.5 -19.5q76 0 76 78q0 29 -22.5 48t-51.5 19q-33 0 -53.5 -21.5t-20.5 -49.5zM131 -156q0 -31 22.5 -51t51.5 -20q39 0 57.5 23.5t18.5 56.5q0 29 -21.5 48t-52.5 19q-33 0 -54.5 -22.5t-21.5 -53.5z" />
<glyph unicode="&#xba;" horiz-adv-x="911" d="M47 879q0 86 32 160.5t87 130t130 87t159 31.5q86 0 160.5 -31.5t130 -87t87 -130t31.5 -160.5q0 -84 -31.5 -159t-87 -130t-130 -87t-160.5 -32q-84 0 -159 32t-130 87t-87 130t-32 159zM303 879q0 -63 44 -107.5t108 -44.5q66 0 109.5 44.5t43.5 107.5q0 66 -44 109.5 t-109 43.5q-63 0 -107.5 -44t-44.5 -109z" />
<glyph unicode="&#xbb;" horiz-adv-x="1294" d="M43 227v314l188 80l-188 77v316l561 -285v-219zM84 449q0 -33 23.5 -55.5t56.5 -22.5t55.5 22.5t22.5 55.5t-23.5 56t-54.5 23q-33 0 -56.5 -23.5t-23.5 -55.5zM84 791q0 -33 23.5 -55.5t56.5 -22.5t55.5 22.5t22.5 55.5t-23.5 56t-54.5 23q-33 0 -56.5 -23.5 t-23.5 -55.5zM246 526q0 -33 22.5 -56.5t57.5 -23.5q33 0 55 24t22 56q0 33 -22.5 56.5t-54.5 23.5q-35 0 -57.5 -23.5t-22.5 -56.5zM246 715q0 -33 22.5 -56.5t57.5 -23.5q33 0 55 23.5t22 56.5t-23.5 55.5t-53.5 22.5q-35 0 -57.5 -21.5t-22.5 -56.5zM399 618 q0 -35 23.5 -56t56.5 -21t55.5 21t22.5 56q0 33 -22.5 56.5t-55.5 23.5t-56.5 -23.5t-23.5 -56.5zM690 227v314l188 80l-188 77v316l561 -285v-219zM731 449q0 -33 23.5 -55.5t56.5 -22.5t55.5 22.5t22.5 55.5t-23.5 56t-54.5 23q-33 0 -56.5 -23.5t-23.5 -55.5zM731 791 q0 -33 23.5 -55.5t56.5 -22.5t55.5 22.5t22.5 55.5t-23.5 56t-54.5 23q-33 0 -56.5 -23.5t-23.5 -55.5zM893 526q0 -33 22.5 -56.5t57.5 -23.5q33 0 55 24t22 56q0 33 -22.5 56.5t-54.5 23.5q-35 0 -57.5 -23.5t-22.5 -56.5zM893 715q0 -33 22.5 -56.5t57.5 -23.5 q33 0 55 23.5t22 56.5t-23.5 55.5t-53.5 22.5q-35 0 -57.5 -21.5t-22.5 -56.5zM1046 618q0 -35 23.5 -56t56.5 -21t55.5 21t22.5 56q0 33 -22.5 56.5t-55.5 23.5t-56.5 -23.5t-23.5 -56.5z" />
<glyph unicode="&#xbf;" horiz-adv-x="882" d="M16 348q0 55 12.5 98t36 80t59 73t82.5 75q41 35 65 73.5t24 98.5v71h137q-63 20 -102.5 72.5t-39.5 122.5q0 88 56.5 144.5t144.5 56.5q102 0 151.5 -60.5t49.5 -140.5q0 -70 -38 -122t-101 -73h116v-118q0 -53 -10 -104.5t-41 -98.5q-20 -31 -57 -58.5t-73 -54 t-62.5 -53.5t-26.5 -57q0 -57 55 -58q43 0 62.5 31t31.5 65l306 -133q-37 -94 -83 -153.5t-101.5 -92t-119 -45t-137.5 -12.5q-80 0 -151.5 25.5t-125.5 73t-87 117t-33 157.5zM100 346q0 -35 22.5 -57.5t55.5 -22.5q35 0 57.5 22.5t22.5 57.5q0 33 -22.5 55.5t-57.5 22.5 q-33 0 -55.5 -22.5t-22.5 -55.5zM196 196q0 -33 22.5 -56t55.5 -23q35 0 57.5 23.5t22.5 55.5q0 33 -23.5 55.5t-56.5 22.5t-55.5 -22.5t-22.5 -55.5zM200 491q0 -31 24.5 -55.5t55.5 -24.5q35 0 57.5 24t22.5 56q0 35 -22.5 57.5t-57.5 22.5q-33 0 -56.5 -22.5t-23.5 -57.5 zM319 626q0 -31 23.5 -54t56.5 -23t55.5 22.5t22.5 54.5q0 35 -22.5 57.5t-55.5 22.5q-35 0 -57.5 -22.5t-22.5 -57.5zM370 149q0 -35 22.5 -57.5t57.5 -22.5q33 0 56.5 22.5t23.5 57.5q0 31 -24.5 55.5t-55.5 24.5q-35 0 -57.5 -23.5t-22.5 -56.5zM413 786 q0 -35 22.5 -57.5t55.5 -22.5q35 0 57.5 22.5t22.5 57.5q0 31 -23.5 54.5t-56.5 23.5t-55.5 -22.5t-22.5 -55.5zM413 1112q0 -35 20.5 -56.5t57.5 -21.5q35 0 57.5 21.5t22.5 56.5q0 33 -22.5 56.5t-57.5 23.5q-33 0 -55.5 -23.5t-22.5 -56.5zM544 211q0 -33 22.5 -55.5 t57.5 -22.5q33 0 56.5 22.5t23.5 55.5t-24.5 56.5t-55.5 23.5q-35 0 -57.5 -22.5t-22.5 -57.5z" />
<glyph unicode="&#xc0;" d="M12 0l447 1288h442l449 -1288h-422l-41 135h-408l-43 -135h-424zM178 145q0 -35 21.5 -57t56.5 -22q33 0 56.5 22t23.5 57q0 31 -24.5 54.5t-55.5 23.5q-35 0 -56.5 -22.5t-21.5 -55.5zM233 307q0 -33 24 -55.5t56 -22.5q33 0 56.5 22.5t23.5 55.5t-24.5 56.5t-55.5 23.5 q-33 0 -56.5 -22.5t-23.5 -57.5zM291 473q0 -33 22.5 -56.5t55.5 -23.5t56.5 23.5t23.5 56.5q0 31 -24 55.5t-56 24.5q-33 0 -55.5 -23.5t-22.5 -56.5zM348 639q0 -33 22.5 -56.5t55.5 -23.5t56.5 23.5t23.5 56.5q0 31 -23.5 55.5t-56.5 24.5t-55.5 -23.5t-22.5 -56.5z M385 1802h348l119 -452h-262zM406 803q0 -33 22.5 -56.5t54.5 -23.5q33 0 56.5 23.5t23.5 56.5q0 31 -23.5 55.5t-56.5 24.5t-55 -23.5t-22 -56.5zM414 301q0 -33 22.5 -56.5t55.5 -23.5t56 22.5t23 57.5q0 33 -23.5 56.5t-55.5 23.5q-33 0 -55.5 -23.5t-22.5 -56.5z M461 969q0 -33 22.5 -56.5t55.5 -23.5t56 23.5t23 56.5q0 31 -23.5 55.5t-55.5 24.5q-33 0 -55.5 -24t-22.5 -56zM514 1133q0 -35 22.5 -57.5t57.5 -22.5q33 0 55.5 22.5t22.5 57.5q0 31 -23.5 54t-54.5 23q-35 0 -57.5 -22.5t-22.5 -54.5zM527 1669q0 -33 22.5 -56.5 t56.5 -23.5q33 0 56.5 23.5t23.5 56.5t-23.5 55.5t-56.5 22.5q-35 0 -57 -22.5t-22 -55.5zM571 457h220l-111 374zM596 301q0 -33 24.5 -56.5t55.5 -23.5q35 0 57.5 22.5t22.5 57.5q0 33 -22.5 56.5t-57.5 23.5q-33 0 -56.5 -23.5t-23.5 -56.5zM602 1479q0 -35 23.5 -57.5 t56.5 -22.5q35 0 57.5 22.5t22.5 57.5q0 33 -22.5 55t-57.5 22q-33 0 -56.5 -22.5t-23.5 -54.5zM688 1133q0 -35 23.5 -57.5t56.5 -22.5t55.5 22.5t22.5 57.5q0 31 -23.5 54t-54.5 23q-33 0 -56.5 -22.5t-23.5 -54.5zM735 967q0 -33 21.5 -56.5t56.5 -23.5q33 0 56.5 23.5 t23.5 56.5t-23.5 56.5t-56.5 23.5t-55.5 -24t-22.5 -56zM786 301q0 -33 23.5 -56.5t56.5 -23.5t55.5 22.5t22.5 57.5q0 33 -22.5 56.5t-55.5 23.5t-56.5 -23.5t-23.5 -56.5zM791 801q0 -33 22.5 -55.5t56.5 -22.5q33 0 56.5 22.5t23.5 55.5q0 35 -23.5 57.5t-56.5 22.5 t-56 -23.5t-23 -56.5zM848 639q0 -35 23.5 -57.5t56.5 -22.5t55.5 22.5t22.5 57.5q0 33 -22.5 55.5t-55.5 22.5t-56.5 -22.5t-23.5 -55.5zM905 473q0 -33 22.5 -56.5t55.5 -23.5t56.5 23.5t23.5 56.5q0 31 -23.5 55.5t-56.5 24.5t-55.5 -23.5t-22.5 -56.5zM963 307 q0 -33 22.5 -55.5t54.5 -22.5q33 0 56.5 22.5t23.5 55.5t-24.5 56.5t-55.5 23.5q-33 0 -55 -22.5t-22 -57.5zM1016 145q0 -35 23.5 -57t56.5 -22q35 0 57.5 22t22.5 57q0 33 -23 55.5t-57 22.5q-31 0 -55.5 -23.5t-24.5 -54.5z" />
<glyph unicode="&#xc1;" d="M12 0l447 1288h442l449 -1288h-422l-41 135h-408l-43 -135h-424zM178 145q0 -35 21.5 -57t56.5 -22q33 0 56.5 22t23.5 57q0 31 -24.5 54.5t-55.5 23.5q-35 0 -56.5 -22.5t-21.5 -55.5zM233 307q0 -33 24 -55.5t56 -22.5q33 0 56.5 22.5t23.5 55.5t-24.5 56.5t-55.5 23.5 q-33 0 -56.5 -22.5t-23.5 -57.5zM291 473q0 -33 22.5 -56.5t55.5 -23.5t56.5 23.5t23.5 56.5q0 31 -24 55.5t-56 24.5q-33 0 -55.5 -23.5t-22.5 -56.5zM348 639q0 -33 22.5 -56.5t55.5 -23.5t56.5 23.5t23.5 56.5q0 31 -23.5 55.5t-56.5 24.5t-55.5 -23.5t-22.5 -56.5z M406 803q0 -33 22.5 -56.5t54.5 -23.5q33 0 56.5 23.5t23.5 56.5q0 31 -23.5 55.5t-56.5 24.5t-55 -23.5t-22 -56.5zM414 301q0 -33 22.5 -56.5t55.5 -23.5t56 22.5t23 57.5q0 33 -23.5 56.5t-55.5 23.5q-33 0 -55.5 -23.5t-22.5 -56.5zM461 969q0 -33 22.5 -56.5 t55.5 -23.5t56 23.5t23 56.5q0 31 -23.5 55.5t-55.5 24.5q-33 0 -55.5 -24t-22.5 -56zM506 1350l118 452h351l-207 -452h-262zM514 1133q0 -35 22.5 -57.5t57.5 -22.5q33 0 55.5 22.5t22.5 57.5q0 31 -23.5 54t-54.5 23q-35 0 -57.5 -22.5t-22.5 -54.5zM571 457h220 l-111 374zM596 301q0 -33 24.5 -56.5t55.5 -23.5q35 0 57.5 22.5t22.5 57.5q0 33 -22.5 56.5t-57.5 23.5q-33 0 -56.5 -23.5t-23.5 -56.5zM598 1479q0 -35 21.5 -57.5t56.5 -22.5q33 0 56 22.5t23 57.5q0 33 -23.5 55t-55.5 22q-35 0 -56.5 -22.5t-21.5 -54.5zM674 1669 q0 -33 22.5 -56.5t54.5 -23.5q35 0 57.5 23.5t22.5 56.5t-22.5 55.5t-57.5 22.5q-33 0 -55 -22.5t-22 -55.5zM688 1133q0 -35 23.5 -57.5t56.5 -22.5t55.5 22.5t22.5 57.5q0 31 -23.5 54t-54.5 23q-33 0 -56.5 -22.5t-23.5 -54.5zM735 967q0 -33 21.5 -56.5t56.5 -23.5 q33 0 56.5 23.5t23.5 56.5t-23.5 56.5t-56.5 23.5t-55.5 -24t-22.5 -56zM786 301q0 -33 23.5 -56.5t56.5 -23.5t55.5 22.5t22.5 57.5q0 33 -22.5 56.5t-55.5 23.5t-56.5 -23.5t-23.5 -56.5zM791 801q0 -33 22.5 -55.5t56.5 -22.5q33 0 56.5 22.5t23.5 55.5q0 35 -23.5 57.5 t-56.5 22.5t-56 -23.5t-23 -56.5zM848 639q0 -35 23.5 -57.5t56.5 -22.5t55.5 22.5t22.5 57.5q0 33 -22.5 55.5t-55.5 22.5t-56.5 -22.5t-23.5 -55.5zM905 473q0 -33 22.5 -56.5t55.5 -23.5t56.5 23.5t23.5 56.5q0 31 -23.5 55.5t-56.5 24.5t-55.5 -23.5t-22.5 -56.5z M963 307q0 -33 22.5 -55.5t54.5 -22.5q33 0 56.5 22.5t23.5 55.5t-24.5 56.5t-55.5 23.5q-33 0 -55 -22.5t-22 -57.5zM1016 145q0 -35 23.5 -57t56.5 -22q35 0 57.5 22t22.5 57q0 33 -23 55.5t-57 22.5q-31 0 -55.5 -23.5t-24.5 -54.5z" />
<glyph unicode="&#xc2;" d="M12 0l447 1288h442l449 -1288h-422l-41 135h-408l-43 -135h-424zM178 145q0 -35 21.5 -57t56.5 -22q33 0 56.5 22t23.5 57q0 31 -24.5 54.5t-55.5 23.5q-35 0 -56.5 -22.5t-21.5 -55.5zM233 307q0 -33 24 -55.5t56 -22.5q33 0 56.5 22.5t23.5 55.5t-24.5 56.5t-55.5 23.5 q-33 0 -56.5 -22.5t-23.5 -57.5zM291 473q0 -33 22.5 -56.5t55.5 -23.5t56.5 23.5t23.5 56.5q0 31 -24 55.5t-56 24.5q-33 0 -55.5 -23.5t-22.5 -56.5zM312 1350l282 452h170l283 -452h-303l-66 149l-67 -149h-299zM348 639q0 -33 22.5 -56.5t55.5 -23.5t56.5 23.5 t23.5 56.5q0 31 -23.5 55.5t-56.5 24.5t-55.5 -23.5t-22.5 -56.5zM406 803q0 -33 22.5 -56.5t54.5 -23.5q33 0 56.5 23.5t23.5 56.5q0 31 -23.5 55.5t-56.5 24.5t-55 -23.5t-22 -56.5zM414 301q0 -33 22.5 -56.5t55.5 -23.5t56 22.5t23 57.5q0 33 -23.5 56.5t-55.5 23.5 q-33 0 -55.5 -23.5t-22.5 -56.5zM457 1479q0 -35 22.5 -57.5t57.5 -22.5q33 0 55.5 22.5t22.5 57.5q0 33 -22.5 55t-55.5 22q-35 0 -57.5 -22.5t-22.5 -54.5zM461 969q0 -33 22.5 -56.5t55.5 -23.5t56 23.5t23 56.5q0 31 -23.5 55.5t-55.5 24.5q-33 0 -55.5 -24t-22.5 -56z M514 1133q0 -35 22.5 -57.5t57.5 -22.5q33 0 55.5 22.5t22.5 57.5q0 31 -23.5 54t-54.5 23q-35 0 -57.5 -22.5t-22.5 -54.5zM571 457h220l-111 374zM596 301q0 -33 24.5 -56.5t55.5 -23.5q35 0 57.5 22.5t22.5 57.5q0 33 -22.5 56.5t-57.5 23.5q-33 0 -56.5 -23.5 t-23.5 -56.5zM598 1669q0 -33 23.5 -56.5t56.5 -23.5q35 0 56.5 23.5t21.5 56.5t-21.5 55.5t-56.5 22.5q-33 0 -56.5 -22.5t-23.5 -55.5zM688 1133q0 -35 23.5 -57.5t56.5 -22.5t55.5 22.5t22.5 57.5q0 31 -23.5 54t-54.5 23q-33 0 -56.5 -22.5t-23.5 -54.5zM735 967 q0 -33 21.5 -56.5t56.5 -23.5q33 0 56.5 23.5t23.5 56.5t-23.5 56.5t-56.5 23.5t-55.5 -24t-22.5 -56zM744 1479q0 -35 22.5 -57.5t55.5 -22.5q35 0 57 22.5t22 57.5q0 33 -22.5 55t-56.5 22q-33 0 -55.5 -22.5t-22.5 -54.5zM786 301q0 -33 23.5 -56.5t56.5 -23.5t55.5 22.5 t22.5 57.5q0 33 -22.5 56.5t-55.5 23.5t-56.5 -23.5t-23.5 -56.5zM791 801q0 -33 22.5 -55.5t56.5 -22.5q33 0 56.5 22.5t23.5 55.5q0 35 -23.5 57.5t-56.5 22.5t-56 -23.5t-23 -56.5zM848 639q0 -35 23.5 -57.5t56.5 -22.5t55.5 22.5t22.5 57.5q0 33 -22.5 55.5t-55.5 22.5 t-56.5 -22.5t-23.5 -55.5zM905 473q0 -33 22.5 -56.5t55.5 -23.5t56.5 23.5t23.5 56.5q0 31 -23.5 55.5t-56.5 24.5t-55.5 -23.5t-22.5 -56.5zM963 307q0 -33 22.5 -55.5t54.5 -22.5q33 0 56.5 22.5t23.5 55.5t-24.5 56.5t-55.5 23.5q-33 0 -55 -22.5t-22 -57.5zM1016 145 q0 -35 23.5 -57t56.5 -22q35 0 57.5 22t22.5 57q0 33 -23 55.5t-57 22.5q-31 0 -55.5 -23.5t-24.5 -54.5z" />
<glyph unicode="&#xc3;" d="M12 0l447 1288h442l449 -1288h-422l-41 135h-408l-43 -135h-424zM178 145q0 -35 21.5 -57t56.5 -22q33 0 56.5 22t23.5 57q0 31 -24.5 54.5t-55.5 23.5q-35 0 -56.5 -22.5t-21.5 -55.5zM233 307q0 -33 24 -55.5t56 -22.5q33 0 56.5 22.5t23.5 55.5t-24.5 56.5t-55.5 23.5 q-33 0 -56.5 -22.5t-23.5 -57.5zM291 473q0 -33 22.5 -56.5t55.5 -23.5t56.5 23.5t23.5 56.5q0 31 -24 55.5t-56 24.5q-33 0 -55.5 -23.5t-22.5 -56.5zM291 1405v252q33 35 83 62.5t121 27.5q51 0 97.5 -14.5t88.5 -33t82 -32.5t83 -14q80 0 131 26.5t92 87.5v-268 q-53 -45 -104.5 -65.5t-129.5 -20.5q-43 0 -84 14.5t-82 31t-81.5 30.5t-83.5 14q-76 0 -124 -21.5t-89 -76.5zM338 1606q0 -35 23.5 -57.5t56.5 -22.5t56 22.5t23 57.5q0 31 -24.5 54t-54.5 23q-33 0 -56.5 -22.5t-23.5 -54.5zM348 639q0 -33 22.5 -56.5t55.5 -23.5 t56.5 23.5t23.5 56.5q0 31 -23.5 55.5t-56.5 24.5t-55.5 -23.5t-22.5 -56.5zM406 803q0 -33 22.5 -56.5t54.5 -23.5q33 0 56.5 23.5t23.5 56.5q0 31 -23.5 55.5t-56.5 24.5t-55 -23.5t-22 -56.5zM414 301q0 -33 22.5 -56.5t55.5 -23.5t56 22.5t23 57.5q0 33 -23.5 56.5 t-55.5 23.5q-33 0 -55.5 -23.5t-22.5 -56.5zM461 969q0 -33 22.5 -56.5t55.5 -23.5t56 23.5t23 56.5q0 31 -23.5 55.5t-55.5 24.5q-33 0 -55.5 -24t-22.5 -56zM514 1133q0 -35 22.5 -57.5t57.5 -22.5q33 0 55.5 22.5t22.5 57.5q0 31 -23.5 54t-54.5 23q-35 0 -57.5 -22.5 t-22.5 -54.5zM518 1608q0 -35 22.5 -57.5t55.5 -22.5t56.5 22.5t23.5 57.5q0 31 -25 54.5t-55 23.5q-33 0 -55.5 -23t-22.5 -55zM571 457h220l-111 374zM596 301q0 -33 24.5 -56.5t55.5 -23.5q35 0 57.5 22.5t22.5 57.5q0 33 -22.5 56.5t-57.5 23.5q-33 0 -56.5 -23.5 t-23.5 -56.5zM686 1542q0 -35 23.5 -56.5t56.5 -21.5t55.5 21.5t22.5 56.5q0 33 -24 56.5t-54 23.5q-33 0 -56.5 -23.5t-23.5 -56.5zM688 1133q0 -35 23.5 -57.5t56.5 -22.5t55.5 22.5t22.5 57.5q0 31 -23.5 54t-54.5 23q-33 0 -56.5 -22.5t-23.5 -54.5zM735 967 q0 -33 21.5 -56.5t56.5 -23.5q33 0 56.5 23.5t23.5 56.5t-23.5 56.5t-56.5 23.5t-55.5 -24t-22.5 -56zM786 301q0 -33 23.5 -56.5t56.5 -23.5t55.5 22.5t22.5 57.5q0 33 -22.5 56.5t-55.5 23.5t-56.5 -23.5t-23.5 -56.5zM791 801q0 -33 22.5 -55.5t56.5 -22.5 q33 0 56.5 22.5t23.5 55.5q0 35 -23.5 57.5t-56.5 22.5t-56 -23.5t-23 -56.5zM848 639q0 -35 23.5 -57.5t56.5 -22.5t55.5 22.5t22.5 57.5q0 33 -22.5 55.5t-55.5 22.5t-56.5 -22.5t-23.5 -55.5zM862 1556q0 -35 23.5 -56t56.5 -21t56.5 21t23.5 56q0 31 -24.5 55.5 t-55.5 24.5q-33 0 -56.5 -23.5t-23.5 -56.5zM905 473q0 -33 22.5 -56.5t55.5 -23.5t56.5 23.5t23.5 56.5q0 31 -23.5 55.5t-56.5 24.5t-55.5 -23.5t-22.5 -56.5zM963 307q0 -33 22.5 -55.5t54.5 -22.5q33 0 56.5 22.5t23.5 55.5t-24.5 56.5t-55.5 23.5q-33 0 -55 -22.5 t-22 -57.5zM1016 145q0 -35 23.5 -57t56.5 -22q35 0 57.5 22t22.5 57q0 33 -23 55.5t-57 22.5q-31 0 -55.5 -23.5t-24.5 -54.5z" />
<glyph unicode="&#xc4;" d="M12 0l447 1288h442l449 -1288h-422l-41 135h-408l-43 -135h-424zM178 145q0 -35 21.5 -57t56.5 -22q33 0 56.5 22t23.5 57q0 31 -24.5 54.5t-55.5 23.5q-35 0 -56.5 -22.5t-21.5 -55.5zM233 307q0 -33 24 -55.5t56 -22.5q33 0 56.5 22.5t23.5 55.5t-24.5 56.5t-55.5 23.5 q-33 0 -56.5 -22.5t-23.5 -57.5zM237 1569q0 88 56.5 145.5t144.5 57.5t144.5 -58.5t56.5 -144.5q0 -92 -54.5 -145.5t-146.5 -53.5q-88 0 -144.5 53.5t-56.5 145.5zM291 473q0 -33 22.5 -56.5t55.5 -23.5t56.5 23.5t23.5 56.5q0 31 -24 55.5t-56 24.5q-33 0 -55.5 -23.5 t-22.5 -56.5zM348 639q0 -33 22.5 -56.5t55.5 -23.5t56.5 23.5t23.5 56.5q0 31 -23.5 55.5t-56.5 24.5t-55.5 -23.5t-22.5 -56.5zM358 1569q0 -33 22.5 -56.5t57.5 -23.5q33 0 56.5 23.5t23.5 56.5q0 35 -23.5 57.5t-56.5 22.5q-35 0 -57.5 -22.5t-22.5 -57.5zM406 803 q0 -33 22.5 -56.5t54.5 -23.5q33 0 56.5 23.5t23.5 56.5q0 31 -23.5 55.5t-56.5 24.5t-55 -23.5t-22 -56.5zM414 301q0 -33 22.5 -56.5t55.5 -23.5t56 22.5t23 57.5q0 33 -23.5 56.5t-55.5 23.5q-33 0 -55.5 -23.5t-22.5 -56.5zM461 969q0 -33 22.5 -56.5t55.5 -23.5 t56 23.5t23 56.5q0 31 -23.5 55.5t-55.5 24.5q-33 0 -55.5 -24t-22.5 -56zM514 1133q0 -35 22.5 -57.5t57.5 -22.5q33 0 55.5 22.5t22.5 57.5q0 31 -23.5 54t-54.5 23q-35 0 -57.5 -22.5t-22.5 -54.5zM571 457h220l-111 374zM596 301q0 -33 24.5 -56.5t55.5 -23.5 q35 0 57.5 22.5t22.5 57.5q0 33 -22.5 56.5t-57.5 23.5q-33 0 -56.5 -23.5t-23.5 -56.5zM688 1133q0 -35 23.5 -57.5t56.5 -22.5t55.5 22.5t22.5 57.5q0 31 -23.5 54t-54.5 23q-33 0 -56.5 -22.5t-23.5 -54.5zM718 1569q0 88 56.5 145.5t144.5 57.5t144.5 -58.5t56.5 -144.5 q0 -92 -54.5 -145.5t-146.5 -53.5q-88 0 -144.5 53.5t-56.5 145.5zM735 967q0 -33 21.5 -56.5t56.5 -23.5q33 0 56.5 23.5t23.5 56.5t-23.5 56.5t-56.5 23.5t-55.5 -24t-22.5 -56zM786 301q0 -33 23.5 -56.5t56.5 -23.5t55.5 22.5t22.5 57.5q0 33 -22.5 56.5t-55.5 23.5 t-56.5 -23.5t-23.5 -56.5zM791 801q0 -33 22.5 -55.5t56.5 -22.5q33 0 56.5 22.5t23.5 55.5q0 35 -23.5 57.5t-56.5 22.5t-56 -23.5t-23 -56.5zM841 1569q0 -33 21.5 -56.5t56.5 -23.5q33 0 56.5 23.5t23.5 56.5q0 35 -23.5 57.5t-56.5 22.5q-35 0 -56.5 -22.5t-21.5 -57.5z M848 639q0 -35 23.5 -57.5t56.5 -22.5t55.5 22.5t22.5 57.5q0 33 -22.5 55.5t-55.5 22.5t-56.5 -22.5t-23.5 -55.5zM905 473q0 -33 22.5 -56.5t55.5 -23.5t56.5 23.5t23.5 56.5q0 31 -23.5 55.5t-56.5 24.5t-55.5 -23.5t-22.5 -56.5zM963 307q0 -33 22.5 -55.5t54.5 -22.5 q33 0 56.5 22.5t23.5 55.5t-24.5 56.5t-55.5 23.5q-33 0 -55 -22.5t-22 -57.5zM1016 145q0 -35 23.5 -57t56.5 -22q35 0 57.5 22t22.5 57q0 33 -23 55.5t-57 22.5q-31 0 -55.5 -23.5t-24.5 -54.5z" />
<glyph unicode="&#xc5;" d="M12 0l447 1288h442l449 -1288h-422l-41 135h-408l-43 -135h-424zM178 145q0 -35 21.5 -57t56.5 -22q33 0 56.5 22t23.5 57q0 31 -24.5 54.5t-55.5 23.5q-35 0 -56.5 -22.5t-21.5 -55.5zM233 307q0 -33 24 -55.5t56 -22.5q33 0 56.5 22.5t23.5 55.5t-24.5 56.5t-55.5 23.5 q-33 0 -56.5 -22.5t-23.5 -57.5zM291 473q0 -33 22.5 -56.5t55.5 -23.5t56.5 23.5t23.5 56.5q0 31 -24 55.5t-56 24.5q-33 0 -55.5 -23.5t-22.5 -56.5zM348 639q0 -33 22.5 -56.5t55.5 -23.5t56.5 23.5t23.5 56.5q0 31 -23.5 55.5t-56.5 24.5t-55.5 -23.5t-22.5 -56.5z M406 803q0 -33 22.5 -56.5t54.5 -23.5q33 0 56.5 23.5t23.5 56.5q0 31 -23.5 55.5t-56.5 24.5t-55 -23.5t-22 -56.5zM414 301q0 -33 22.5 -56.5t55.5 -23.5t56 22.5t23 57.5q0 33 -23.5 56.5t-55.5 23.5q-33 0 -55.5 -23.5t-22.5 -56.5zM420 1554q0 111 71.5 179.5 t188.5 68.5q57 0 104 -18.5t82 -52t54.5 -79t19.5 -98.5q0 -106 -71.5 -173.5t-188.5 -67.5t-188.5 67.5t-71.5 173.5zM461 969q0 -33 22.5 -56.5t55.5 -23.5t56 23.5t23 56.5q0 31 -23.5 55.5t-55.5 24.5q-33 0 -55.5 -24t-22.5 -56zM477 1559q0 -31 20.5 -53.5t55.5 -22.5 q29 0 51.5 22.5t22.5 53.5q0 35 -22.5 55t-51.5 20q-76 0 -76 -75zM514 1133q0 -35 22.5 -57.5t57.5 -22.5q33 0 55.5 22.5t22.5 57.5q0 31 -23.5 54t-54.5 23q-35 0 -57.5 -22.5t-22.5 -54.5zM571 457h220l-111 374zM596 301q0 -33 24.5 -56.5t55.5 -23.5q35 0 57.5 22.5 t22.5 57.5q0 33 -22.5 56.5t-57.5 23.5q-33 0 -56.5 -23.5t-23.5 -56.5zM598 1425q0 -31 21.5 -53t54.5 -22q31 0 53 22t22 53q0 33 -22.5 53.5t-52.5 20.5q-33 0 -54.5 -20.5t-21.5 -53.5zM598 1694q0 -31 21.5 -53.5t54.5 -22.5q31 0 53 22.5t22 53.5q0 33 -22.5 54 t-52.5 21q-33 0 -54.5 -21.5t-21.5 -53.5zM688 1133q0 -35 23.5 -57.5t56.5 -22.5t55.5 22.5t22.5 57.5q0 31 -23.5 54t-54.5 23q-33 0 -56.5 -22.5t-23.5 -54.5zM727 1559q0 -31 21.5 -53.5t54.5 -22.5q31 0 53 22.5t22 53.5q0 35 -22.5 55t-52.5 20q-33 0 -54.5 -20.5 t-21.5 -54.5zM735 967q0 -33 21.5 -56.5t56.5 -23.5q33 0 56.5 23.5t23.5 56.5t-23.5 56.5t-56.5 23.5t-55.5 -24t-22.5 -56zM786 301q0 -33 23.5 -56.5t56.5 -23.5t55.5 22.5t22.5 57.5q0 33 -22.5 56.5t-55.5 23.5t-56.5 -23.5t-23.5 -56.5zM791 801q0 -33 22.5 -55.5 t56.5 -22.5q33 0 56.5 22.5t23.5 55.5q0 35 -23.5 57.5t-56.5 22.5t-56 -23.5t-23 -56.5zM848 639q0 -35 23.5 -57.5t56.5 -22.5t55.5 22.5t22.5 57.5q0 33 -22.5 55.5t-55.5 22.5t-56.5 -22.5t-23.5 -55.5zM905 473q0 -33 22.5 -56.5t55.5 -23.5t56.5 23.5t23.5 56.5 q0 31 -23.5 55.5t-56.5 24.5t-55.5 -23.5t-22.5 -56.5zM963 307q0 -33 22.5 -55.5t54.5 -22.5q33 0 56.5 22.5t23.5 55.5t-24.5 56.5t-55.5 23.5q-33 0 -55 -22.5t-22 -57.5zM1016 145q0 -35 23.5 -57t56.5 -22q35 0 57.5 22t22.5 57q0 33 -23 55.5t-57 22.5 q-31 0 -55.5 -23.5t-24.5 -54.5z" />
<glyph unicode="&#xc6;" horiz-adv-x="1585" d="M12 0l443 1288h1067v-327h-369v-150h369v-322h-369v-151h369v-338h-750v139h-301l-41 -139h-418zM176 147q0 -35 21.5 -56t54.5 -21t55.5 21.5t22.5 55.5q0 33 -22.5 55.5t-55.5 22.5t-54.5 -22.5t-21.5 -55.5zM231 309q0 -33 21.5 -55.5t54.5 -22.5q35 -2 56.5 23 t21.5 55q0 35 -21.5 57.5t-56.5 22.5q-31 0 -53.5 -23.5t-22.5 -56.5zM285 473q0 -31 23.5 -55.5t56.5 -24.5t56 23.5t23 56.5t-23.5 56.5t-55.5 23.5q-35 0 -57.5 -23.5t-22.5 -56.5zM344 639q0 -35 21.5 -57.5t56.5 -22.5q33 0 55.5 22.5t22.5 57.5q0 33 -22.5 55.5 t-55.5 22.5q-35 0 -56.5 -22.5t-21.5 -55.5zM403 825q0 -102 74 -102q33 0 55.5 22.5t22.5 55.5q0 35 -23.5 57.5t-56.5 22.5q-23 0 -47.5 -15.5t-24.5 -40.5zM444 305q0 -35 21.5 -57.5t56.5 -22.5q33 0 55.5 22.5t22.5 57.5q0 31 -22.5 54.5t-55.5 23.5q-35 0 -56.5 -22.5 t-21.5 -55.5zM459 991q0 -104 73 -104q33 0 55.5 21.5t22.5 54.5q0 35 -23.5 57t-56.5 22q-72 0 -71 -51zM508 1128q0 -33 22.5 -56t55.5 -23q35 0 56.5 23.5t21.5 55.5q0 31 -23 55.5t-55 24.5q-33 0 -55.5 -23.5t-22.5 -56.5zM565 459h207v471h-70zM664 305 q0 -35 22 -57.5t55 -22.5t55.5 22.5t22.5 57.5q0 33 -22.5 55.5t-55.5 22.5t-55 -22.5t-22 -55.5zM694 1128q0 -33 22.5 -56t55.5 -23q35 0 56.5 23.5t21.5 55.5q0 31 -22.5 55.5t-55.5 24.5t-55.5 -23.5t-22.5 -56.5zM877 178q0 -33 21.5 -55.5t53.5 -22.5q33 0 55.5 22.5 t22.5 55.5t-22.5 55.5t-55.5 22.5t-54 -22.5t-21 -55.5zM877 367q0 -33 21 -56.5t54 -23.5t55.5 23.5t22.5 56.5q0 35 -22.5 57t-55.5 22t-54 -22.5t-21 -56.5zM877 555q0 -33 21.5 -55.5t53.5 -22.5q33 0 55.5 22.5t22.5 55.5t-22.5 56.5t-55.5 23.5t-54 -23.5t-21 -56.5z M877 743q0 -33 21.5 -55t53.5 -22q33 0 55.5 22t22.5 55q0 35 -22.5 57.5t-55.5 22.5t-54 -22.5t-21 -57.5zM877 932q0 -33 21.5 -55.5t53.5 -22.5q33 0 55.5 22.5t22.5 55.5t-22.5 56.5t-55.5 23.5t-54 -23.5t-21 -56.5zM877 1122q0 -33 21 -56.5t54 -23.5t55.5 24t22.5 56 q0 35 -22.5 55.5t-55.5 20.5t-54 -20.5t-21 -55.5zM1063 178q0 -33 22.5 -55.5t55.5 -22.5t56.5 22.5t23.5 55.5t-23.5 55.5t-56.5 22.5t-55.5 -22.5t-22.5 -55.5zM1063 651q0 -33 22.5 -56.5t55.5 -23.5t56.5 23.5t23.5 56.5t-23.5 54.5t-56.5 21.5t-55.5 -21.5 t-22.5 -54.5zM1063 1122q0 -33 22.5 -56.5t55.5 -23.5t56.5 23.5t23.5 56.5q0 35 -23.5 55.5t-56.5 20.5t-55.5 -20.5t-22.5 -55.5zM1251 178q0 -33 21.5 -55.5t54.5 -22.5q35 0 56.5 22.5t21.5 55.5t-21.5 55.5t-56.5 22.5q-33 0 -54.5 -22.5t-21.5 -55.5zM1251 651 q0 -33 21.5 -56.5t54.5 -23.5q35 0 56.5 23.5t21.5 56.5t-21.5 54.5t-56.5 21.5q-33 0 -54.5 -21.5t-21.5 -54.5zM1251 1122q0 -33 21.5 -56.5t54.5 -23.5q35 0 56.5 24t21.5 56q0 35 -21.5 55.5t-56.5 20.5q-33 0 -54.5 -20.5t-21.5 -55.5z" />
<glyph unicode="&#xc7;" horiz-adv-x="1310" d="M49 643q0 147 49 270t138.5 212t211 138.5t267.5 49.5q211 0 342 -73t209 -214l-279 -258q-80 182 -262 182q-66 0 -118 -23.5t-91 -64.5t-59.5 -97t-20.5 -122t20.5 -121t58.5 -96t91 -64.5t119 -23.5q113 0 180.5 52t98.5 130l290 -209q-39 -74 -92 -135t-124.5 -105 t-162 -70t-200.5 -26q-145 0 -267 49.5t-211.5 138.5t-138.5 212t-49 268zM166 647q0 -33 21.5 -56.5t56.5 -23.5q33 0 56.5 23.5t23.5 56.5q0 35 -24 56.5t-56 21.5q-35 0 -56.5 -21.5t-21.5 -56.5zM197 461q0 -31 23.5 -55.5t53.5 -24.5q33 0 56.5 23.5t23.5 56.5 q0 35 -23.5 57.5t-56.5 22.5t-55 -22.5t-22 -57.5zM197 825q0 -31 23.5 -54t53.5 -23q33 0 56.5 22t23.5 55q0 35 -23.5 57.5t-56.5 22.5t-55 -22.5t-22 -57.5zM295 977q0 -33 23.5 -56.5t56.5 -23.5q31 0 55.5 23.5t24.5 56.5t-23.5 56.5t-56.5 23.5t-56.5 -23.5 t-23.5 -56.5zM299 305q0 -33 23.5 -56.5t56.5 -23.5q31 0 54.5 24.5t23.5 55.5q0 33 -22.5 55.5t-55.5 22.5t-56.5 -22.5t-23.5 -55.5zM446 1090q0 -33 21.5 -56.5t56.5 -23.5q31 0 55.5 24.5t24.5 55.5q0 33 -23.5 55t-56.5 22q-35 0 -56.5 -22.5t-21.5 -54.5zM449 199 q0 -33 22.5 -55.5t56.5 -22.5q31 0 55.5 22.5t24.5 55.5t-23.5 56.5t-56.5 23.5q-35 0 -57 -24t-22 -56zM536 -414l19 385l305 -51l-90 -364zM591 -311q0 -35 20.5 -54.5t51.5 -19.5q76 0 76 78q0 29 -22.5 48t-51.5 19q-33 0 -53.5 -21.5t-20.5 -49.5zM618 -156 q0 -31 22.5 -51t51.5 -20q39 0 57.5 23.5t18.5 56.5q0 29 -21.5 48t-52.5 19q-33 0 -54.5 -22.5t-21.5 -53.5zM629 156q0 -33 23.5 -56.5t56.5 -23.5q35 0 57 23.5t22 56.5t-22.5 55t-56.5 22q-33 0 -56.5 -22.5t-23.5 -54.5zM629 1135q0 -35 23.5 -57.5t56.5 -22.5 q35 0 57 22.5t22 57.5q0 33 -22.5 55t-56.5 22q-31 0 -55.5 -23.5t-24.5 -53.5zM813 1100q0 -33 23.5 -56.5t56.5 -23.5t56.5 24.5t23.5 55.5q0 33 -22.5 55.5t-57.5 22.5q-33 0 -56.5 -22.5t-23.5 -55.5zM817 193q0 -33 23.5 -56.5t56.5 -23.5t55.5 23.5t22.5 56.5 t-21.5 56t-56.5 23q-33 0 -56.5 -23.5t-23.5 -55.5zM971 995q0 -33 22.5 -56.5t55.5 -23.5t56 23.5t23 56.5t-23.5 55.5t-55.5 22.5q-33 0 -55.5 -22.5t-22.5 -55.5zM975 301q0 -33 23.5 -56.5t56.5 -23.5q31 0 55.5 24.5t24.5 55.5q0 33 -24 56.5t-56 23.5 q-33 0 -56.5 -23.5t-23.5 -56.5z" />
<glyph unicode="&#xc8;" horiz-adv-x="909" d="M76 0v1288h772v-325h-373v-150h373v-326h-373v-149h373v-338h-772zM176 1802h348l119 -452h-262zM193 176q0 -33 23 -56.5t56 -23.5q35 0 56.5 23.5t21.5 56.5t-21.5 55.5t-56.5 22.5q-33 0 -56 -22.5t-23 -55.5zM193 367q0 -35 23 -57.5t56 -22.5q35 0 56.5 22.5 t21.5 57.5q0 33 -21.5 56t-56.5 23q-33 0 -56 -23.5t-23 -55.5zM193 555q0 -33 23.5 -55.5t55.5 -22.5q35 0 56.5 22.5t21.5 55.5t-21.5 56.5t-56.5 23.5q-33 0 -56 -23.5t-23 -56.5zM193 745q0 -33 23 -56t56 -23q35 0 56.5 23.5t21.5 55.5q0 35 -21.5 56.5t-56.5 21.5 q-33 0 -56 -21.5t-23 -56.5zM193 936q0 -35 23 -57.5t56 -22.5q35 0 56.5 22.5t21.5 57.5q0 33 -21.5 56.5t-56.5 23.5q-33 0 -56 -23.5t-23 -56.5zM193 1124q0 -33 23.5 -55t55.5 -22q35 0 56.5 22t21.5 55t-21.5 56.5t-56.5 23.5q-33 0 -56 -23.5t-23 -56.5zM318 1669 q0 -33 22.5 -56.5t56.5 -23.5q33 0 56.5 23.5t23.5 56.5t-23.5 55.5t-56.5 22.5q-35 0 -57 -22.5t-22 -55.5zM383 176q0 -33 22.5 -56.5t57.5 -23.5q33 0 56.5 23.5t23.5 56.5t-23.5 55.5t-56.5 22.5q-35 0 -57.5 -22.5t-22.5 -55.5zM383 651q0 -33 22.5 -56.5t57.5 -23.5 q33 0 56.5 23.5t23.5 56.5t-23.5 55.5t-56.5 22.5q-35 0 -57.5 -22.5t-22.5 -55.5zM383 1124q0 -33 22.5 -55t57.5 -22q33 0 56.5 22t23.5 55t-23.5 56.5t-56.5 23.5q-35 0 -57.5 -23.5t-22.5 -56.5zM393 1479q0 -35 23.5 -57.5t56.5 -22.5q35 0 57.5 22.5t22.5 57.5 q0 33 -22.5 55t-57.5 22q-33 0 -56.5 -22.5t-23.5 -54.5zM573 176q0 -33 22.5 -56.5t55.5 -23.5t56.5 23.5t23.5 56.5t-23.5 55.5t-56.5 22.5t-55.5 -22.5t-22.5 -55.5zM573 651q0 -33 22.5 -56.5t55.5 -23.5t56.5 23.5t23.5 56.5t-23.5 55.5t-56.5 22.5t-55.5 -22.5 t-22.5 -55.5zM573 1124q0 -33 22.5 -55t55.5 -22t56.5 22t23.5 55t-23.5 56.5t-56.5 23.5t-55.5 -23.5t-22.5 -56.5z" />
<glyph unicode="&#xc9;" horiz-adv-x="909" d="M76 0v1288h772v-325h-373v-150h373v-326h-373v-149h373v-338h-772zM193 176q0 -33 23 -56.5t56 -23.5q35 0 56.5 23.5t21.5 56.5t-21.5 55.5t-56.5 22.5q-33 0 -56 -22.5t-23 -55.5zM193 367q0 -35 23 -57.5t56 -22.5q35 0 56.5 22.5t21.5 57.5q0 33 -21.5 56t-56.5 23 q-33 0 -56 -23.5t-23 -55.5zM193 555q0 -33 23.5 -55.5t55.5 -22.5q35 0 56.5 22.5t21.5 55.5t-21.5 56.5t-56.5 23.5q-33 0 -56 -23.5t-23 -56.5zM193 745q0 -33 23 -56t56 -23q35 0 56.5 23.5t21.5 55.5q0 35 -21.5 56.5t-56.5 21.5q-33 0 -56 -21.5t-23 -56.5zM193 936 q0 -35 23 -57.5t56 -22.5q35 0 56.5 22.5t21.5 57.5q0 33 -21.5 56.5t-56.5 23.5q-33 0 -56 -23.5t-23 -56.5zM193 1124q0 -33 23.5 -55t55.5 -22q35 0 56.5 22t21.5 55t-21.5 56.5t-56.5 23.5q-33 0 -56 -23.5t-23 -56.5zM299 1350l118 452h351l-207 -452h-262zM383 176 q0 -33 22.5 -56.5t57.5 -23.5q33 0 56.5 23.5t23.5 56.5t-23.5 55.5t-56.5 22.5q-35 0 -57.5 -22.5t-22.5 -55.5zM383 651q0 -33 22.5 -56.5t57.5 -23.5q33 0 56.5 23.5t23.5 56.5t-23.5 55.5t-56.5 22.5q-35 0 -57.5 -22.5t-22.5 -55.5zM383 1124q0 -33 22.5 -55t57.5 -22 q33 0 56.5 22t23.5 55t-23.5 56.5t-56.5 23.5q-35 0 -57.5 -23.5t-22.5 -56.5zM391 1479q0 -35 21.5 -57.5t56.5 -22.5q33 0 56 22.5t23 57.5q0 33 -23.5 55t-55.5 22q-35 0 -56.5 -22.5t-21.5 -54.5zM467 1669q0 -33 22.5 -56.5t54.5 -23.5q35 0 57.5 23.5t22.5 56.5 t-22.5 55.5t-57.5 22.5q-33 0 -55 -22.5t-22 -55.5zM573 176q0 -33 22.5 -56.5t55.5 -23.5t56.5 23.5t23.5 56.5t-23.5 55.5t-56.5 22.5t-55.5 -22.5t-22.5 -55.5zM573 651q0 -33 22.5 -56.5t55.5 -23.5t56.5 23.5t23.5 56.5t-23.5 55.5t-56.5 22.5t-55.5 -22.5t-22.5 -55.5 zM573 1124q0 -33 22.5 -55t55.5 -22t56.5 22t23.5 55t-23.5 56.5t-56.5 23.5t-55.5 -23.5t-22.5 -56.5z" />
<glyph unicode="&#xca;" horiz-adv-x="909" d="M76 0v1288h772v-325h-373v-150h373v-326h-373v-149h373v-338h-772zM105 1350l282 452h170l283 -452h-303l-66 149l-67 -149h-299zM193 176q0 -33 23 -56.5t56 -23.5q35 0 56.5 23.5t21.5 56.5t-21.5 55.5t-56.5 22.5q-33 0 -56 -22.5t-23 -55.5zM193 367q0 -35 23 -57.5 t56 -22.5q35 0 56.5 22.5t21.5 57.5q0 33 -21.5 56t-56.5 23q-33 0 -56 -23.5t-23 -55.5zM193 555q0 -33 23.5 -55.5t55.5 -22.5q35 0 56.5 22.5t21.5 55.5t-21.5 56.5t-56.5 23.5q-33 0 -56 -23.5t-23 -56.5zM193 745q0 -33 23 -56t56 -23q35 0 56.5 23.5t21.5 55.5 q0 35 -21.5 56.5t-56.5 21.5q-33 0 -56 -21.5t-23 -56.5zM193 936q0 -35 23 -57.5t56 -22.5q35 0 56.5 22.5t21.5 57.5q0 33 -21.5 56.5t-56.5 23.5q-33 0 -56 -23.5t-23 -56.5zM193 1124q0 -33 23.5 -55t55.5 -22q35 0 56.5 22t21.5 55t-21.5 56.5t-56.5 23.5 q-33 0 -56 -23.5t-23 -56.5zM250 1479q0 -35 22.5 -57.5t57.5 -22.5q33 0 55.5 22.5t22.5 57.5q0 33 -22.5 55t-55.5 22q-35 0 -57.5 -22.5t-22.5 -54.5zM383 176q0 -33 22.5 -56.5t57.5 -23.5q33 0 56.5 23.5t23.5 56.5t-23.5 55.5t-56.5 22.5q-35 0 -57.5 -22.5 t-22.5 -55.5zM383 651q0 -33 22.5 -56.5t57.5 -23.5q33 0 56.5 23.5t23.5 56.5t-23.5 55.5t-56.5 22.5q-35 0 -57.5 -22.5t-22.5 -55.5zM383 1124q0 -33 22.5 -55t57.5 -22q33 0 56.5 22t23.5 55t-23.5 56.5t-56.5 23.5q-35 0 -57.5 -23.5t-22.5 -56.5zM391 1669 q0 -33 23.5 -56.5t56.5 -23.5q35 0 56.5 23.5t21.5 56.5t-21.5 55.5t-56.5 22.5q-33 0 -56.5 -22.5t-23.5 -55.5zM537 1479q0 -35 22.5 -57.5t55.5 -22.5q35 0 57 22.5t22 57.5q0 33 -22.5 55t-56.5 22q-33 0 -55.5 -22.5t-22.5 -54.5zM573 176q0 -33 22.5 -56.5t55.5 -23.5 t56.5 23.5t23.5 56.5t-23.5 55.5t-56.5 22.5t-55.5 -22.5t-22.5 -55.5zM573 651q0 -33 22.5 -56.5t55.5 -23.5t56.5 23.5t23.5 56.5t-23.5 55.5t-56.5 22.5t-55.5 -22.5t-22.5 -55.5zM573 1124q0 -33 22.5 -55t55.5 -22t56.5 22t23.5 55t-23.5 56.5t-56.5 23.5t-55.5 -23.5 t-22.5 -56.5z" />
<glyph unicode="&#xcb;" horiz-adv-x="909" d="M33 1569q0 88 56.5 145.5t144.5 57.5t144.5 -58.5t56.5 -144.5q0 -92 -54.5 -145.5t-146.5 -53.5q-88 0 -144.5 53.5t-56.5 145.5zM76 0v1288h772v-325h-373v-150h373v-326h-373v-149h373v-338h-772zM154 1569q0 -33 22.5 -56.5t57.5 -23.5q33 0 56.5 23.5t23.5 56.5 q0 35 -23.5 57.5t-56.5 22.5q-35 0 -57.5 -22.5t-22.5 -57.5zM193 176q0 -33 23 -56.5t56 -23.5q35 0 56.5 23.5t21.5 56.5t-21.5 55.5t-56.5 22.5q-33 0 -56 -22.5t-23 -55.5zM193 367q0 -35 23 -57.5t56 -22.5q35 0 56.5 22.5t21.5 57.5q0 33 -21.5 56t-56.5 23 q-33 0 -56 -23.5t-23 -55.5zM193 555q0 -33 23.5 -55.5t55.5 -22.5q35 0 56.5 22.5t21.5 55.5t-21.5 56.5t-56.5 23.5q-33 0 -56 -23.5t-23 -56.5zM193 745q0 -33 23 -56t56 -23q35 0 56.5 23.5t21.5 55.5q0 35 -21.5 56.5t-56.5 21.5q-33 0 -56 -21.5t-23 -56.5zM193 936 q0 -35 23 -57.5t56 -22.5q35 0 56.5 22.5t21.5 57.5q0 33 -21.5 56.5t-56.5 23.5q-33 0 -56 -23.5t-23 -56.5zM193 1124q0 -33 23.5 -55t55.5 -22q35 0 56.5 22t21.5 55t-21.5 56.5t-56.5 23.5q-33 0 -56 -23.5t-23 -56.5zM383 176q0 -33 22.5 -56.5t57.5 -23.5 q33 0 56.5 23.5t23.5 56.5t-23.5 55.5t-56.5 22.5q-35 0 -57.5 -22.5t-22.5 -55.5zM383 651q0 -33 22.5 -56.5t57.5 -23.5q33 0 56.5 23.5t23.5 56.5t-23.5 55.5t-56.5 22.5q-35 0 -57.5 -22.5t-22.5 -55.5zM383 1124q0 -33 22.5 -55t57.5 -22q33 0 56.5 22t23.5 55 t-23.5 56.5t-56.5 23.5q-35 0 -57.5 -23.5t-22.5 -56.5zM514 1569q0 88 56.5 145.5t144.5 57.5t144.5 -58.5t56.5 -144.5q0 -92 -54.5 -145.5t-146.5 -53.5q-88 0 -144.5 53.5t-56.5 145.5zM573 176q0 -33 22.5 -56.5t55.5 -23.5t56.5 23.5t23.5 56.5t-23.5 55.5t-56.5 22.5 t-55.5 -22.5t-22.5 -55.5zM573 651q0 -33 22.5 -56.5t55.5 -23.5t56.5 23.5t23.5 56.5t-23.5 55.5t-56.5 22.5t-55.5 -22.5t-22.5 -55.5zM573 1124q0 -33 22.5 -55t55.5 -22t56.5 22t23.5 55t-23.5 56.5t-56.5 23.5t-55.5 -23.5t-22.5 -56.5zM637 1569q0 -33 21.5 -56.5 t56.5 -23.5q33 0 56.5 23.5t23.5 56.5q0 35 -23.5 57.5t-56.5 22.5q-35 0 -56.5 -22.5t-21.5 -57.5z" />
<glyph unicode="&#xcc;" horiz-adv-x="555" d="M-15 1802h348l119 -452h-262zM76 0v1288h403v-1288h-403zM127 1669q0 -33 22.5 -56.5t56.5 -23.5q33 0 56.5 23.5t23.5 56.5t-23.5 55.5t-56.5 22.5q-35 0 -57 -22.5t-22 -55.5zM193 176q0 -33 23 -56.5t56 -23.5q35 0 56.5 23.5t21.5 56.5t-21.5 55.5t-56.5 22.5 q-33 0 -56 -22.5t-23 -55.5zM193 367q0 -35 23 -57.5t56 -22.5q35 0 56.5 22.5t21.5 57.5q0 33 -21.5 56t-56.5 23q-33 0 -56 -23.5t-23 -55.5zM193 555q0 -33 23.5 -55.5t55.5 -22.5q35 0 56.5 22.5t21.5 55.5t-21.5 56.5t-56.5 23.5q-33 0 -56 -23.5t-23 -56.5zM193 745 q0 -33 23 -56t56 -23q35 0 56.5 23.5t21.5 55.5q0 35 -21.5 56.5t-56.5 21.5q-33 0 -56 -21.5t-23 -56.5zM193 936q0 -35 23 -57.5t56 -22.5q35 0 56.5 22.5t21.5 57.5q0 33 -21.5 56.5t-56.5 23.5q-33 0 -56 -23.5t-23 -56.5zM193 1124q0 -33 23.5 -55t55.5 -22 q35 0 56.5 22t21.5 55t-21.5 56.5t-56.5 23.5q-33 0 -56 -23.5t-23 -56.5zM202 1479q0 -35 23.5 -57.5t56.5 -22.5q35 0 57.5 22.5t22.5 57.5q0 33 -22.5 55t-57.5 22q-33 0 -56.5 -22.5t-23.5 -54.5z" />
<glyph unicode="&#xcd;" horiz-adv-x="555" d="M76 0v1288h403v-1288h-403zM105 1350l118 452h351l-207 -452h-262zM193 176q0 -33 23 -56.5t56 -23.5q35 0 56.5 23.5t21.5 56.5t-21.5 55.5t-56.5 22.5q-33 0 -56 -22.5t-23 -55.5zM193 367q0 -35 23 -57.5t56 -22.5q35 0 56.5 22.5t21.5 57.5q0 33 -21.5 56t-56.5 23 q-33 0 -56 -23.5t-23 -55.5zM193 555q0 -33 23.5 -55.5t55.5 -22.5q35 0 56.5 22.5t21.5 55.5t-21.5 56.5t-56.5 23.5q-33 0 -56 -23.5t-23 -56.5zM193 745q0 -33 23 -56t56 -23q35 0 56.5 23.5t21.5 55.5q0 35 -21.5 56.5t-56.5 21.5q-33 0 -56 -21.5t-23 -56.5zM193 936 q0 -35 23 -57.5t56 -22.5q35 0 56.5 22.5t21.5 57.5q0 33 -21.5 56.5t-56.5 23.5q-33 0 -56 -23.5t-23 -56.5zM193 1124q0 -33 23.5 -55t55.5 -22q35 0 56.5 22t21.5 55t-21.5 56.5t-56.5 23.5q-33 0 -56 -23.5t-23 -56.5zM197 1479q0 -35 21.5 -57.5t56.5 -22.5 q33 0 56 22.5t23 57.5q0 33 -23.5 55t-55.5 22q-35 0 -56.5 -22.5t-21.5 -54.5zM273 1669q0 -33 22.5 -56.5t54.5 -23.5q35 0 57.5 23.5t22.5 56.5t-22.5 55.5t-57.5 22.5q-33 0 -55 -22.5t-22 -55.5z" />
<glyph unicode="&#xce;" horiz-adv-x="555" d="M-86 1350l282 452h170l283 -452h-303l-66 149l-67 -149h-299zM59 1479q0 -35 22.5 -57.5t57.5 -22.5q33 0 55.5 22.5t22.5 57.5q0 33 -22.5 55t-55.5 22q-35 0 -57.5 -22.5t-22.5 -54.5zM76 0v1288h403v-1288h-403zM193 176q0 -33 23 -56.5t56 -23.5q35 0 56.5 23.5 t21.5 56.5t-21.5 55.5t-56.5 22.5q-33 0 -56 -22.5t-23 -55.5zM193 367q0 -35 23 -57.5t56 -22.5q35 0 56.5 22.5t21.5 57.5q0 33 -21.5 56t-56.5 23q-33 0 -56 -23.5t-23 -55.5zM193 555q0 -33 23.5 -55.5t55.5 -22.5q35 0 56.5 22.5t21.5 55.5t-21.5 56.5t-56.5 23.5 q-33 0 -56 -23.5t-23 -56.5zM193 745q0 -33 23 -56t56 -23q35 0 56.5 23.5t21.5 55.5q0 35 -21.5 56.5t-56.5 21.5q-33 0 -56 -21.5t-23 -56.5zM193 936q0 -35 23 -57.5t56 -22.5q35 0 56.5 22.5t21.5 57.5q0 33 -21.5 56.5t-56.5 23.5q-33 0 -56 -23.5t-23 -56.5zM193 1124 q0 -33 23.5 -55t55.5 -22q35 0 56.5 22t21.5 55t-21.5 56.5t-56.5 23.5q-33 0 -56 -23.5t-23 -56.5zM200 1669q0 -33 23.5 -56.5t56.5 -23.5q35 0 56.5 23.5t21.5 56.5t-21.5 55.5t-56.5 22.5q-33 0 -56.5 -22.5t-23.5 -55.5zM346 1479q0 -35 22.5 -57.5t55.5 -22.5 q35 0 57 22.5t22 57.5q0 33 -22.5 55t-56.5 22q-33 0 -55.5 -22.5t-22.5 -54.5z" />
<glyph unicode="&#xcf;" horiz-adv-x="555" d="M-160 1569q0 88 56.5 145.5t144.5 57.5t144.5 -58.5t56.5 -144.5q0 -92 -54.5 -145.5t-146.5 -53.5q-88 0 -144.5 53.5t-56.5 145.5zM-39 1569q0 -33 22.5 -56.5t57.5 -23.5q33 0 56.5 23.5t23.5 56.5q0 35 -23.5 57.5t-56.5 22.5q-35 0 -57.5 -22.5t-22.5 -57.5zM76 0 v1288h403v-1288h-403zM193 176q0 -33 23 -56.5t56 -23.5q35 0 56.5 23.5t21.5 56.5t-21.5 55.5t-56.5 22.5q-33 0 -56 -22.5t-23 -55.5zM193 367q0 -35 23 -57.5t56 -22.5q35 0 56.5 22.5t21.5 57.5q0 33 -21.5 56t-56.5 23q-33 0 -56 -23.5t-23 -55.5zM193 555 q0 -33 23.5 -55.5t55.5 -22.5q35 0 56.5 22.5t21.5 55.5t-21.5 56.5t-56.5 23.5q-33 0 -56 -23.5t-23 -56.5zM193 745q0 -33 23 -56t56 -23q35 0 56.5 23.5t21.5 55.5q0 35 -21.5 56.5t-56.5 21.5q-33 0 -56 -21.5t-23 -56.5zM193 936q0 -35 23 -57.5t56 -22.5 q35 0 56.5 22.5t21.5 57.5q0 33 -21.5 56.5t-56.5 23.5q-33 0 -56 -23.5t-23 -56.5zM193 1124q0 -33 23.5 -55t55.5 -22q35 0 56.5 22t21.5 55t-21.5 56.5t-56.5 23.5q-33 0 -56 -23.5t-23 -56.5zM321 1569q0 88 56.5 145.5t144.5 57.5t144.5 -58.5t56.5 -144.5 q0 -92 -54.5 -145.5t-146.5 -53.5q-88 0 -144.5 53.5t-56.5 145.5zM444 1569q0 -33 21.5 -56.5t56.5 -23.5q33 0 56.5 23.5t23.5 56.5q0 35 -23.5 57.5t-56.5 22.5q-35 0 -56.5 -22.5t-21.5 -57.5z" />
<glyph unicode="&#xd0;" horiz-adv-x="1220" d="M-16 504v303h135v481h358q184 0 315.5 -52t215.5 -140t122.5 -203t38.5 -238q0 -154 -52 -275.5t-144 -205.5t-219 -129t-277 -45h-358v504h-135zM41 651q0 -35 22.5 -56.5t57.5 -21.5q33 0 55.5 21.5t22.5 56.5t-22.5 57.5t-55.5 22.5q-35 0 -57.5 -22.5t-22.5 -57.5z M238 176q0 -35 21 -57.5t56 -22.5t56.5 22.5t21.5 57.5t-21.5 56.5t-56.5 21.5t-56 -21.5t-21 -56.5zM238 365q0 -33 21.5 -55.5t55.5 -22.5q35 0 56.5 22.5t21.5 55.5q0 35 -21.5 58t-56.5 23t-56 -23.5t-21 -57.5zM238 555q0 -35 21.5 -56.5t55.5 -21.5q35 0 56.5 21.5 t21.5 56.5t-21.5 57.5t-56.5 22.5t-56 -22.5t-21 -57.5zM238 745q0 -35 21.5 -56t55.5 -21q35 0 56.5 21t21.5 56t-21.5 56.5t-56.5 21.5t-56 -21.5t-21 -56.5zM238 934q0 -33 21.5 -55.5t55.5 -22.5q35 0 56.5 22.5t21.5 55.5q0 35 -21.5 58.5t-56.5 23.5t-56 -23.5 t-21 -58.5zM238 1126q0 -35 21 -57t56 -22t56.5 22.5t21.5 56.5q0 33 -21.5 55.5t-56.5 22.5t-56 -22.5t-21 -55.5zM414 156q0 -35 23.5 -57.5t58.5 -22.5q33 0 55 22.5t22 57.5t-22.5 57.5t-54.5 22.5q-35 0 -58.5 -25t-23.5 -55zM414 1135q0 -35 23.5 -57.5t58.5 -22.5 q33 0 55 22.5t22 57.5t-22.5 57t-54.5 22q-35 0 -58.5 -23.5t-23.5 -55.5zM485 338q135 0 209 80t74 229q0 307 -283 307v-147h64v-303h-64v-166zM614 203q0 -35 22.5 -57.5t57.5 -22.5q31 0 54.5 22.5t23.5 57.5q0 33 -22.5 55.5t-55.5 22.5q-35 0 -57.5 -22.5t-22.5 -55.5 zM614 1085q0 -33 22.5 -55t57.5 -22q31 0 54.5 24t23.5 53q0 35 -22.5 58.5t-55.5 23.5q-35 0 -57.5 -23.5t-22.5 -58.5zM758 315q0 -33 22.5 -55t57.5 -22t57.5 22t22.5 55q0 35 -24 57.5t-56 22.5q-35 0 -57.5 -22.5t-22.5 -57.5zM758 973q0 -35 22.5 -57.5t57.5 -22.5 q33 0 56.5 23.5t23.5 56.5t-23 55.5t-57 22.5q-35 0 -57.5 -22.5t-22.5 -55.5zM858 467q0 -35 23.5 -58.5t58.5 -23.5q29 0 52.5 24.5t23.5 57.5t-21.5 55.5t-54.5 22.5q-35 0 -58.5 -22.5t-23.5 -55.5zM858 823q0 -35 23.5 -57.5t58.5 -22.5q33 0 54.5 22.5t21.5 57.5 q0 33 -23.5 56.5t-52.5 23.5q-35 0 -58.5 -22.5t-23.5 -57.5zM891 643q0 -33 22.5 -55.5t55.5 -22.5q35 0 57.5 22.5t22.5 55.5q0 35 -22.5 58.5t-57.5 23.5q-29 0 -53.5 -23.5t-24.5 -58.5z" />
<glyph unicode="&#xd1;" horiz-adv-x="1329" d="M76 0v1288h397l389 -645v645h391v-1288h-366l-416 618v-618h-395zM193 176q0 -33 23 -56.5t56 -23.5q35 0 56.5 23.5t21.5 56.5t-21.5 55.5t-56.5 22.5q-33 0 -56 -22.5t-23 -55.5zM193 367q0 -35 23 -57.5t56 -22.5q35 0 56.5 22.5t21.5 57.5q0 33 -21.5 56t-56.5 23 q-33 0 -56 -23.5t-23 -55.5zM193 555q0 -33 23.5 -55.5t55.5 -22.5q35 0 56.5 22.5t21.5 55.5t-21.5 56.5t-56.5 23.5q-33 0 -56 -23.5t-23 -56.5zM193 745q0 -33 23 -56t56 -23q35 0 56.5 23.5t21.5 55.5q0 35 -21.5 56.5t-56.5 21.5q-33 0 -56 -21.5t-23 -56.5zM193 936 q0 -35 23 -57.5t56 -22.5q35 0 56.5 22.5t21.5 57.5q0 33 -21.5 56.5t-56.5 23.5q-33 0 -56 -23.5t-23 -56.5zM193 1124q0 -33 23.5 -55t55.5 -22q35 0 56.5 22t21.5 55t-21.5 56.5t-56.5 23.5q-33 0 -56 -23.5t-23 -56.5zM277 1405v252q33 35 83 62.5t121 27.5 q51 0 97.5 -14.5t88.5 -33t82 -32.5t83 -14q80 0 131 26.5t92 87.5v-268q-53 -45 -104.5 -65.5t-129.5 -20.5q-43 0 -84 14.5t-82 31t-81.5 30.5t-83.5 14q-76 0 -124 -21.5t-89 -76.5zM324 1606q0 -35 23.5 -57.5t56.5 -22.5t56 22.5t23 57.5q0 31 -24.5 54t-54.5 23 q-33 0 -56.5 -22.5t-23.5 -54.5zM356 1010q0 -31 23.5 -55.5t56.5 -24.5t55.5 23.5t22.5 56.5t-22.5 56.5t-55.5 23.5t-56.5 -24t-23.5 -56zM457 834q0 -33 23.5 -56.5t56.5 -23.5t56 23.5t23 56.5t-23.5 55t-55.5 22q-33 0 -56.5 -22.5t-23.5 -54.5zM504 1608 q0 -35 22.5 -57.5t55.5 -22.5t56.5 22.5t23.5 57.5q0 31 -25 54.5t-55 23.5q-33 0 -55.5 -23t-22.5 -55zM575 657q0 -35 23 -57t55 -22q33 0 56.5 22t23.5 57q0 31 -24.5 55.5t-55.5 24.5q-33 0 -55.5 -23.5t-22.5 -56.5zM672 1542q0 -35 23.5 -56.5t56.5 -21.5t55.5 21.5 t22.5 56.5q0 33 -24 56.5t-54 23.5q-33 0 -56.5 -23.5t-23.5 -56.5zM705 465q0 -35 23.5 -57.5t55.5 -22.5q35 0 57.5 22.5t22.5 57.5q0 33 -22.5 55.5t-57.5 22.5q-31 0 -55 -23.5t-24 -54.5zM823 303q0 -35 22.5 -57.5t55.5 -22.5t56.5 23.5t23.5 56.5t-22.5 55.5 t-57.5 22.5q-33 0 -55.5 -22.5t-22.5 -55.5zM848 1556q0 -35 23.5 -56t56.5 -21t56.5 21t23.5 56q0 31 -24.5 55.5t-55.5 24.5q-33 0 -56.5 -23.5t-23.5 -56.5zM983 176q0 -33 23.5 -56.5t56.5 -23.5q35 0 57.5 23.5t22.5 56.5t-22.5 55.5t-57.5 22.5q-33 0 -56.5 -22.5 t-23.5 -55.5zM983 367q0 -35 23.5 -57.5t56.5 -22.5q35 0 57.5 22.5t22.5 57.5q0 33 -22.5 56t-57.5 23q-33 0 -56.5 -23.5t-23.5 -55.5zM983 555q0 -33 23.5 -55.5t56.5 -22.5q35 0 57.5 22.5t22.5 55.5t-22.5 56.5t-57.5 23.5q-33 0 -56.5 -23.5t-23.5 -56.5zM983 745 q0 -33 23.5 -56t56.5 -23q35 0 57.5 23t22.5 56q0 35 -22.5 56.5t-57.5 21.5q-33 0 -56.5 -21.5t-23.5 -56.5zM983 936q0 -35 23.5 -57.5t56.5 -22.5q35 0 57.5 22.5t22.5 57.5q0 33 -22.5 56.5t-57.5 23.5q-33 0 -56.5 -23.5t-23.5 -56.5zM983 1124q0 -33 23.5 -55 t56.5 -22q35 0 57.5 22t22.5 55t-22.5 56.5t-57.5 23.5q-33 0 -56.5 -23.5t-23.5 -56.5z" />
<glyph unicode="&#xd2;" horiz-adv-x="1466" d="M53 643q0 147 51.5 270t142.5 212t216 138.5t270 49.5q143 0 267 -50.5t216.5 -139.5t144.5 -212t52 -268t-52 -267t-143.5 -211t-216 -139.5t-268.5 -50.5q-145 0 -269 50.5t-215 139.5t-143.5 211t-52.5 267zM176 643q0 -33 21.5 -55.5t56.5 -22.5q33 0 56.5 22.5 t23.5 55.5q0 35 -23.5 57.5t-56.5 22.5q-35 0 -56.5 -22.5t-21.5 -57.5zM201 461q0 -31 24.5 -55.5t55.5 -24.5q33 0 56 23.5t23 56.5q0 35 -23.5 57.5t-55.5 22.5q-33 0 -56.5 -22.5t-23.5 -57.5zM205 827q0 -31 23.5 -55t56.5 -24t55 23.5t22 55.5q0 35 -22.5 57.5 t-54.5 22.5q-33 0 -56.5 -22.5t-23.5 -57.5zM303 303q0 -33 22.5 -56.5t55.5 -23.5t56.5 24.5t23.5 55.5q0 33 -23.5 55.5t-56.5 22.5t-55.5 -22.5t-22.5 -55.5zM303 983q0 -33 22.5 -55.5t55.5 -22.5t56.5 22.5t23.5 55.5t-23.5 56.5t-56.5 23.5t-55.5 -23.5t-22.5 -56.5z M438 1802h348l119 -452h-262zM453 643q0 -147 75.5 -226t204.5 -79q125 0 203 79t78 226t-78 227t-203 80q-129 0 -204.5 -78.5t-75.5 -228.5zM459 201q0 -33 22.5 -55.5t57.5 -22.5q31 0 55 22.5t24 55.5t-23.5 56.5t-55.5 23.5q-35 0 -57.5 -24t-22.5 -56zM459 1085 q0 -33 22.5 -56t57.5 -23q31 0 55 24t24 55q0 33 -23.5 56.5t-55.5 23.5q-35 0 -57.5 -23.5t-22.5 -56.5zM580 1669q0 -33 22.5 -56.5t56.5 -23.5q33 0 56.5 23.5t23.5 56.5t-23.5 55.5t-56.5 22.5q-35 0 -57 -22.5t-22 -55.5zM653 156q0 -33 23.5 -56.5t56.5 -23.5 q35 0 56.5 23.5t21.5 56.5t-21.5 55t-56.5 22q-33 0 -56.5 -22.5t-23.5 -54.5zM653 1135q0 -35 23.5 -57.5t56.5 -22.5q35 0 56.5 22.5t21.5 57.5q0 33 -21.5 55t-56.5 22q-31 0 -55.5 -23.5t-24.5 -53.5zM655 1479q0 -35 23.5 -57.5t56.5 -22.5q35 0 57.5 22.5t22.5 57.5 q0 33 -22.5 55t-57.5 22q-33 0 -56.5 -22.5t-23.5 -54.5zM848 201q0 -33 24.5 -55.5t55.5 -22.5q35 0 56.5 22.5t21.5 55.5t-21.5 56.5t-56.5 23.5q-33 0 -56.5 -24t-23.5 -56zM848 1085q0 -31 24.5 -55t55.5 -24q35 0 56.5 23.5t21.5 55.5q0 33 -21.5 56.5t-56.5 23.5 q-33 0 -56.5 -23.5t-23.5 -56.5zM1006 303q0 -31 23.5 -55.5t53.5 -24.5q33 0 56.5 23.5t23.5 56.5t-23.5 55.5t-56.5 22.5t-55 -22.5t-22 -55.5zM1006 983q0 -33 23.5 -55.5t53.5 -22.5q33 0 56.5 22.5t23.5 55.5t-23.5 56.5t-56.5 23.5t-55 -23.5t-22 -56.5zM1102 827 q0 -33 23.5 -56t56.5 -23q31 0 55.5 24t24.5 55q0 35 -24 57.5t-56 22.5q-33 0 -56.5 -22.5t-23.5 -57.5zM1106 461q0 -33 23.5 -56.5t56.5 -23.5q31 0 54.5 24.5t23.5 55.5q0 35 -22.5 57.5t-55.5 22.5t-56.5 -22.5t-23.5 -57.5zM1133 643q0 -33 22.5 -55.5t54.5 -22.5 q35 0 57.5 22.5t22.5 55.5q0 35 -22.5 57.5t-57.5 22.5q-33 0 -55 -22.5t-22 -57.5z" />
</font>
</defs>
</svg>
